<svg width="133" height="133" viewBox="0 0 133 133" fill="none" xmlns="http://www.w3.org/2000/svg">
<rect x="0.5" y="0.5" width="132" height="132" rx="9.5" fill="url(#paint0_linear_256_2)" fill-opacity="0.5" stroke="url(#paint1_linear_256_2)"/>
<path d="M67.8811 38.9199C84.5261 39.0066 95.3341 53.308 95.1263 66.7426C94.8665 82.7948 81.3738 94.3399 67.3615 94.1839C51.7556 94.0106 39.9257 81.0613 39.9084 66.4652C39.8911 52.4759 51.3226 38.6252 67.8984 38.9373L67.8811 38.9199ZM70.4099 56.9657C70.4099 56.9657 70.4618 56.9657 70.4791 56.9657C70.3752 54.9548 70.4099 52.9266 70.1501 50.9331C69.9249 49.2343 68.5219 48.1941 66.8938 48.1768C65.3176 48.1768 63.8627 49.2689 63.5336 50.8464C63.3777 51.5918 63.3604 52.3892 63.3604 53.152C63.3604 55.3188 63.3604 57.503 63.3604 59.6699C63.3951 61.5594 63.066 63.1543 61.7496 64.7838C59.5845 67.4707 60.0868 70.9897 62.4424 73.1912C64.5902 75.2194 68.1062 75.6701 70.5311 73.6246C72.2978 72.1338 74.0472 71.9084 76.091 71.9604C77.9443 72.0124 79.8149 71.9778 81.6855 71.9604C82.465 71.9604 83.2444 71.9431 83.9892 71.7871C85.5653 71.4404 86.7085 69.9669 86.6565 68.4241C86.6219 66.8119 85.5134 65.4598 83.8333 65.2171C82.7594 65.0611 81.6682 65.0958 80.577 65.0784C78.412 65.0611 76.2296 65.1305 74.0645 65.0438C71.8475 64.9398 70.6004 63.7783 70.4099 61.6114C70.2713 60.0686 70.3925 58.5085 70.3925 56.9483L70.4099 56.9657Z" fill="#F6C688"/>
<path d="M46.7673 95.6055C47.72 96.8536 49.1403 97.5124 50.4913 98.1884C63.0487 104.481 75.4675 104.256 87.2108 96.4549C99.0927 88.5675 104.341 77.1264 103.319 62.8944C103.163 60.5888 102.522 58.3006 101.933 56.047C101.57 54.6256 101.829 53.6201 103.059 52.8574C103.579 52.528 104.081 52.164 104.618 51.8173C105.259 51.4013 105.882 51.592 106.211 52.164C106.662 52.9614 106.991 53.8455 107.268 54.7296C113.867 76.5197 101.067 100.043 79.0875 106.284C67.4481 109.578 56.311 108.087 45.884 101.846C45.0873 101.361 44.3425 100.806 43.5457 100.303C42.0215 99.3499 41.831 99.3672 40.2721 100.598C39.4234 101.274 38.6267 102.019 37.7607 102.678C36.9639 103.268 35.7342 102.765 35.6129 101.759C35.076 96.975 34.591 92.1732 34.1407 87.3887C34.0368 86.3486 34.9547 85.6379 35.994 85.9673C40.4454 87.3367 44.8794 88.7409 49.2961 90.197C50.3007 90.5264 50.3181 91.5318 49.5733 92.4679C48.7246 93.5427 47.287 94.0974 46.75 95.6229L46.7673 95.6055Z" fill="#F6C688"/>
<path d="M88.6137 37.4985C83.7986 33.6848 78.793 31.6219 73.3717 30.9285C57.9044 28.935 45.6069 34.3262 36.9812 47.4315C31.8717 55.1975 30.6419 63.8304 32.1142 72.8966C32.3047 74.1274 32.6511 75.3235 32.9455 76.5196C33.4998 78.8425 33.4305 79.0505 31.5599 80.3853C29.7066 81.7201 28.7713 81.5121 28.1131 79.3972C24.164 66.4306 25.6709 54.1574 33.3612 42.9417C40.0123 33.2514 49.3481 27.3055 60.9529 25.5374C71.2586 23.9599 81.0447 25.7627 89.9301 31.5699C93.2037 33.7021 92.5455 34.3782 96.1135 31.1712C96.3387 30.9632 96.5812 30.7725 96.841 30.5818C98.192 29.5764 99.3005 29.9231 99.491 31.5353C100.011 36.0077 100.496 40.4801 100.894 44.9699C101.067 47.0154 100.461 47.4488 98.3825 46.8247C94.3642 45.646 90.3631 44.3978 86.3794 43.0977C84.7166 42.5603 84.4915 41.5376 85.6346 40.3588C86.5006 39.4747 87.4186 38.6426 88.6311 37.4812L88.6137 37.4985Z" fill="#F6C688"/>
<path d="M68.9896 68.4761C69.0242 69.5162 68.0369 70.6083 67.015 70.6777C65.8026 70.7644 64.6075 69.5509 64.7114 68.3375C64.798 67.2974 65.8892 66.3439 66.9284 66.3786C68.0023 66.4133 68.9376 67.384 68.9722 68.4935L68.9896 68.4761Z" fill="#F6C688"/>
<defs>
<linearGradient id="paint0_linear_256_2" x1="66.5" y1="0" x2="66.5" y2="133" gradientUnits="userSpaceOnUse">
<stop stop-color="#E3EDED"/>
<stop offset="1" stop-color="#818787"/>
</linearGradient>
<linearGradient id="paint1_linear_256_2" x1="66.5" y1="0" x2="66.5" y2="133" gradientUnits="userSpaceOnUse">
<stop stop-color="#122450"/>
<stop offset="1" stop-color="#D5D5D5"/>
</linearGradient>
</defs>
</svg>
