<svg width="133" height="133" viewBox="0 0 133 133" fill="none" xmlns="http://www.w3.org/2000/svg">
<rect x="0.5" y="0.5" width="132" height="132" rx="9.5" fill="url(#paint0_linear_256_3)" fill-opacity="0.5" stroke="url(#paint1_linear_256_3)"/>
<g clip-path="url(#clip0_256_3)">
<path d="M60.1864 99.8252C56.5922 99.6574 52.4934 99.5049 48.3792 99.2456C46.4215 99.1236 44.5709 99.4591 42.7203 100.054C42.1697 100.237 41.6497 100.054 41.3438 99.4896C41.2214 99.2456 41.0532 99.0321 40.9308 98.7881C38.4073 93.633 35.8684 88.4779 33.3754 83.3075C32.5037 81.4926 32.5801 81.1875 34.079 79.7539C38.4838 75.5291 43.6074 73.9887 49.5721 75.6207C50.6274 75.9104 51.6675 76.2612 52.6922 76.6425C55.4146 77.6796 58.2134 78.1677 61.1347 78.1372C66.2124 78.0914 71.2901 78.1372 76.3678 78.1219C78.0502 78.1219 79.6408 78.3202 80.9867 79.4641C82.8526 81.035 83.0055 83.033 81.4149 84.8327C80.0384 86.3884 78.2337 86.9069 76.2454 86.9069C72.5442 86.9069 68.843 86.9069 65.1265 86.9374C64.0406 86.9374 62.9394 86.9985 61.8535 87.1357C61.3029 87.212 60.8594 87.6238 60.7829 88.2186C60.6758 89.0117 61.1652 89.5302 61.8535 89.698C62.5111 89.8658 63.2147 89.8658 63.8876 89.8658C68.0018 89.8658 72.116 89.82 76.2302 89.881C79.4573 89.942 82.1491 88.9354 84.122 86.2969C84.8714 85.2903 85.8197 84.5429 86.8291 83.8108C91.4021 80.547 95.9445 77.2221 100.502 73.9582C101.389 73.3176 102.292 72.6771 103.286 72.2195C105.488 71.2129 107.721 71.8687 109.113 73.7904C110.413 75.5749 110.291 78.1982 108.731 79.8301C108.073 80.5165 107.278 81.0808 106.482 81.6146C98.8811 86.7697 91.2645 91.8943 83.6938 97.0799C82.1796 98.117 80.5737 98.6508 78.769 98.9558C72.7736 99.9929 66.7324 99.6727 60.1711 99.8099L60.1864 99.8252Z" fill="#F6C688"/>
<path d="M76.276 44.4918C78.6008 44.4918 80.9255 44.4918 83.2655 44.4918C84.1679 44.4918 84.795 44.8274 85.1009 45.773C86.4468 49.7994 87.6244 53.8564 87.4409 58.1574C87.2115 63.6023 83.8008 68.2845 79.029 69.5809C75.496 70.5418 72.2536 69.9165 69.4548 67.4457C66.8853 65.1732 65.4018 62.3364 65.1265 58.9047C64.7594 54.3139 65.8912 49.9672 67.4206 45.6967C67.7418 44.7968 68.3842 44.4766 69.3018 44.4766C71.6266 44.4766 73.9513 44.4766 76.2913 44.4766L76.276 44.4918ZM80.1761 59.591C80.069 57.6693 79.029 56.4187 77.1631 55.7629C76.4443 55.5036 75.2054 55.3358 75.496 54.3749C75.9549 52.865 76.9949 54.0547 77.8055 54.2072C78.3408 54.3139 78.8761 54.2834 79.2431 53.7496C79.5796 53.2616 79.702 52.743 79.3961 52.2397C78.6925 51.1111 77.6984 50.196 77.2855 48.8386C77.0713 48.137 75.6031 48.1522 75.2054 48.8386C74.5937 49.8757 74.089 50.928 73.2936 51.8889C71.4889 54.0699 72.116 56.6627 74.5325 58.0964C75.2207 58.5082 75.9854 58.7674 76.6737 59.164C76.8266 59.2555 76.9031 59.6673 76.8419 59.8961C76.7808 60.0943 76.4749 60.3994 76.3066 60.3689C75.5266 60.2774 74.7466 60.0028 73.9666 59.9571C73.1254 59.9113 72.4219 61.0247 72.8807 61.6958C73.7066 62.9159 74.716 63.9988 75.2513 65.4325C75.5113 66.134 77.0561 66.073 77.3008 65.3104C77.729 63.953 78.6314 62.9922 79.5184 61.9856C80.0996 61.3297 80.1608 60.5061 80.1914 59.6063L80.1761 59.591Z" fill="#F6C688"/>
<path d="M40.105 104.569C40.105 106.063 39.1873 107.375 38.1014 107.771C36.7555 108.259 35.1343 107.924 34.3543 106.887C33.8649 106.231 33.4825 105.499 33.1307 104.767C30.4236 99.2457 27.7166 93.7093 25.0248 88.1729C24.673 87.4408 24.3059 86.6783 24.1071 85.9004C23.74 84.4515 24.3671 83.1399 25.6365 82.423C27.0436 81.6299 28.6801 81.874 29.7201 83.1094C30.1483 83.6279 30.4695 84.2532 30.7754 84.8633C33.6049 90.6437 36.4343 96.4089 39.2332 102.205C39.6461 103.059 39.9061 103.989 40.1203 104.584L40.105 104.569Z" fill="#F6C688"/>
<path d="M76.1996 33.7089C69.1948 33.5258 71.076 34.9442 68.6136 27.9742C68.476 27.5929 68.3995 27.1964 68.2771 26.7998C68.1242 26.2965 67.7877 25.7627 68.2771 25.2899C68.9348 24.6646 69.5313 25.2136 70.0972 25.5034C71.3054 26.144 72.4678 26.8303 73.6607 27.4861C75.3431 28.4165 77.0255 28.447 78.7079 27.5014C79.4267 27.1048 80.1149 26.6473 80.8644 26.3423C81.9197 25.9152 82.8985 24.3595 84.0456 25.3204C84.9174 26.0525 83.9997 27.3489 83.6632 28.3555C81.5832 34.7307 82.8526 33.5563 76.5972 33.6936C76.4596 33.6936 76.3219 33.6936 76.1843 33.6936L76.1996 33.7089Z" fill="#F6C688"/>
<path d="M76.2149 41.3653C74.0125 41.3653 71.8254 41.3653 69.623 41.3653C68.95 41.3653 68.2465 41.3348 67.5889 41.167C66.7324 40.9535 66.2277 40.2824 66.0441 39.4283C65.8453 38.5132 66.3959 37.3693 67.283 37.0796C68.0477 36.8203 68.8736 36.6525 69.6842 36.6525C74.0736 36.622 78.4631 36.622 82.8526 36.6525C83.6479 36.6525 84.4891 36.8203 85.2385 37.1101C86.0491 37.4304 86.4315 38.2082 86.4773 39.0928C86.5079 39.9621 85.6973 41.0908 84.8409 41.1975C83.6173 41.3348 82.3785 41.3501 81.1549 41.3653C79.5031 41.3958 77.8666 41.3653 76.2149 41.3653Z" fill="#F6C688"/>
</g>
<defs>
<linearGradient id="paint0_linear_256_3" x1="66.5" y1="0" x2="66.5" y2="133" gradientUnits="userSpaceOnUse">
<stop stop-color="#E3EDED"/>
<stop offset="1" stop-color="#818787"/>
</linearGradient>
<linearGradient id="paint1_linear_256_3" x1="66.5" y1="0" x2="66.5" y2="133" gradientUnits="userSpaceOnUse">
<stop stop-color="#122450"/>
<stop offset="1" stop-color="#D5D5D5"/>
</linearGradient>
<clipPath id="clip0_256_3">
<rect width="86" height="83" fill="white" transform="translate(24 25)"/>
</clipPath>
</defs>
</svg>
