<svg width="376" height="236" viewBox="0 0 376 236" fill="none" xmlns="http://www.w3.org/2000/svg">
<path d="M359.427 149.701C359.427 149.357 359.376 149.025 359.342 148.686C357.915 134.169 345.434 123.233 330.844 123.233H54.6974C40.107 123.233 27.6259 134.169 26.199 148.686C26.1652 149.025 26.137 149.357 26.1144 149.701C24.8116 168.792 26.1144 234.666 26.1144 234.666H359.432C359.432 234.666 360.73 168.792 359.427 149.701Z" fill="#122450" stroke="#263238" stroke-linecap="round" stroke-linejoin="round"/>
<path d="M65.7009 156.21C65.702 155.608 65.5247 155.02 65.1913 154.519C64.858 154.019 64.3836 153.628 63.8282 153.397C63.2729 153.166 62.6615 153.105 62.0714 153.222C61.4813 153.339 60.9392 153.628 60.5135 154.053C60.0878 154.478 59.7977 155.019 59.6799 155.609C59.5622 156.199 59.622 156.81 59.852 157.366C60.0819 157.922 60.4715 158.397 60.9715 158.731C61.4716 159.066 62.0595 159.244 62.661 159.244C63.4662 159.244 64.2386 158.925 64.8085 158.356C65.3785 157.787 65.6994 157.015 65.7009 156.21Z" fill="#122450" stroke="#263238" stroke-linecap="round" stroke-linejoin="round"/>
<path d="M106.049 159.244C107.724 159.244 109.083 157.886 109.083 156.21C109.083 154.534 107.724 153.176 106.049 153.176C104.373 153.176 103.014 154.534 103.014 156.21C103.014 157.886 104.373 159.244 106.049 159.244Z" fill="#122450" stroke="#263238" stroke-linecap="round" stroke-linejoin="round"/>
<path d="M149.436 159.244C151.112 159.244 152.471 157.886 152.471 156.21C152.471 154.534 151.112 153.176 149.436 153.176C147.761 153.176 146.402 154.534 146.402 156.21C146.402 157.886 147.761 159.244 149.436 159.244Z" fill="#122450" stroke="#263238" stroke-linecap="round" stroke-linejoin="round"/>
<path d="M192.824 159.244C194.5 159.244 195.858 157.886 195.858 156.21C195.858 154.534 194.5 153.176 192.824 153.176C191.148 153.176 189.79 154.534 189.79 156.21C189.79 157.886 191.148 159.244 192.824 159.244Z" fill="#122450" stroke="#263238" stroke-linecap="round" stroke-linejoin="round"/>
<path d="M236.206 159.244C237.882 159.244 239.241 157.886 239.241 156.21C239.241 154.534 237.882 153.176 236.206 153.176C234.53 153.176 233.172 154.534 233.172 156.21C233.172 157.886 234.53 159.244 236.206 159.244Z" fill="#122450" stroke="#263238" stroke-linecap="round" stroke-linejoin="round"/>
<path d="M282.634 156.21C282.635 155.608 282.458 155.02 282.124 154.519C281.791 154.019 281.317 153.628 280.761 153.397C280.206 153.166 279.594 153.105 279.004 153.222C278.414 153.339 277.872 153.628 277.446 154.053C277.021 154.478 276.731 155.019 276.613 155.609C276.495 156.199 276.555 156.81 276.785 157.366C277.015 157.922 277.404 158.397 277.905 158.731C278.405 159.066 278.992 159.244 279.594 159.244C280.399 159.244 281.172 158.925 281.742 158.356C282.311 157.787 282.632 157.015 282.634 156.21Z" fill="#122450" stroke="#263238" stroke-linecap="round" stroke-linejoin="round"/>
<path d="M326.027 156.21C326.028 155.608 325.851 155.02 325.518 154.519C325.184 154.019 324.71 153.628 324.155 153.397C323.599 153.166 322.988 153.105 322.398 153.222C321.808 153.339 321.265 153.628 320.84 154.053C320.414 154.478 320.124 155.019 320.006 155.609C319.888 156.199 319.948 156.81 320.178 157.366C320.408 157.922 320.798 158.397 321.298 158.731C321.798 159.066 322.386 159.244 322.987 159.244C323.793 159.244 324.565 158.925 325.135 158.356C325.705 157.787 326.026 157.015 326.027 156.21Z" fill="#122450" stroke="#263238" stroke-linecap="round" stroke-linejoin="round"/>
<path d="M65.7009 220.854C65.702 220.254 65.5251 219.666 65.1925 219.166C64.8599 218.665 64.3865 218.275 63.8321 218.043C63.2777 217.812 62.6672 217.75 62.0776 217.865C61.488 217.981 60.9458 218.268 60.5194 218.691C60.0931 219.114 59.8017 219.655 59.682 220.243C59.5623 220.832 59.6198 221.443 59.8471 221.999C60.0745 222.555 60.4615 223.031 60.9593 223.368C61.4571 223.704 62.0433 223.885 62.6441 223.889C63.0442 223.891 63.4409 223.814 63.8113 223.663C64.1817 223.511 64.5186 223.288 64.8026 223.006C65.0866 222.724 65.3121 222.389 65.4663 222.02C65.6204 221.651 65.7002 221.255 65.7009 220.854Z" fill="#122450" stroke="#263238" stroke-linecap="round" stroke-linejoin="round"/>
<path d="M106.049 223.889C107.724 223.889 109.083 222.53 109.083 220.854C109.083 219.179 107.724 217.82 106.049 217.82C104.373 217.82 103.014 219.179 103.014 220.854C103.014 222.53 104.373 223.889 106.049 223.889Z" fill="#122450" stroke="#263238" stroke-linecap="round" stroke-linejoin="round"/>
<path d="M149.436 223.889C151.112 223.889 152.471 222.53 152.471 220.854C152.471 219.179 151.112 217.82 149.436 217.82C147.761 217.82 146.402 219.179 146.402 220.854C146.402 222.53 147.761 223.889 149.436 223.889Z" fill="#122450" stroke="#263238" stroke-linecap="round" stroke-linejoin="round"/>
<path d="M192.824 223.889C194.5 223.889 195.858 222.53 195.858 220.854C195.858 219.179 194.5 217.82 192.824 217.82C191.148 217.82 189.79 219.179 189.79 220.854C189.79 222.53 191.148 223.889 192.824 223.889Z" fill="#122450" stroke="#263238" stroke-linecap="round" stroke-linejoin="round"/>
<path d="M236.206 223.889C237.882 223.889 239.241 222.53 239.241 220.854C239.241 219.179 237.882 217.82 236.206 217.82C234.53 217.82 233.172 219.179 233.172 220.854C233.172 222.53 234.53 223.889 236.206 223.889Z" fill="#122450" stroke="#263238" stroke-linecap="round" stroke-linejoin="round"/>
<path d="M282.634 220.854C282.635 220.253 282.458 219.665 282.124 219.164C281.791 218.663 281.317 218.273 280.761 218.042C280.206 217.811 279.594 217.75 279.004 217.867C278.414 217.983 277.872 218.272 277.446 218.697C277.021 219.122 276.731 219.664 276.613 220.254C276.495 220.843 276.555 221.455 276.785 222.011C277.015 222.567 277.404 223.042 277.905 223.376C278.405 223.71 278.992 223.889 279.594 223.889C280.399 223.889 281.172 223.569 281.742 223C282.311 222.431 282.632 221.66 282.634 220.854Z" fill="#122450" stroke="#263238" stroke-linecap="round" stroke-linejoin="round"/>
<path d="M326.027 220.854C326.028 220.253 325.851 219.665 325.518 219.164C325.184 218.663 324.71 218.273 324.155 218.042C323.599 217.811 322.988 217.75 322.398 217.867C321.808 217.983 321.265 218.272 320.84 218.697C320.414 219.122 320.124 219.664 320.006 220.254C319.888 220.843 319.948 221.455 320.178 222.011C320.408 222.567 320.798 223.042 321.298 223.376C321.798 223.71 322.386 223.889 322.987 223.889C323.792 223.887 324.564 223.567 325.133 222.999C325.703 222.43 326.024 221.659 326.027 220.854Z" fill="#122450" stroke="#263238" stroke-linecap="round" stroke-linejoin="round"/>
<path d="M82.1863 192.649C83.8621 192.649 85.2206 191.291 85.2206 189.615C85.2206 187.939 83.8621 186.581 82.1863 186.581C80.5105 186.581 79.152 187.939 79.152 189.615C79.152 191.291 80.5105 192.649 82.1863 192.649Z" fill="#122450" stroke="#263238" stroke-linecap="round" stroke-linejoin="round"/>
<path d="M125.574 192.655C127.253 192.655 128.614 191.294 128.614 189.615C128.614 187.936 127.253 186.575 125.574 186.575C123.895 186.575 122.534 187.936 122.534 189.615C122.534 191.294 123.895 192.655 125.574 192.655Z" fill="#122450" stroke="#263238" stroke-linecap="round" stroke-linejoin="round"/>
<path d="M168.962 192.649C170.638 192.649 171.996 191.291 171.996 189.615C171.996 187.939 170.638 186.581 168.962 186.581C167.286 186.581 165.927 187.939 165.927 189.615C165.927 191.291 167.286 192.649 168.962 192.649Z" fill="#122450" stroke="#263238" stroke-linecap="round" stroke-linejoin="round"/>
<path d="M215.384 189.615C215.384 189.014 215.205 188.426 214.871 187.926C214.537 187.426 214.063 187.037 213.507 186.806C212.952 186.576 212.34 186.516 211.751 186.633C211.161 186.751 210.619 187.04 210.194 187.465C209.769 187.891 209.48 188.432 209.362 189.022C209.245 189.612 209.305 190.223 209.535 190.778C209.765 191.334 210.155 191.809 210.655 192.143C211.155 192.477 211.743 192.655 212.344 192.655C212.743 192.656 213.139 192.578 213.508 192.425C213.877 192.272 214.213 192.049 214.495 191.766C214.777 191.484 215.001 191.148 215.154 190.779C215.306 190.41 215.385 190.014 215.384 189.615Z" fill="#122450" stroke="#263238" stroke-linecap="round" stroke-linejoin="round"/>
<path d="M258.771 189.615C258.771 189.014 258.593 188.426 258.259 187.926C257.925 187.426 257.45 187.037 256.895 186.806C256.339 186.576 255.728 186.516 255.139 186.633C254.549 186.751 254.007 187.04 253.582 187.465C253.157 187.891 252.867 188.432 252.75 189.022C252.633 189.612 252.693 190.223 252.923 190.778C253.153 191.334 253.543 191.809 254.043 192.143C254.543 192.477 255.13 192.655 255.732 192.655C256.131 192.656 256.527 192.578 256.896 192.425C257.265 192.272 257.6 192.049 257.883 191.766C258.165 191.484 258.389 191.148 258.542 190.779C258.694 190.41 258.772 190.014 258.771 189.615Z" fill="#122450" stroke="#263238" stroke-linecap="round" stroke-linejoin="round"/>
<path d="M299.119 192.649C300.795 192.649 302.154 191.291 302.154 189.615C302.154 187.939 300.795 186.581 299.119 186.581C297.444 186.581 296.085 187.939 296.085 189.615C296.085 191.291 297.444 192.649 299.119 192.649Z" fill="#122450" stroke="#263238" stroke-linecap="round" stroke-linejoin="round"/>
<path d="M365.884 78.8305C365.884 89.5463 356.951 106.466 349.264 106.466C342.868 106.466 332.643 89.5463 332.643 78.8305C332.643 68.1147 340.088 59.4406 349.264 59.4406C358.44 59.4406 365.884 68.1147 365.884 78.8305Z" fill="#263238" stroke="#263238" stroke-linecap="round" stroke-linejoin="round"/>
<path d="M348.795 106.979L348.959 110.86L352.191 110.053L349.264 106.466" fill="#263238"/>
<path d="M348.795 106.979L348.959 110.86L352.191 110.053L349.264 106.466" stroke="#263238" stroke-linecap="round" stroke-linejoin="round"/>
<path d="M361.13 67.1785C363.087 70.1282 363.031 73.6023 361.012 74.9446C358.992 76.2869 355.766 74.9841 353.815 72.0345C351.864 69.0848 351.909 65.6106 353.933 64.274C355.958 62.9373 359.173 64.2345 361.13 67.1785Z" fill="white"/>
<path d="M352.157 63.1178C352.027 63.772 351.102 64.1443 350.098 63.9412C349.095 63.7382 348.406 63.0501 348.508 62.3902C348.609 61.7304 349.563 61.3638 350.567 61.5612C351.57 61.7586 352.287 62.4748 352.157 63.1178Z" fill="white"/>
<path d="M350.279 108.756C349.709 111.046 349.332 113.379 349.151 115.732C348.994 117.566 348.93 119.407 348.959 121.248C348.905 122.443 349.023 123.64 349.309 124.801C349.873 126.708 351.04 128.416 352.089 130.086C353.446 132.115 354.638 134.25 355.654 136.47C356.163 137.653 356.554 138.882 356.821 140.142C356.969 140.832 357.069 141.531 357.12 142.234C357.12 142.415 357.12 142.601 357.12 142.798C357.12 143.075 357.12 142.516 357.12 142.511C357.12 142.505 357.12 142.708 357.12 142.759C357.092 143.182 357.064 143.599 357.013 144.016C356.545 147.677 354.802 150.869 352.805 153.914C350.995 156.678 349.061 159.346 347.126 162.025C345.739 163.825 344.511 165.742 343.454 167.755C341.249 172.267 341.373 177.506 341.599 182.418C341.644 183.417 341.706 184.409 341.779 185.408C341.779 185.075 341.813 184.471 341.779 184.048C341.402 178.809 341.215 173.417 343.72 168.64C344.797 166.716 346.011 164.87 347.352 163.119C349.235 160.524 351.108 157.919 352.867 155.223C354.774 152.313 356.432 149.261 356.956 145.77C357.322 143.362 357.251 140.907 356.748 138.523C355.727 133.932 352.851 130.261 350.578 126.256C350.069 125.401 349.649 124.496 349.326 123.555C348.762 121.863 348.914 120.069 349.027 118.344C349.18 115.584 349.599 112.845 350.279 110.166C350.397 109.726 350.16 109.196 350.279 108.756Z" fill="#263238"/>
<path d="M33.7509 98.8804C33.7509 109.596 24.8173 126.516 17.1301 126.516C10.7345 126.516 0.509338 109.596 0.509338 98.8804C0.509338 88.1646 7.93708 79.4905 17.1301 79.4905C26.3231 79.4905 33.7509 88.1759 33.7509 98.8804Z" fill="#263238" stroke="#263238" stroke-linecap="round" stroke-linejoin="round"/>
<path d="M16.662 127.046L16.8199 130.926L20.0572 130.12L17.1301 126.533" fill="#263238"/>
<path d="M16.662 127.046L16.8199 130.926L20.0572 130.12L17.1301 126.533" stroke="#263238" stroke-linecap="round" stroke-linejoin="round"/>
<path d="M28.9965 87.2453C30.9479 90.1949 30.8971 93.6691 28.878 95.0114C26.859 96.3537 23.6329 95.0509 21.6759 92.1012C19.7189 89.1515 19.7753 85.683 21.7943 84.3407C23.8134 82.9984 27.0394 84.3012 28.9965 87.2453Z" fill="white"/>
<path d="M20.0234 83.1846C19.8881 83.8388 18.9687 84.211 17.9592 84.008C16.9497 83.8049 16.2672 83.1169 16.3744 82.457C16.4816 81.7971 17.4234 81.4306 18.433 81.6336C19.4425 81.8366 20.1531 82.5247 20.0234 83.1846Z" fill="white"/>
<path d="M18.134 128.823C17.5522 131.11 17.1599 133.442 16.9609 135.794C16.8012 137.629 16.7372 139.472 16.7692 141.315C16.7159 142.51 16.8337 143.706 17.1189 144.868C17.6828 146.769 18.8447 148.478 19.8993 150.147C21.2545 152.177 22.4446 154.312 23.4581 156.531C23.9714 157.713 24.3645 158.943 24.6312 160.203C24.7739 160.893 24.8719 161.592 24.9245 162.295C24.9245 162.476 24.9245 162.662 24.9583 162.859C24.9921 163.057 24.9583 162.572 24.9583 162.566C24.9583 162.56 24.9583 162.769 24.9583 162.82C24.9583 163.237 24.9019 163.655 24.8455 164.072C24.3774 167.732 22.6403 170.93 20.6438 173.97C18.8334 176.734 16.8989 179.407 14.9644 182.08C13.5862 183.881 12.3672 185.798 11.321 187.81C9.11584 192.322 9.23991 197.556 9.46551 202.474C9.51063 203.472 9.57267 204.471 9.64599 205.463C9.64599 205.13 9.67983 204.533 9.64599 204.104C9.26811 198.87 9.082 193.473 11.5918 188.696C12.6602 186.768 13.8685 184.92 15.2069 183.169C17.0963 180.569 18.9687 177.963 20.7284 175.273C22.629 172.363 24.2928 169.311 24.8173 165.82C25.1836 163.411 25.111 160.956 24.603 158.573C23.5878 153.982 20.7115 150.316 18.4386 146.306C17.9296 145.451 17.51 144.546 17.1865 143.605C16.6225 141.913 16.7748 140.119 16.8876 138.399C17.0423 135.644 17.4597 132.909 18.134 130.233C18.2525 129.793 18.0212 129.263 18.134 128.823Z" fill="#263238"/>
<path d="M327.229 36.4523C327.229 47.1681 318.295 64.0878 310.608 64.0878C304.212 64.0878 293.987 47.1681 293.987 36.4523C293.987 25.7365 301.426 17.0624 310.608 17.0624C319.79 17.0624 327.229 25.7422 327.229 36.4523Z" fill="#122450" stroke="#263238" stroke-linecap="round" stroke-linejoin="round"/>
<path d="M310.14 64.618L310.298 68.4982L313.535 67.6917L310.608 64.1047" fill="#263238"/>
<path d="M310.14 64.618L310.298 68.4982L313.535 67.6917L310.608 64.1047" stroke="#263238" stroke-linecap="round" stroke-linejoin="round"/>
<path d="M322.474 24.8172C324.426 27.7669 324.375 31.2411 322.356 32.5833C320.337 33.9256 317.111 32.6228 315.153 29.6732C313.196 26.7235 313.253 23.2493 315.272 21.9127C317.291 20.576 320.517 21.8675 322.474 24.8172Z" fill="white"/>
<path d="M313.501 20.7396C313.366 21.3995 312.446 21.7717 311.437 21.5687C310.427 21.3656 309.745 20.6776 309.852 20.0177C309.959 19.3578 310.901 18.9912 311.911 19.1886C312.92 19.386 313.619 20.0966 313.501 20.7396Z" fill="white"/>
<path d="M311.612 67.8046C315.215 71.1524 318.431 74.8944 321.2 78.9603C322.779 81.3347 324.223 83.9234 324.335 86.8561C324.335 86.9858 324.335 87.1212 324.335 87.2509C324.335 87.3806 324.369 86.2019 324.335 86.7603C324.335 86.9802 324.335 87.1945 324.29 87.4145C324.253 87.757 324.191 88.0963 324.104 88.4297C323.927 89.0639 323.653 89.6669 323.292 90.2175C322.164 91.9546 320.715 93.4774 319.44 95.0904C316.781 98.4094 314.351 101.905 312.164 105.552C311.268 107.024 310.576 108.61 310.106 110.267C309.809 111.561 309.69 112.889 309.751 114.215C309.855 116.493 310.652 118.685 312.035 120.498C313.546 122.675 315.345 124.643 316.84 126.837C318.694 129.515 319.982 132.544 320.624 135.737C320.808 136.72 320.938 137.712 321.013 138.709C320.974 138.241 321.047 137.767 321.013 137.299C320.764 133.768 319.729 130.336 317.985 127.255C316.586 124.818 314.77 122.692 313.061 120.487C311.64 118.648 310.275 116.657 309.875 114.322C309.824 114.012 309.796 113.702 309.768 113.392C309.705 112.653 309.717 114.243 309.768 113.809C309.768 113.612 309.768 113.414 309.813 113.245C309.896 112.555 310.04 111.874 310.241 111.209C310.802 109.472 311.591 107.816 312.587 106.286C314.793 102.71 317.209 99.2697 319.823 95.9815C321.036 94.47 322.446 93.0205 323.439 91.3455C324.122 90.045 324.434 88.5816 324.341 87.1156C324.391 85.9834 324.321 84.8491 324.132 83.7316C323.793 82.3216 323.246 80.9701 322.508 79.7217C319.807 74.8262 315.853 70.5061 311.86 66.6315L311.6 66.3833C311.668 66.4453 311.6 66.9924 311.6 67.0883C311.6 67.1842 311.522 67.7087 311.6 67.7933L311.612 67.8046Z" fill="#263238"/>
<path d="M66.4623 35.4034C66.4623 46.1192 57.5287 63.0389 49.8415 63.0389C43.4458 63.0389 33.2207 46.1192 33.2207 35.4034C33.2207 24.6876 40.6484 15.9852 49.8415 15.9852C59.0345 15.9852 66.4623 24.6876 66.4623 35.4034Z" fill="#122450" stroke="#263238" stroke-linecap="round" stroke-linejoin="round"/>
<path d="M49.3734 63.5407L49.5313 67.4209L52.7686 66.6144L49.8415 63.0275" fill="#263238"/>
<path d="M49.3734 63.5407L49.5313 67.4209L52.7686 66.6144L49.8415 63.0275" stroke="#263238" stroke-linecap="round" stroke-linejoin="round"/>
<path d="M61.7022 23.74C63.6593 26.6897 63.6085 30.1639 61.5838 31.5062C59.559 32.8485 56.3443 31.54 54.3873 28.596C52.4302 25.652 52.4866 22.1721 54.5057 20.8355C56.5248 19.4988 59.7508 20.796 61.7022 23.74Z" fill="white"/>
<path d="M52.7291 19.6737C52.5994 20.3336 51.6801 20.7058 50.6706 20.5028C49.661 20.2997 48.9786 19.606 49.0801 18.9518C49.1816 18.2976 50.1348 17.9253 51.1443 18.1227C52.1539 18.3201 52.8588 19.0477 52.7291 19.6737Z" fill="white"/>
<path d="M50.8454 66.7273C54.4474 70.0766 57.6634 73.8185 60.4332 77.883C62.0124 80.2574 63.4562 82.8461 63.569 85.7789C63.569 85.9086 63.569 86.0439 63.569 86.1736C63.569 86.3034 63.6028 85.1246 63.569 85.683C63.569 85.9029 63.569 86.1172 63.5239 86.3372C63.4916 86.68 63.4313 87.0195 63.3434 87.3524C63.1639 87.9857 62.8901 88.5884 62.5313 89.1402C61.4033 90.8773 59.9538 92.4001 58.6792 94.0131C56.0168 97.3293 53.5859 100.825 51.4037 104.475C50.5053 105.945 49.8127 107.532 49.3452 109.19C49.046 110.483 48.9265 111.812 48.9899 113.138C48.9899 115.479 49.9486 117.526 51.2458 119.421C52.763 121.598 54.5621 123.566 56.051 125.76C57.9118 128.438 59.2054 131.469 59.8523 134.665C60.0412 135.648 60.1712 136.64 60.2415 137.638C60.2076 137.17 60.2809 136.696 60.2415 136.228C59.9921 132.703 58.9573 129.279 57.2128 126.206C55.8198 123.769 54.0037 121.643 52.2948 119.438C50.8736 117.599 49.4749 115.608 49.1083 113.273C49.0575 112.963 49.0293 112.653 49.0011 112.343C48.9391 111.604 48.9504 113.194 49.0011 112.76C49.0011 112.563 49.0011 112.365 49.0519 112.196C49.1328 111.506 49.2763 110.824 49.4805 110.16C50.0408 108.421 50.8278 106.764 51.8211 105.231C54.0347 101.67 56.4566 98.2421 59.074 94.9662C60.2866 93.4548 61.6966 92.0053 62.6892 90.3302C63.3738 89.0284 63.6842 87.5623 63.5859 86.0947C63.6381 84.9627 63.5701 83.8284 63.3829 82.7108C63.0414 81.3015 62.4941 79.9504 61.7586 78.7008C59.0571 73.8054 55.1035 69.4852 51.1105 65.6106L50.851 65.3624C50.882 65.5964 50.882 65.8334 50.851 66.0674C50.851 66.1859 50.7721 66.6878 50.851 66.7724L50.8454 66.7273Z" fill="#263238"/>
<path d="M175.008 20.3843C175.008 31.1001 166.074 48.0198 158.387 48.0198C151.991 48.0198 141.766 31.1001 141.766 20.3843C141.766 9.66852 149.205 1 158.387 1C167.569 1 175.008 9.67416 175.008 20.3843Z" fill="#122450" stroke="#263238" stroke-linecap="round" stroke-linejoin="round"/>
<path d="M157.913 48.55L158.077 52.4302L161.309 51.6237L158.387 48.0367" fill="#263238"/>
<path d="M157.913 48.55L158.077 52.4302L161.309 51.6237L158.387 48.0367" stroke="#263238" stroke-linecap="round" stroke-linejoin="round"/>
<path d="M170.248 8.74926C172.205 11.6989 172.148 15.1731 170.129 16.5154C168.11 17.8577 164.884 16.5549 162.933 13.6052C160.981 10.6555 161.032 7.20392 163.034 5.84471C165.036 4.48549 168.296 5.80523 170.248 8.74926Z" fill="white"/>
<path d="M161.275 4.68847C161.145 5.3427 160.22 5.71493 159.216 5.5119C158.212 5.30886 157.496 4.62079 157.626 3.96092C157.755 3.30106 158.68 2.93446 159.69 3.13186C160.699 3.32925 161.404 4.0286 161.275 4.68847Z" fill="white"/>
<path d="M159.391 51.759C162.995 55.1067 166.211 58.8487 168.979 62.9147C170.563 65.2891 172.007 67.8778 172.12 70.8106C172.12 70.9403 172.12 71.0757 172.12 71.2054C172.12 71.3351 172.154 70.1564 172.12 70.7147C172.12 70.9347 172.12 71.149 172.075 71.3689C172.043 71.7118 171.983 72.0513 171.894 72.3841C171.715 73.0186 171.44 73.6216 171.077 74.172C169.949 75.9091 168.505 77.4318 167.23 79.0505C164.567 82.3638 162.136 85.8576 159.955 89.5068C159.056 90.9771 158.364 92.5635 157.896 94.2218C157.598 95.5154 157.476 96.8435 157.535 98.1697C157.631 100.445 158.418 102.636 159.791 104.453C161.308 106.635 163.108 108.598 164.596 110.792C166.45 113.47 167.737 116.499 168.381 119.692C168.57 120.674 168.7 121.666 168.77 122.664C168.736 122.196 168.809 121.722 168.77 121.254C168.524 117.721 167.489 114.289 165.741 111.209C164.348 108.778 162.532 106.646 160.818 104.441C159.402 102.603 158.032 100.612 157.637 98.2769C157.58 97.9667 157.558 97.6565 157.53 97.3463C157.468 96.6075 157.473 98.1979 157.53 97.7637C157.53 97.5663 157.558 97.3689 157.58 97.1997C157.658 96.507 157.802 95.8234 158.009 95.158C158.568 93.4206 159.355 91.765 160.35 90.2344C162.562 86.6705 164.984 83.241 167.603 79.9641C168.815 78.4526 170.225 77.0088 171.218 75.3281C171.902 74.0281 172.212 72.564 172.114 71.0982C172.166 69.9662 172.098 68.8319 171.911 67.7143C171.567 66.3059 171.02 64.955 170.287 63.7043C167.58 58.8089 163.632 54.4944 159.639 50.6141L159.38 50.366C159.41 50.5999 159.41 50.837 159.38 51.071C159.38 51.1894 159.301 51.697 159.38 51.7759L159.391 51.759Z" fill="#263238"/>
<path d="M183.124 138.974C183.124 138.974 154.574 151.529 154.428 152.426C154.281 153.322 140.475 200.974 140.475 200.974L164.427 205.204L164.162 234.666H231.034L231.277 170.761C231.277 170.761 260.999 162.944 262.922 161.28C264.846 159.616 268.433 154.36 266.639 148.872C264.846 143.385 258.568 140.672 257.412 140.672C256.256 140.672 232.174 139.905 232.174 139.905C232.174 139.905 207.719 135.793 206.952 135.793C206.185 135.793 183.124 138.974 183.124 138.974Z" fill="white" stroke="#263238" stroke-miterlimit="10"/>
<path d="M243.64 158.071C243.64 158.071 245.676 164.072 247.982 165.826" stroke="#263238" stroke-miterlimit="10"/>
<path d="M240.504 153.734C240.504 153.734 238.287 163.705 238.84 167.027" stroke="#263238" stroke-miterlimit="10"/>
<path d="M165.708 194.544L166.356 161.765" stroke="#263238" stroke-miterlimit="10"/>
<path d="M166.074 179.678L159.983 158.624" stroke="#263238" stroke-miterlimit="10"/>
<path d="M186.711 153.706L198.498 176.508L201.058 176.891L213.483 147.812L210.026 146.532L201.058 170.231H197.985L190.298 153.576L186.711 153.706Z" fill="#263238" stroke="#263238" stroke-miterlimit="10"/>
<path d="M198.498 176.508L199.902 205.457L204.262 211.481L207.465 203.027L201.058 176.891L198.498 176.508Z" fill="#263238" stroke="#263238" stroke-miterlimit="10"/>
<path d="M198.498 176.508L193.112 223.009L197.471 231.209L201.696 223.138L201.058 176.891L198.498 176.508Z" fill="#263238" stroke="#263238" stroke-miterlimit="10"/>
<path d="M184.404 135.511C184.404 135.511 182.481 135.511 182.227 136.792C181.973 138.072 178.77 149.606 176.717 151.529C174.664 153.452 175.307 154.732 176.333 154.089C177.36 153.446 180.687 150.243 181.584 149.606C182.481 148.968 183.637 151.653 183.761 153.063C183.885 154.473 184.658 154.856 187.607 154.856C190.557 154.856 198.368 158.06 198.368 158.06C198.368 158.06 206.439 154.112 208.103 152.679C209.766 151.247 208.486 148.839 209.642 148.196C210.798 147.553 213.59 150.502 215.92 150.119C218.249 149.735 216.557 148.709 215.66 147.429C214.763 146.148 211.56 139.098 210.28 136.408C208.999 133.718 207.719 132.46 205.926 132.308C204.132 132.156 184.404 135.511 184.404 135.511Z" fill="white" stroke="#263238" stroke-miterlimit="10"/>
<path d="M183.377 130.261C183.377 130.261 184.15 144.738 185.069 147.299C185.989 149.859 197.235 158.956 198.391 158.06C199.547 157.163 207.612 146.402 207.871 144.609C208.131 142.815 207.358 128.213 207.358 128.213C207.358 128.213 199.801 132.054 196.981 132.567C194.161 133.081 183.377 130.261 183.377 130.261Z" fill="white" stroke="#263238" stroke-miterlimit="10"/>
<path d="M198.904 137.474L184.336 140.695L183.62 131.738L198.904 137.474Z" fill="#263238" stroke="#263238" stroke-miterlimit="10"/>
<path d="M242.072 146.25C242.072 146.25 239.303 152.256 240.504 153.734C241.705 155.212 243.549 160.564 250.092 160.75C256.634 160.936 265.601 157.422 267.011 151.518C268.421 145.613 268.388 143.39 266.808 141.433C265.229 139.476 261.45 135.895 258.867 136.262C256.284 136.628 242.072 146.25 242.072 146.25Z" fill="white" stroke="#263238" stroke-miterlimit="10"/>
<path d="M219.174 98.7901C219.174 98.7901 215.756 94.1711 213.353 92.8795C210.951 91.588 207.262 89.2756 206.586 89.4618C205.909 89.6479 209.107 112.106 209.107 112.106C209.107 112.106 211.972 115.71 214.002 116.815C216.032 117.921 219.913 119.68 219.913 119.68C219.913 119.68 244.102 151.997 245.399 152.922C246.696 153.847 255.371 154.213 258.23 152.279C261.089 150.344 263.774 144.705 262.663 141.563C261.552 138.422 251.124 132.41 246.414 129.539C241.705 126.668 222.496 110.149 222.496 110.149C222.496 110.149 221.018 102.851 220.832 102.112C220.357 100.968 219.803 99.8576 219.174 98.7901Z" fill="white" stroke="#263238" stroke-miterlimit="10"/>
<path d="M178.64 112.58C178.64 112.58 176.463 111.299 175.183 112.456C173.902 113.612 174.923 118.603 175.82 121.039C176.717 123.476 179.768 122.703 179.768 122.703C179.768 122.703 182.074 131.287 182.717 131.671C183.36 132.054 191.555 137.435 193.095 138.078C194.635 138.721 199.496 137.688 200.523 136.792C201.549 135.895 208.87 129.618 209.281 127.334C209.548 124.908 209.676 122.47 209.665 120.03C209.665 120.03 213.506 118.236 213.889 116.082C214.273 113.928 214.662 109.032 213.252 107.622C212.874 107.23 212.368 106.988 211.826 106.941C211.283 106.893 210.742 107.043 210.302 107.363L208.638 100.595L178.262 109.382L178.64 112.58Z" fill="white" stroke="#263238" stroke-miterlimit="10"/>
<path d="M178.262 109.382C178.262 109.382 178.262 117.96 178.775 118.22C179.288 118.479 180.822 118.22 180.952 117.323C181.082 116.426 180.569 108.739 180.569 108.739L178.262 109.382Z" fill="#263238" stroke="#263238" stroke-miterlimit="10"/>
<path d="M206.461 100.826C206.461 100.826 205.051 105.564 205.694 106.207C206.761 107.074 207.871 107.885 209.022 108.637C209.022 108.637 208.638 114.531 209.665 114.915C210.691 115.298 211.329 114.79 211.329 113.381C211.329 111.971 210.302 107.357 210.302 107.357L208.638 100.589L206.461 100.826Z" fill="#263238" stroke="#263238" stroke-miterlimit="10"/>
<path d="M200.415 115.4C200.839 115.4 201.182 114.741 201.182 113.928C201.182 113.115 200.839 112.456 200.415 112.456C199.992 112.456 199.648 113.115 199.648 113.928C199.648 114.741 199.992 115.4 200.415 115.4Z" fill="#263238"/>
<path d="M188.504 116.488C188.928 116.488 189.271 115.829 189.271 115.016C189.271 114.203 188.928 113.544 188.504 113.544C188.08 113.544 187.737 114.203 187.737 115.016C187.737 115.829 188.08 116.488 188.504 116.488Z" fill="#263238"/>
<path d="M191.194 121.039C191.194 121.039 193.884 122.833 194.651 122.833C195.418 122.833 197.471 121.547 198.109 120.78" stroke="#263238" stroke-miterlimit="10"/>
<path d="M205.542 122.32C205.542 122.32 201.058 126.268 195.954 127.187C190.85 128.106 184.81 123.854 184.81 123.854" stroke="#263238" stroke-miterlimit="10"/>
<path d="M184.195 113.736C184.195 113.736 188.058 110.628 190.681 111.559L190.546 109.698C189.243 109.375 187.873 109.454 186.617 109.925C185.36 110.396 184.276 111.237 183.507 112.337L184.195 113.736Z" fill="#263238"/>
<path d="M203.185 110.532C203.185 110.532 199.321 107.425 196.704 108.355L196.84 106.494C198.142 106.172 199.512 106.252 200.768 106.723C202.025 107.194 203.109 108.034 203.878 109.134L203.185 110.532Z" fill="#263238"/>
<path d="M177.45 97.5549C177.45 97.5549 181.398 91.4074 188.058 89.2022C194.719 86.997 200.466 88.7285 201.369 89.7662L202.294 90.8265L177.45 97.5549Z" fill="#263238" stroke="#263238" stroke-miterlimit="10"/>
<path d="M202.186 84.0192C202.1 84.6587 202.187 85.3096 202.436 85.9046C202.686 86.4995 203.091 87.0169 203.608 87.4031C204.021 87.772 204.279 88.284 204.329 88.8356L197.218 91.2382L196.09 89.941C196.09 89.941 197.415 86.8109 196.862 86.2244C196.31 85.6378 192.728 84.0586 192.728 84.0586C192.728 84.0586 190.343 88.0404 190.997 88.8582C191.651 89.676 193.89 90.5502 193.89 90.5502L193.839 92.3549L189.807 93.7085L185.645 94.8365L184.432 93.4491C184.432 93.4491 185.757 90.3189 185.21 89.7324C184.663 89.1458 181.071 87.5667 181.071 87.5667C181.071 87.5667 178.685 91.5484 179.345 92.3662C180.005 93.184 182.232 94.0582 182.232 94.0582L182.187 95.7501L175.002 97.6621C174.744 97.1716 174.676 96.6035 174.81 96.066C175.03 95.4601 175.084 94.8063 174.966 94.1725C174.848 93.5387 174.563 92.9481 174.139 92.4621C172.921 90.9675 170.518 91.571 170.518 91.571L176.474 110.978L210.409 100.753L204.713 81.2838C204.713 81.2838 202.378 82.1072 202.186 84.0192Z" fill="#122450" stroke="#263238" stroke-linecap="round" stroke-linejoin="round"/>
<path d="M162.013 196.298C162.013 196.298 149.177 191.865 147.237 191.786C145.297 191.707 136.713 198.159 134.869 201.019C133.024 203.878 133.109 213.116 134.305 214.78C135.5 216.444 145.387 219.58 147.141 219.117C148.895 218.655 162.837 200.28 162.837 200.28C162.837 200.28 163.215 197.776 162.013 196.298Z" fill="white" stroke="#263238" stroke-miterlimit="10"/>
<path d="M169.402 193.884C169.402 193.884 152.781 197.02 148.258 198.312C143.734 199.603 139.758 203.021 138.929 205.976C138.1 208.932 138.467 217.82 144.101 220.2C149.735 222.58 155.64 219.072 157.676 217.245C159.712 215.417 172.543 204.685 172.543 204.685C172.543 204.685 173.75 196.14 172.622 194.916C171.494 193.693 169.402 193.884 169.402 193.884Z" fill="white" stroke="#263238" stroke-miterlimit="10"/>
<path d="M184.466 184.201C185.33 183.835 186.114 183.302 186.773 182.633C187.697 181.618 189.079 181.99 188.803 184.297C188.527 186.603 185.295 188.91 185.295 188.91L184.466 184.201Z" fill="white" stroke="#263238" stroke-miterlimit="10"/>
<path d="M179.153 200.59C177.372 200.59 175.664 199.885 174.403 198.628C173.142 197.371 172.431 195.665 172.425 193.884L173.434 173.321H184.866L185.876 193.884C185.871 195.665 185.161 197.37 183.901 198.627C182.64 199.884 180.933 200.59 179.153 200.59Z" fill="white" stroke="#263238" stroke-miterlimit="10"/>
<path d="M173.271 176.638L172.425 193.884C172.475 195.634 173.206 197.296 174.462 198.516C175.718 199.736 177.399 200.418 179.15 200.418C180.901 200.418 182.583 199.736 183.838 198.516C185.094 197.296 185.825 195.634 185.876 193.884L185.03 176.638H173.271Z" fill="#122450" stroke="#263238" stroke-linecap="round" stroke-linejoin="round"/>
<path d="M179.92 212.265V199.44H178.38V212.265L170.58 215.068V215.666H179.136H179.164H187.72V215.068L179.92 212.265Z" fill="white" stroke="#263238" stroke-miterlimit="10"/>
<path d="M168.291 195.932C168.291 195.932 168.855 190.856 169.492 188.73C170.129 186.603 176.88 186.141 178.172 186.141C178.412 186.118 178.655 186.147 178.883 186.226C179.111 186.305 179.32 186.431 179.495 186.597C179.67 186.764 179.808 186.965 179.899 187.189C179.99 187.413 180.031 187.654 180.022 187.895C179.926 188.634 179.283 188.543 177.805 189.192C176.327 189.841 173.186 191.222 173.186 191.222L172.91 192.051L174.63 191.352C178.239 190.461 184.624 188.91 185.284 188.91C186.208 188.91 186.671 190.207 186.761 190.67C186.851 191.132 186.197 191.865 186.197 191.865C186.197 191.865 187.951 191.961 188.041 193.253C188.077 194.057 187.814 194.847 187.303 195.469C187.303 195.469 188.318 196.761 187.765 197.776C187.212 198.791 179.954 203.41 178.448 204.036C176.942 204.662 173.75 206.089 172.058 206.179C170.366 206.27 169.283 204.335 168.826 203.596" fill="white"/>
<path d="M168.291 195.932C168.291 195.932 168.855 190.856 169.492 188.73C170.129 186.603 176.88 186.141 178.172 186.141C178.412 186.118 178.655 186.147 178.883 186.226C179.111 186.305 179.32 186.431 179.495 186.597C179.67 186.764 179.808 186.965 179.899 187.189C179.99 187.413 180.031 187.654 180.022 187.895C179.926 188.634 179.283 188.543 177.805 189.192C176.327 189.841 173.186 191.222 173.186 191.222L172.91 192.051L174.63 191.352C178.239 190.461 184.624 188.91 185.284 188.91C186.208 188.91 186.671 190.207 186.761 190.67C186.851 191.132 186.197 191.865 186.197 191.865C186.197 191.865 187.951 191.961 188.041 193.253C188.077 194.057 187.814 194.847 187.303 195.469C187.303 195.469 188.318 196.761 187.765 197.776C187.212 198.791 179.954 203.41 178.448 204.036C176.942 204.662 173.75 206.089 172.058 206.179C170.366 206.27 169.283 204.335 168.826 203.596" stroke="#263238" stroke-miterlimit="10"/>
<path d="M186.209 191.865L172.724 196.298" stroke="#263238" stroke-miterlimit="10"/>
<path d="M187.314 195.469L173.925 201.47" stroke="#263238" stroke-miterlimit="10"/>
<path d="M171.894 192.7C171.894 192.7 171.156 193.991 171.33 195.007C171.474 195.727 171.662 196.437 171.894 197.133C171.894 197.133 171.33 199.349 171.708 200.088C172.019 200.62 172.427 201.088 172.91 201.47C173.058 201.913 173.312 202.313 173.65 202.636C173.988 202.958 174.4 203.193 174.85 203.32" stroke="#263238" stroke-miterlimit="10"/>
<path d="M169.492 188.73C169.359 190.019 169.652 191.317 170.327 192.424" stroke="#263238" stroke-miterlimit="10"/>
<path d="M225.913 115.411C225.913 115.411 224.064 103.223 223.325 101.745C222.586 100.268 215.846 96.3875 213.263 94.9098C210.68 93.4322 210.77 96.2972 211.695 97.9554C212.62 99.6135 218.525 102.467 218.525 102.467C218.525 102.467 216.681 110.871 217.696 113.364C218.711 115.856 221.757 117.148 222.129 117.148" fill="white"/>
<path d="M225.913 115.411C225.913 115.411 224.064 103.223 223.325 101.745C222.586 100.268 215.846 96.3875 213.263 94.9098C210.68 93.4322 210.77 96.2972 211.695 97.9554C212.62 99.6135 218.525 102.467 218.525 102.467C218.525 102.467 216.681 110.871 217.696 113.364C218.711 115.856 221.757 117.148 222.129 117.148" stroke="#263238" stroke-miterlimit="10"/>
<path d="M276.983 234.667L279.002 217.815L262.612 215.621L261.529 234.667H276.983Z" fill="white" stroke="#263238" stroke-miterlimit="10"/>
<path d="M261.05 153.954L262.336 194.448L261.563 212.665L277.203 214.588L278.996 197.669C278.996 197.669 266.436 155.877 265.923 155.11C265.41 154.343 261.05 153.954 261.05 153.954Z" fill="white" stroke="#263238" stroke-miterlimit="10"/>
<path d="M260.227 206.36C260.227 206.36 260.227 217.583 260.65 217.583C261.073 217.583 277.479 219.546 277.479 219.546V208.605L260.227 206.36Z" fill="white" stroke="#263238" stroke-miterlimit="10"/>
<path d="M274.383 201.639C274.625 202.248 276.695 231.401 276.926 234.667H337.031L332.581 200.872C332.581 200.872 330.787 162.521 328.994 156.261C327.2 150 320.788 142.42 316.022 141.134C311.256 139.849 295.002 136.623 295.002 136.623L274.873 141.366C274.873 141.366 261.8 152.262 261.028 153.926C260.255 155.59 262.156 167.518 264.75 175.205C267.344 182.892 274.14 201.002 274.383 201.639Z" fill="white" stroke="#263238" stroke-miterlimit="10"/>
<path d="M275.195 151.038L280.649 161.263L279.284 222.868L283.83 230.594L290.197 221.277L283.83 160.581L287.924 151.721L277.925 143.08L275.195 151.038Z" fill="#263238" stroke="#263238" stroke-miterlimit="10"/>
<path d="M271.179 149.087L271.563 157.8L276.69 152.42L271.179 149.087Z" fill="white" stroke="#263238" stroke-miterlimit="10"/>
<path d="M281.309 156.007L271.179 149.087L274.896 141.394L281.309 156.007Z" fill="white" stroke="#263238" stroke-miterlimit="10"/>
<path d="M260.283 103.319C260.283 103.319 255.923 113.961 256.696 115.112C257.361 116.3 257.918 117.546 258.36 118.834C258.36 118.834 254 124.728 254.643 125.754C255.286 126.781 259.155 128.191 259.155 128.191C259.155 128.191 262.872 142.674 264.795 143.187C266.718 143.701 270.046 141.648 270.046 141.648L281.325 156.007L284.912 145.754L291.302 132.41L289.509 128.693L289.125 124.463C289.125 124.463 293.226 120.233 293.485 114.08C293.744 107.927 289.278 97.555 288.635 96.6582C287.992 95.7615 275.663 93.9511 270.796 92.8005C265.929 91.65 264.383 92.1576 264.129 93.4378C263.876 94.7181 262.973 89.7212 261.05 91.1311C259.127 92.5411 258.619 95.361 259.132 96.1337C259.646 96.9064 254.389 94.4417 254.389 96.6469C254.389 98.8521 256.95 102.935 260.283 103.319Z" fill="white" stroke="#263238" stroke-miterlimit="10"/>
<path d="M281.946 133.831C283.356 131.141 281.433 116.139 282.076 114.988C282.718 113.838 285.792 112.168 287.969 114.215C290.146 116.263 289.661 120.244 288.229 122.168C287.469 123.228 286.61 124.214 285.662 125.112L289.272 124.311C289.994 123.504 293.254 119.562 293.485 114.091C293.739 107.938 289.278 97.5664 288.635 96.6697C287.992 95.773 275.663 93.9625 270.796 92.812C265.929 91.6615 264.383 92.1691 264.129 93.4493C263.876 94.7296 262.973 89.7326 261.05 91.1426C259.127 92.5526 258.619 95.3725 259.132 96.1452C259.646 96.9179 254.389 94.4532 254.389 96.6584C254.389 98.8636 256.95 102.936 260.283 103.319C260.283 103.319 271.563 102.552 271.946 104.092C272.33 105.631 269.002 108.965 269.899 110.245C270.796 111.525 277.586 115.112 277.586 115.112L277.975 125.642C277.975 125.642 277.846 126.539 276.052 125.901C274.259 125.264 269.386 121.525 266.696 122.822C264.005 124.119 259.132 128.208 259.132 128.208C259.132 128.208 262.849 142.691 264.772 143.204C266.696 143.718 270.023 141.665 270.023 141.665C270.023 141.665 280.536 136.521 281.946 133.831Z" fill="#263238" stroke="#263238" stroke-miterlimit="10"/>
<path d="M262.528 119.985C262.845 119.985 263.103 119.326 263.103 118.513C263.103 117.7 262.845 117.041 262.528 117.041C262.21 117.041 261.952 117.7 261.952 118.513C261.952 119.326 262.21 119.985 262.528 119.985Z" fill="#263238"/>
<path d="M259.64 115.755C259.64 115.755 261.05 112.552 264.259 114.215" stroke="#263238" stroke-miterlimit="10"/>
<path d="M262.86 129.731L266.707 125.755C266.707 125.755 268.371 131.011 266.831 132.421C265.291 133.831 262.86 129.731 262.86 129.731Z" fill="white" stroke="#263238" stroke-miterlimit="10"/>
<path d="M281.433 149.984L281.309 156.007L285.663 150.621L281.433 149.984Z" fill="white" stroke="#263238" stroke-miterlimit="10"/>
<path d="M290.789 130.881L281.433 149.983L290.282 157.417L297.072 135.878L290.789 130.881Z" fill="white" stroke="#263238" stroke-miterlimit="10"/>
<path d="M286.446 202.733C284.667 202.867 282.908 202.289 281.555 201.125C280.202 199.962 279.367 198.309 279.233 196.53L278.669 175.95L290.067 175.081L292.633 195.509C292.77 197.287 292.196 199.047 291.035 200.402C289.875 201.757 288.225 202.595 286.446 202.733Z" fill="white" stroke="#263238" stroke-miterlimit="10"/>
<path d="M278.771 179.288L279.216 196.535C279.352 198.314 280.188 199.966 281.541 201.127C282.894 202.289 284.654 202.866 286.432 202.731C288.211 202.595 289.863 201.759 291.025 200.406C292.187 199.052 292.763 197.293 292.628 195.514L290.496 178.397L278.771 179.288Z" fill="#122450" stroke="#263238" stroke-linecap="round" stroke-linejoin="round"/>
<path d="M288.099 214.312L287.129 201.521L285.595 201.639L286.565 214.431L279.002 217.815L279.047 218.412L287.574 217.764L287.608 217.758L296.136 217.11L296.091 216.517L288.099 214.312Z" fill="white" stroke="#263238" stroke-miterlimit="10"/>
<path d="M324.251 190.743L307.072 201.126C307.072 201.126 301.302 197.178 298.358 193.179C295.414 189.181 290.919 186.773 290.022 187.026C289.125 187.28 279.126 189.846 278.613 191.132C278.099 192.418 277.079 194.589 278.489 195.362C279.899 196.135 282.076 192.796 282.076 192.796C282.076 192.796 287.462 192.029 287.969 191.899C288.477 191.769 283.102 194.206 282.589 195.232C282.076 196.259 277.203 200.743 277.586 202.412C277.97 204.081 279.126 203.692 279.126 203.692C279.126 203.692 279.639 206.258 281.433 205.745C283.226 205.232 286.052 202.412 286.559 202.028C287.067 201.645 292.459 201.639 293.102 201.515C293.744 201.391 287.969 203.309 287.332 204.076C286.695 204.843 284.382 207.922 284.766 208.588C285.149 209.253 287.715 208.204 288.482 207.691C289.249 207.178 292.075 205.892 292.075 205.892L297.331 206.664C297.331 206.664 301.685 209.868 303.868 209.998C305.364 210.048 306.861 210.004 308.352 209.868C308.865 209.868 322.198 205.892 323.478 205.356C324.758 204.82 335.886 201.126 335.886 201.126L324.251 190.743Z" fill="white" stroke="#263238" stroke-miterlimit="10"/>
<path d="M292.188 195.616C292.188 195.616 286.159 196.383 285.132 197.409C284.106 198.436 279.109 203.692 279.109 203.692" stroke="#263238" stroke-miterlimit="10"/>
<path d="M287.969 191.899L290.282 190.873" stroke="#263238" stroke-miterlimit="10"/>
<path d="M305.408 167.546C305.408 167.546 308.741 174.596 312.328 177.416C315.915 180.236 327.324 187.004 327.324 187.004L343.99 195.723C343.99 195.723 354.627 185.21 355.27 183.547C355.913 181.883 352.704 178.928 350.911 177.393C349.117 175.859 331.667 153.7 326.027 149.6C320.387 145.5 317.821 142.804 313.338 142.934" fill="white"/>
<path d="M305.408 167.546C305.408 167.546 308.741 174.596 312.328 177.416C315.915 180.236 327.324 187.004 327.324 187.004L343.99 195.723C343.99 195.723 354.627 185.21 355.27 183.547C355.913 181.883 352.704 178.928 350.911 177.393C349.117 175.859 331.667 153.7 326.027 149.6C320.387 145.5 317.821 142.804 313.338 142.934" stroke="#263238" stroke-miterlimit="10"/>
<path d="M331.667 181.646C331.667 181.646 340.64 178.053 341.024 177.929" stroke="#263238" stroke-miterlimit="10"/>
<path d="M339.631 171.263C339.631 171.263 330.658 180.49 330.274 181.386" stroke="#263238" stroke-miterlimit="10"/>
<path d="M334.634 163.311L328.994 183.056" stroke="#263238" stroke-miterlimit="10"/>
<path d="M328.994 183.056C328.994 183.056 321.301 189.593 322.581 191.386C323.862 193.18 335.553 203.946 336.168 203.822C336.782 203.698 345.53 197.026 345.654 195.746C345.778 194.465 332.451 182.159 331.684 181.646C330.917 181.133 328.994 183.056 328.994 183.056Z" fill="white" stroke="#263238" stroke-miterlimit="10"/>
<path d="M83.4384 131.846C83.4384 131.846 48.471 144.078 48.1101 146.092C47.7491 148.105 48.3018 184.55 48.1101 196.287C47.9183 208.024 47.4164 234.666 47.4164 234.666H110.888L113.448 194.781C113.448 194.781 118.755 206.856 120.216 208.317C121.677 209.778 135.591 195.87 135.591 195.87L130.464 170.434C130.464 170.434 128.27 148.472 127.903 147.192C127.537 145.911 113.076 138.41 104.109 134.564C95.1412 130.718 84.7187 131.643 83.4384 131.846Z" fill="white" stroke="#263238" stroke-miterlimit="10"/>
<path d="M84.7073 153.943L89.4787 163.722L83.3425 220.319L91.526 229.867L96.7541 218.728L94.0244 163.491C94.0244 163.491 100.617 155.99 100.843 155.308C101.069 154.625 100.843 146.899 100.843 146.899L88.5876 145.99L84.7073 153.943Z" fill="#263238" stroke="#263238" stroke-miterlimit="10"/>
<path d="M120.808 159.803L113.448 194.781L121.429 179.373" stroke="#263238" stroke-miterlimit="10"/>
<path d="M119.043 189.22C119.043 189.22 124.023 183.58 131.253 185.977" stroke="#263238" stroke-miterlimit="10"/>
<path d="M135.889 187.726C135.889 187.726 132.026 185.47 130.407 185.977C128.789 186.485 119.81 192.085 118.44 195.824C117.069 199.564 118.067 206.168 118.812 209.163C119.556 212.158 126.144 214.521 129.161 213.776C132.178 213.032 136.493 210.392 137.136 208.537C137.779 206.681 139.877 192.711 135.889 187.726Z" fill="white" stroke="#263238" stroke-miterlimit="10"/>
<path d="M155.81 174.145C155.81 174.145 157.806 166.559 158.336 165.493C158.866 164.427 163.66 161.901 164.456 161.105C165.251 160.31 167.783 157.778 168.714 156.317C169.644 154.856 170.846 153.785 171.24 155.116C171.635 156.447 169.678 161.579 169.678 161.579L176.333 159.447C176.333 159.447 181.088 152.589 182.289 153.92C183.49 155.251 179.892 168.821 178.961 171.483C178.031 174.145 171.776 175.741 168.714 176.672C166.028 177.612 163.406 178.723 160.863 179.999C160.863 179.999 146.363 197.268 144.631 200.731C142.9 204.194 132.658 210.043 129.996 210.708C127.334 211.374 123.871 211.238 122.41 206.315C120.949 201.391 122.94 195.672 128.264 191.815C133.588 187.957 155.81 174.145 155.81 174.145Z" fill="white" stroke="#263238" stroke-miterlimit="10"/>
<path d="M180.134 167.033C180.134 167.033 181.753 159.554 179.638 160.553C177.523 161.551 176.767 169.774 176.767 169.774C176.767 169.774 169.791 169.526 168.308 169.526C166.824 169.526 161.951 170.152 160.581 172.019C159.21 173.885 159.081 175.137 159.081 175.137" stroke="#263238" stroke-miterlimit="10"/>
<path d="M169.678 161.551L166.176 163.796" stroke="#263238" stroke-miterlimit="10"/>
<path d="M136.668 171.128C134.94 171.26 133.23 170.702 131.913 169.576C130.596 168.45 129.779 166.848 129.64 165.121L129.076 145.077L140.181 144.231L142.731 164.1C142.796 164.96 142.691 165.824 142.421 166.644C142.151 167.463 141.723 168.221 141.159 168.874C140.596 169.527 139.909 170.062 139.138 170.449C138.368 170.835 137.528 171.066 136.668 171.128Z" fill="white" stroke="#263238" stroke-miterlimit="10"/>
<path d="M129.195 148.297L129.646 165.093C129.778 166.828 130.593 168.44 131.913 169.573C132.567 170.135 133.325 170.562 134.143 170.831C134.962 171.099 135.826 171.204 136.685 171.139C137.544 171.074 138.382 170.84 139.151 170.451C139.919 170.062 140.604 169.525 141.165 168.872C141.727 168.218 142.154 167.46 142.423 166.642C142.691 165.823 142.796 164.959 142.731 164.1L140.638 147.429L129.195 148.297Z" fill="#122450" stroke="#263238" stroke-linecap="round" stroke-linejoin="round"/>
<path d="M138.275 182.407L137.328 169.949L135.839 170.062L136.786 182.52L129.415 185.819L129.46 186.4L137.768 185.769L137.796 185.763L146.103 185.131L146.058 184.556L138.275 182.407Z" fill="white" stroke="#263238" stroke-miterlimit="10"/>
<path d="M66.3439 138.991C66.3439 138.991 48.0819 142.561 46.8524 145.663C45.6229 148.765 50.4055 188.098 51.6519 195.7C52.8983 203.303 53.9079 212.53 58.8823 213.274C63.8567 214.019 74.956 206.168 74.956 206.168L73.4445 182.605C73.4445 182.605 74.0705 167.524 73.1963 162.786C72.3222 158.049 66.4679 152.939 66.4679 152.939" fill="white"/>
<path d="M66.3439 138.991C66.3439 138.991 48.0819 142.561 46.8524 145.663C45.6229 148.765 50.4055 188.098 51.6519 195.7C52.8983 203.303 53.9079 212.53 58.8823 213.274C63.8567 214.019 74.956 206.168 74.956 206.168L73.4445 182.605C73.4445 182.605 74.0705 167.524 73.1963 162.786C72.3222 158.049 66.4679 152.939 66.4679 152.939" stroke="#263238" stroke-miterlimit="10"/>
<path d="M63.9751 185.853C60.3545 188.862 57.7443 192.909 56.4966 197.449" stroke="#263238" stroke-miterlimit="10"/>
<path d="M65.2215 185.729C65.2215 185.729 59.858 186.727 56.9929 189.97" stroke="#263238" stroke-miterlimit="10"/>
<path d="M57.117 153.198C57.117 153.198 63.5973 154.072 67.3365 157.315" stroke="#263238" stroke-miterlimit="10"/>
<path d="M78.182 182.864C78.2353 182.649 78.2408 182.425 78.1981 182.208C78.1553 181.991 78.0654 181.786 77.9347 181.607C77.804 181.429 77.6356 181.281 77.4415 181.175C77.2475 181.068 77.0324 181.006 76.8115 180.992C75.0631 180.744 67.2237 182.238 66.2141 182.74C65.2046 183.242 62.2267 188.594 61.6063 195.576C60.986 202.559 68.0866 211.656 68.8367 211.656C69.5868 211.656 78.8024 208.661 79.5525 207.544C80.3026 206.428 80.6805 198.193 80.923 197.697C81.1655 197.201 78.182 182.864 78.182 182.864Z" fill="white" stroke="#263238" stroke-miterlimit="10"/>
<path d="M120.56 169.278C120.56 169.278 126.29 156.441 126.668 155.567C127.046 154.693 132.9 151.331 133.273 151.331C133.645 151.331 141.997 153.074 142.742 153.322C143.206 153.495 143.608 153.801 143.898 154.203C144.187 154.605 144.35 155.083 144.366 155.578C144.366 156.706 143.74 157.073 142.996 156.825C142.251 156.577 140.373 155.454 140.001 155.454H134.519L133.391 156.949C133.391 156.949 136.775 156.949 137.627 157.197C138.478 157.445 143.486 159.193 144.609 159.566C145.074 159.736 145.477 160.042 145.766 160.444C146.055 160.846 146.215 161.326 146.227 161.822V162.572C146.291 163.38 146.163 164.191 145.855 164.94C145.353 165.933 142.86 166.807 142.86 166.807C142.86 166.807 140.497 168.426 138.873 169.796C137.249 171.167 131.146 173.914 131.146 173.914C131.146 173.914 131.146 176.406 127.762 177.529C125.119 178.296 122.406 178.797 119.663 179.023C119.663 179.023 78.6783 201.809 77.3078 202.559C75.9373 203.309 73.3204 199.316 72.9482 192.971C72.5759 186.626 74.1946 183.62 74.1946 183.62L120.56 169.278Z" fill="white" stroke="#263238" stroke-miterlimit="10"/>
<path d="M146.233 162.549C146.233 162.549 136.764 161.551 136.262 161.551C135.76 161.551 130.154 163.17 130.154 163.17" stroke="#263238" stroke-miterlimit="10"/>
<path d="M133.397 156.938L130.03 157.936" stroke="#263238" stroke-miterlimit="10"/>
<path d="M142.872 166.785L136.386 167.281L130.283 169.029" stroke="#263238" stroke-miterlimit="10"/>
<path d="M88.1928 126.882C88.1928 126.882 84.5382 126.516 83.0718 128.349C81.9602 129.848 80.9808 131.441 80.1447 133.109C80.1447 133.109 77.3981 162.572 79.231 160.372C81.064 158.173 86.3655 152.713 86.3655 152.713C86.3655 152.713 86.185 155.454 87.0987 156.007C88.0124 156.56 91.6727 156.571 91.6727 156.571C91.6727 156.571 96.7993 156.937 97.8765 155.471C98.5493 154.57 99.1029 153.587 99.5234 152.544C99.5234 152.544 103.55 163.705 104.097 161.145C104.644 158.584 106.664 143.396 107.211 137.536C107.758 131.676 93.3195 125.422 88.1928 126.882Z" fill="white" stroke="#263238" stroke-miterlimit="10"/>
<path d="M126.629 100.166C126.629 100.166 127.542 108.034 127.356 109.867C127.17 111.7 125.709 115.355 126.076 116.268C126.443 117.182 129.759 120.848 128.631 122.128C127.699 123.103 126.654 123.962 125.518 124.689C125.518 124.689 122.038 133.289 121.124 134.936C120.21 136.583 117.283 136.95 114.92 136.583C112.557 136.217 108.716 135.483 108.716 135.483C108.716 135.483 106.517 138.416 103.59 142.624C100.663 146.831 92.0617 155.984 91.6951 156.531C91.3286 157.079 86.9351 145.731 87.3017 140.43C87.6683 135.128 87.6683 121.942 87.6683 121.942C87.6683 121.942 88.0236 111.694 94.2275 103.827C100.431 95.959 119.302 92.8458 121.496 93.9456C123.69 95.0454 126.629 100.166 126.629 100.166Z" fill="white" stroke="#263238" stroke-miterlimit="10"/>
<path d="M122.568 125.839L116.652 122.579C116.652 122.579 115.637 129.308 117.266 129.308C118.896 129.308 122.568 125.839 122.568 125.839Z" stroke="#263238" stroke-miterlimit="10"/>
<path d="M108.694 135.483L103.437 132.669L104.272 141.016L108.694 135.483Z" fill="#263238" stroke="#263238" stroke-miterlimit="10"/>
<path d="M98.9312 118.97C98.9312 118.97 99.5967 125.32 100.431 126.488" stroke="#263238" stroke-miterlimit="10"/>
<path d="M125.162 109.5C124.027 108.786 122.667 108.522 121.347 108.759C120.027 108.996 118.844 109.717 118.028 110.781" stroke="#263238" stroke-miterlimit="10"/>
<path d="M123.696 113.894C123.696 114.802 123.239 115.541 122.675 115.541C122.111 115.541 121.654 114.802 121.654 113.894C121.654 112.986 122.111 112.247 122.675 112.247C123.239 112.247 123.696 112.98 123.696 113.894Z" fill="#263238"/>
<path d="M101.559 110.414L104.12 111.328L104.306 108.587C104.69 109.166 105.187 109.663 105.767 110.047C106.5 110.414 110.713 111.88 110.713 111.88C110.713 111.88 108.699 108.034 108.699 107.301C108.699 106.568 111.26 104.007 112.36 102.36C113.46 100.713 116.748 99.6192 116.748 99.6192L115.653 105.259L119.314 101.965L119.494 104.712C121.043 104.305 122.57 103.818 124.068 103.251C127.728 101.965 129.742 98.6717 129.928 95.0114C130.114 91.3511 128.095 88.9767 127.915 88.2435C127.734 87.5103 118.214 83.1168 112.174 83.1168C106.133 83.1168 98.0739 85.1303 94.0583 87.1437C90.0427 89.1571 86.0045 93.184 85.4575 96.1111C84.9104 99.0382 85.8241 103.979 84.8935 106.912C83.9629 109.844 80.1278 111.542 81.4249 117.001C82.7221 122.461 92.2197 126.882 92.9529 126.882C93.6861 126.882 93.139 122.856 93.139 122.856C93.139 122.856 94.4193 123.775 95.3329 123.775H97.713L96.1451 121.034L95.5134 119.906C95.5134 119.906 96.2466 118.079 97.3464 115.151C98.4461 112.224 101.559 110.414 101.559 110.414Z" fill="#263238" stroke="#263238" stroke-miterlimit="10"/>
<path d="M103.387 112.975C103.387 112.975 100.273 105.287 96.7993 108.22C93.3251 111.153 94.9663 115.552 96.2353 117.554C97.5043 119.556 100.082 119.928 100.082 119.928" fill="white"/>
<path d="M103.387 112.975C103.387 112.975 100.273 105.287 96.7993 108.22C93.3251 111.153 94.9663 115.552 96.2353 117.554C97.5043 119.556 100.082 119.928 100.082 119.928" stroke="#263238" stroke-miterlimit="10"/>
<path d="M246.392 196.304C244.7 191.606 237.142 180.337 235.36 176.959C233.578 173.581 228.897 159.729 228.897 159.729L227.425 160.101V160.039L226.325 160.383L225.197 160.665V160.733L223.748 161.19C223.748 161.19 227.064 175.431 227.323 179.238C227.583 183.044 227.087 196.608 228.124 201.493C228.953 205.407 233.719 221.548 235.569 227.769C235.908 228.918 236.687 229.887 237.737 230.465C238.787 231.043 240.023 231.182 241.175 230.854L244.852 229.805L247.063 229.179L250.74 228.13C251.893 227.802 252.869 227.033 253.458 225.99C254.048 224.947 254.202 223.714 253.887 222.558C252.195 216.297 247.745 200.088 246.392 196.304Z" fill="#263238" stroke="#263238" stroke-miterlimit="10"/>
<path d="M228.728 159.78L223.934 161.139C223.784 161.182 223.627 161.195 223.472 161.177C223.317 161.159 223.167 161.111 223.031 161.035C222.894 160.959 222.775 160.857 222.678 160.734C222.581 160.612 222.51 160.472 222.467 160.321C222.424 160.171 222.412 160.014 222.429 159.859C222.447 159.704 222.496 159.555 222.572 159.418C222.648 159.282 222.75 159.162 222.872 159.065C222.995 158.969 223.135 158.897 223.285 158.855L228.074 157.49C228.377 157.405 228.702 157.443 228.978 157.596C229.254 157.749 229.458 158.005 229.546 158.308C229.629 158.612 229.591 158.936 229.438 159.211C229.285 159.487 229.03 159.691 228.728 159.78Z" fill="#263238" stroke="#263238" stroke-miterlimit="10"/>
<path d="M228.016 155.618L222.353 157.229L222.786 158.754L228.45 157.143L228.016 155.618Z" fill="#122450" stroke="#263238" stroke-linecap="round" stroke-linejoin="round"/>
<path d="M249.488 207.067L231.207 212.268L235.614 227.761L253.895 222.56L249.488 207.067Z" fill="white" stroke="#263238" stroke-miterlimit="10"/>
<path d="M238.18 181.691C236.934 179.672 235.89 177.963 235.36 176.959C233.572 173.575 228.897 159.729 228.897 159.729L227.425 160.101V160.039L226.325 160.383L225.197 160.665V160.733L223.748 161.19C223.748 161.19 227.064 175.431 227.323 179.238C227.402 180.366 227.414 182.368 227.419 184.742L238.18 181.691Z" fill="#122450" stroke="#263238" stroke-linecap="round" stroke-linejoin="round"/>
<path d="M254.22 234.666H229.038L223.641 194.505H259.617L254.22 234.666Z" fill="#A6A6A6" stroke="#263238" stroke-miterlimit="10"/>
<path d="M225.964 196.552L230.989 234.277H232.884L227.859 197.612L225.964 196.552Z" fill="#263238"/>
<path d="M227.622 196.552L232.647 234.277H234.537L229.512 197.612L227.622 196.552Z" fill="white"/>
<path d="M223.641 194.505L241.632 214.588L259.617 194.505H223.641Z" fill="white" stroke="#263238" stroke-miterlimit="10"/>
<path d="M263.424 202.671C263.425 203.147 263.285 203.612 263.022 204.008C262.759 204.404 262.384 204.712 261.945 204.895C261.506 205.078 261.023 205.126 260.556 205.034C260.09 204.942 259.661 204.714 259.325 204.378C258.988 204.042 258.759 203.614 258.666 203.148C258.573 202.682 258.62 202.198 258.801 201.759C258.983 201.32 259.291 200.944 259.686 200.68C260.082 200.415 260.546 200.274 261.022 200.274C261.337 200.274 261.649 200.335 261.941 200.455C262.232 200.575 262.497 200.752 262.72 200.974C262.943 201.197 263.121 201.462 263.241 201.753C263.362 202.044 263.424 202.356 263.424 202.671Z" fill="#A6A6A6" stroke="#263238" stroke-miterlimit="10"/>
<path d="M224.509 202.671C224.51 203.147 224.37 203.612 224.107 204.008C223.844 204.404 223.469 204.712 223.03 204.895C222.591 205.078 222.108 205.126 221.641 205.034C221.175 204.942 220.746 204.714 220.41 204.378C220.073 204.042 219.844 203.614 219.75 203.148C219.657 202.682 219.705 202.198 219.886 201.759C220.068 201.32 220.376 200.944 220.771 200.68C221.166 200.415 221.631 200.274 222.106 200.274C222.422 200.274 222.734 200.335 223.025 200.455C223.317 200.575 223.582 200.752 223.805 200.974C224.028 201.197 224.205 201.462 224.326 201.753C224.447 202.044 224.509 202.356 224.509 202.671Z" fill="#A6A6A6" stroke="#263238" stroke-miterlimit="10"/>
<path d="M6.78088 234.667H375.579" stroke="#263238" stroke-miterlimit="10"/>
</svg>
