<svg width="374" height="238" viewBox="0 0 374 238" fill="none" xmlns="http://www.w3.org/2000/svg">
<path d="M152.97 75.5998V73.3532C151.312 73.2887 150.071 72.7576 149.25 71.7588C148.429 70.7605 147.986 69.2708 147.922 67.2899L151.328 66.7101C151.36 67.5156 151.445 68.1877 151.581 68.7271C151.718 69.2669 151.924 69.6694 152.197 69.935C152.471 70.2008 152.825 70.3336 153.26 70.3336C153.759 70.3336 154.102 70.1729 154.287 69.8505C154.472 69.5284 154.565 69.1582 154.565 68.7392C154.565 67.918 154.375 67.2294 153.997 66.6738C153.619 66.1182 153.099 65.5589 152.439 64.995L150.386 63.2315C149.918 62.7966 149.5 62.3539 149.129 61.9029C148.759 61.4522 148.465 60.9366 148.248 60.3568C148.03 59.7772 147.922 59.0927 147.922 58.3035C147.922 56.79 148.352 55.61 149.214 54.7646C150.075 53.9191 151.231 53.4401 152.681 53.3272V51.1772H153.84V53.3272C154.71 53.3756 155.422 53.5729 155.978 53.9191C156.534 54.2657 156.956 54.7004 157.246 55.2235C157.536 55.7471 157.745 56.319 157.874 56.9387C158.003 57.5588 158.083 58.1586 158.116 58.7384L154.661 59.2456C154.645 58.65 154.597 58.1224 154.516 57.6633C154.436 57.2044 154.291 56.8462 154.082 56.5884C153.872 56.331 153.55 56.2102 153.115 56.2261C152.664 56.2424 152.322 56.4193 152.089 56.7576C151.855 57.0958 151.738 57.4743 151.738 57.8928C151.738 58.6338 151.916 59.2298 152.27 59.6805C152.624 60.1315 153.027 60.5664 153.478 60.9849L155.483 62.7242C156.014 63.2074 156.505 63.7309 156.956 64.2945C157.407 64.8584 157.769 65.4823 158.043 66.1666C158.317 66.8513 158.454 67.6364 158.454 68.5219C158.454 69.3757 158.281 70.1524 157.935 70.853C157.588 71.5535 157.089 72.1213 156.437 72.556C155.785 72.9909 155.015 73.2483 154.13 73.329V75.5998H152.97Z" stroke="#263238" stroke-miterlimit="10"/>
<path d="M156.009 81.5225C166.024 79.9274 172.85 70.5154 171.255 60.5003C169.66 50.4852 160.248 43.6595 150.233 45.2546C140.218 46.8497 133.392 56.2617 134.987 66.2768C136.582 76.2919 145.994 83.1176 156.009 81.5225Z" stroke="#263238" stroke-miterlimit="10"/>
<path d="M167.281 69.5354C170.676 61.7151 167.088 52.6234 159.268 49.2286C151.447 45.8338 142.356 49.4214 138.961 57.2417C135.566 65.062 139.154 74.1536 146.974 77.5484C154.794 80.9432 163.886 77.3556 167.281 69.5354Z" stroke="#263238" stroke-miterlimit="10"/>
<path d="M234.943 33.305V31.0584C233.284 30.9939 232.044 30.4628 231.223 29.464C230.402 28.4657 229.958 26.976 229.894 24.9951L233.3 24.4153C233.333 25.2208 233.417 25.8929 233.554 26.4323C233.691 26.9721 233.896 27.3746 234.17 27.6402C234.444 27.906 234.798 28.0388 235.233 28.0388C235.732 28.0388 236.074 27.8781 236.26 27.5557C236.445 27.2336 236.538 26.8634 236.538 26.4444C236.538 25.6232 236.348 24.9346 235.97 24.379C235.591 23.8234 235.072 23.2641 234.412 22.7002L232.358 20.9367C231.891 20.5018 231.473 20.0591 231.102 19.6081C230.732 19.1574 230.438 18.6418 230.221 18.062C230.003 17.4824 229.894 16.7979 229.894 16.0087C229.894 14.4952 230.325 13.3152 231.187 12.4698C232.048 11.6243 233.204 11.1453 234.653 11.0324V8.88245H235.813V11.0324C236.682 11.0808 237.395 11.2781 237.951 11.6243C238.506 11.9709 238.929 12.4056 239.219 12.9287C239.509 13.4523 239.718 14.0242 239.847 14.6439C239.976 15.264 240.056 15.8638 240.089 16.4436L236.634 16.9508C236.618 16.3552 236.57 15.8276 236.489 15.3685C236.409 14.9096 236.264 14.5514 236.054 14.2936C235.845 14.0362 235.523 13.9154 235.088 13.9313C234.637 13.9476 234.295 14.1245 234.062 14.4628C233.828 14.801 233.711 15.1795 233.711 15.598C233.711 16.339 233.888 16.935 234.243 17.3857C234.597 17.8367 234.999 18.2716 235.451 18.6901L237.455 20.4294C237.987 20.9126 238.478 21.4361 238.929 21.9997C239.38 22.5636 239.742 23.1875 240.016 23.8718C240.29 24.5565 240.427 25.3416 240.427 26.2271C240.427 27.0809 240.253 27.8576 239.907 28.5582C239.561 29.2587 239.062 29.8265 238.41 30.2612C237.757 30.6961 236.988 30.9535 236.103 31.0342V33.305H234.943Z" stroke="#263238" stroke-miterlimit="10"/>
<path d="M238.067 39.2139C248.075 37.5717 254.856 28.1277 253.214 18.1202C251.572 8.11271 242.128 1.33135 232.12 2.97359C222.113 4.61584 215.331 14.0598 216.974 24.0673C218.616 34.0748 228.06 40.8562 238.067 39.2139Z" stroke="#263238" stroke-miterlimit="10"/>
<path d="M249.398 26.897C252.603 18.9971 248.797 9.99465 240.897 6.78958C232.997 3.5845 223.995 7.39044 220.79 15.2904C217.585 23.1903 221.39 32.1927 229.29 35.3978C237.19 38.6029 246.193 34.7969 249.398 26.897Z" stroke="#263238" stroke-miterlimit="10"/>
<path d="M14.8383 87.3466V85.7528C13.6616 85.7071 12.7818 85.3303 12.1993 84.6218C11.6166 83.9135 11.3021 82.8567 11.2567 81.4514L13.6729 81.0401C13.6958 81.6115 13.7559 82.0883 13.853 82.471C13.9499 82.8539 14.0956 83.1394 14.29 83.3279C14.4841 83.5165 14.7355 83.6107 15.0439 83.6107C15.398 83.6107 15.6409 83.4966 15.7724 83.268C15.9035 83.0395 15.9694 82.7768 15.9694 82.4796C15.9694 81.897 15.835 81.4085 15.5668 81.0143C15.2982 80.6202 14.9296 80.2234 14.4613 79.8234L13.0046 78.5723C12.6732 78.2638 12.3762 77.9498 12.1135 77.6298C11.8507 77.31 11.6423 76.9442 11.488 76.533C11.3337 76.1217 11.2567 75.6362 11.2567 75.0763C11.2567 74.0026 11.5622 73.1655 12.1735 72.5657C12.7846 71.9659 13.6045 71.6261 14.6327 71.546V70.0208H15.4554V71.546C16.0723 71.5803 16.5779 71.7203 16.972 71.9659C17.3662 72.2117 17.666 72.5202 17.8717 72.8913C18.0773 73.2627 18.2257 73.6684 18.3172 74.1081C18.4085 74.548 18.4657 74.9735 18.4887 75.3848L16.0379 75.7446C16.0264 75.3221 15.9922 74.9478 15.9351 74.6221C15.8779 74.2965 15.7751 74.0424 15.6267 73.8596C15.478 73.677 15.2496 73.5912 14.9411 73.6026C14.6212 73.6141 14.3783 73.7396 14.2129 73.9795C14.0471 74.2195 13.9644 74.488 13.9644 74.7849C13.9644 75.3106 14.09 75.7334 14.3415 76.0532C14.5925 76.3731 14.8783 76.6816 15.1983 76.9785L16.6206 78.2124C16.9977 78.5552 17.3461 78.9266 17.666 79.3264C17.9858 79.7264 18.2429 80.1691 18.4372 80.6545C18.6313 81.1403 18.7284 81.6972 18.7284 82.3254C18.7284 82.9311 18.6055 83.4821 18.3601 83.9791C18.1143 84.4761 17.7602 84.8789 17.2976 85.1873C16.8348 85.4958 16.2892 85.6784 15.661 85.7357V87.3466H14.8383Z" stroke="#263238" stroke-miterlimit="10"/>
<path d="M17.0319 91.5423C24.1334 90.3899 28.9562 83.6987 27.8038 76.5971C26.6513 69.4955 19.9601 64.6728 12.8585 65.8252C5.75697 66.9776 0.934227 73.6688 2.08666 80.7704C3.23908 87.872 9.93028 92.6947 17.0319 91.5423Z" stroke="#263238" stroke-miterlimit="10"/>
<path d="M25.0626 82.8747C27.3771 77.287 24.7237 70.8811 19.136 68.5666C13.5483 66.2521 7.14232 68.9055 4.82782 74.4932C2.51333 80.0809 5.16677 86.4869 10.7545 88.8014C16.3421 91.1159 22.7481 88.4624 25.0626 82.8747Z" stroke="#263238" stroke-miterlimit="10"/>
<path d="M88.9073 198.889V197.295C87.7306 197.25 86.8507 196.873 86.2682 196.164C85.6856 195.456 85.3711 194.399 85.3256 192.994L87.7419 192.583C87.7647 193.154 87.8248 193.631 87.9219 194.013C88.0189 194.396 88.1646 194.682 88.3589 194.87C88.553 195.059 88.8045 195.153 89.1129 195.153C89.467 195.153 89.7098 195.039 89.8414 194.81C89.9724 194.582 90.0384 194.319 90.0384 194.022C90.0384 193.439 89.9039 192.951 89.6357 192.557C89.3671 192.163 88.9986 191.766 88.5302 191.366L87.0735 190.115C86.7421 189.806 86.4451 189.492 86.1824 189.172C85.9196 188.853 85.7113 188.487 85.557 188.075C85.4026 187.664 85.3256 187.179 85.3256 186.619C85.3256 185.545 85.6311 184.708 86.2425 184.108C86.8535 183.508 87.6734 183.169 88.7017 183.088V181.563H89.5243V183.088C90.1412 183.123 90.6468 183.263 91.0409 183.508C91.4351 183.754 91.735 184.063 91.9406 184.434C92.1462 184.805 92.2947 185.211 92.3861 185.651C92.4775 186.09 92.5346 186.516 92.5576 186.927L90.1069 187.287C90.0953 186.865 90.0612 186.49 90.004 186.165C89.9468 185.839 89.844 185.585 89.6956 185.402C89.5469 185.219 89.3185 185.134 89.0101 185.145C88.6902 185.157 88.4473 185.282 88.2819 185.522C88.116 185.762 88.0333 186.03 88.0333 186.327C88.0333 186.853 88.1589 187.276 88.4104 187.596C88.6615 187.916 88.9473 188.224 89.2672 188.521L90.6895 189.755C91.0667 190.098 91.415 190.469 91.735 190.869C92.0547 191.269 92.3118 191.712 92.5061 192.197C92.7002 192.683 92.7974 193.24 92.7974 193.868C92.7974 194.474 92.6745 195.025 92.4291 195.522C92.1833 196.019 91.8292 196.421 91.3665 196.73C90.9038 197.038 90.3581 197.221 89.7299 197.278V198.889H88.9073Z" stroke="#263238" stroke-miterlimit="10"/>
<path d="M89.0142 203.252C96.2087 203.252 102.041 197.42 102.041 190.226C102.041 183.031 96.2087 177.199 89.0142 177.199C81.8197 177.199 75.9874 183.031 75.9874 190.226C75.9874 197.42 81.8197 203.252 89.0142 203.252Z" stroke="#263238" stroke-miterlimit="10"/>
<path d="M99.1315 194.417C101.446 188.829 98.7926 182.423 93.2049 180.109C87.6172 177.794 81.2113 180.448 78.8968 186.035C76.5823 191.623 79.2357 198.029 84.8234 200.343C90.4111 202.658 96.817 200.004 99.1315 194.417Z" stroke="#263238" stroke-miterlimit="10"/>
<path d="M342.429 87.0251V85.4313C341.252 85.3855 340.373 85.0088 339.79 84.3002C339.207 83.592 338.893 82.5351 338.847 81.1299L341.264 80.7186C341.287 81.29 341.347 81.7669 341.444 82.1495C341.541 82.5325 341.687 82.818 341.881 83.0064C342.075 83.1949 342.326 83.2891 342.635 83.2891C342.989 83.2891 343.232 83.1751 343.363 82.9464C343.494 82.718 343.56 82.4552 343.56 82.1581C343.56 81.5754 343.426 81.087 343.158 80.6928C342.889 80.2987 342.52 79.9019 342.052 79.5019L340.595 78.2508C340.264 77.9422 339.967 77.6282 339.704 77.3083C339.442 76.9885 339.233 76.6228 339.079 76.2114C338.925 75.8002 338.847 75.3146 338.847 74.7548C338.847 73.6811 339.153 72.8439 339.764 72.2442C340.375 71.6444 341.195 71.3046 342.224 71.2245V69.6992H343.046V71.2245C343.663 71.2588 344.169 71.3988 344.563 71.6444C344.957 71.8902 345.257 72.1986 345.463 72.5697C345.668 72.9412 345.817 73.3469 345.908 73.7866C345.999 74.2265 346.056 74.6519 346.08 75.0633L343.629 75.4231C343.617 75.0006 343.583 74.6263 343.526 74.3006C343.469 73.975 343.366 73.7209 343.217 73.538C343.069 73.3554 342.84 73.2697 342.532 73.281C342.212 73.2925 341.969 73.418 341.804 73.658C341.638 73.898 341.555 74.1665 341.555 74.4634C341.555 74.989 341.681 75.4119 341.932 75.7316C342.183 76.0516 342.469 76.36 342.789 76.657L344.211 77.8909C344.589 78.2337 344.937 78.6051 345.257 79.0049C345.577 79.4049 345.834 79.8475 346.028 80.333C346.222 80.8188 346.319 81.3757 346.319 82.0039C346.319 82.6096 346.196 83.1606 345.951 83.6577C345.705 84.1546 345.351 84.5574 344.888 84.8658C344.426 85.1743 343.88 85.3569 343.252 85.4142V87.0251H342.429Z" stroke="#263238" stroke-miterlimit="10"/>
<path d="M343.615 91.3442C350.785 90.7484 356.114 84.4531 355.518 77.2833C354.922 70.1135 348.627 64.7843 341.457 65.3801C334.287 65.976 328.958 72.2712 329.554 79.441C330.15 86.6108 336.445 91.9401 343.615 91.3442Z" stroke="#263238" stroke-miterlimit="10"/>
<path d="M352.675 82.5002C354.961 76.9006 352.274 70.5085 346.674 68.223C341.075 65.9375 334.683 68.6242 332.397 74.2238C330.112 79.8234 332.798 86.2155 338.398 88.501C343.997 90.7865 350.39 88.0999 352.675 82.5002Z" stroke="#263238" stroke-miterlimit="10"/>
<path d="M5.28001 233.354H365.158" stroke="#263238" stroke-linecap="round" stroke-linejoin="round"/>
<path d="M305.566 200.652H299.81L299.727 200.774C299.239 200.7 298.744 200.652 298.24 200.652C291.222 200.652 285.532 207.973 285.532 217.003C285.532 226.033 291.222 233.354 298.24 233.354C298.744 233.354 302.911 233.306 303.399 233.233L299.81 233.354H305.566C312.585 233.354 318.274 226.034 318.274 217.003C318.274 207.973 312.585 200.652 305.566 200.652Z" fill="#263238" stroke="#263238" stroke-linecap="round" stroke-linejoin="round"/>
<path d="M187.659 200.652H181.903L181.82 200.774C181.332 200.7 180.837 200.652 180.333 200.652C173.315 200.652 167.625 207.973 167.625 217.003C167.625 226.033 173.315 233.354 180.333 233.354C180.837 233.354 181.332 233.306 181.82 233.233L181.903 233.354H187.659C194.678 233.354 200.367 226.034 200.367 217.003C200.367 207.973 194.678 200.652 187.659 200.652Z" fill="#263238" stroke="#263238" stroke-linecap="round" stroke-linejoin="round"/>
<path d="M360.343 201.133H357.581L355.106 183.783C354.805 181.67 352.996 180.101 350.862 180.101H335.38L310.242 153.425C307.521 150.537 303.729 148.899 299.761 148.899H233.121C230.216 148.899 227.437 150.085 225.427 152.181L110.967 200.502V220.904H282.577L325.646 220.598L357.581 218.503V218.358H360.207C360.786 218.358 361.255 217.888 361.255 217.31V202.046C361.255 201.542 360.847 201.133 360.343 201.133Z" fill="#122450" stroke="#263238" stroke-linecap="round" stroke-linejoin="round"/>
<path d="M311.591 217.769V220.697L325.645 220.597L357.581 218.503V218.358H360.207C360.619 218.358 360.967 218.114 361.138 217.769H311.591Z" fill="#263238" stroke="#263238" stroke-linecap="round" stroke-linejoin="round"/>
<path d="M325.646 220.598C326.995 220.509 326.93 218.503 325.577 218.503H309.429L249.707 148.899H233.121C230.216 148.899 227.437 150.085 225.427 152.181L110.967 200.502V220.904H282.577L325.646 220.598Z" fill="#263238" stroke="#263238" stroke-linecap="round" stroke-linejoin="round"/>
<path d="M137.707 200.652H131.95L128.176 206.194C126.2 209.076 124.999 212.858 124.999 217.003C124.999 221.148 126.2 224.93 128.176 227.812L131.95 233.354H137.707C144.725 233.354 150.415 226.033 150.415 217.003C150.415 207.973 144.725 200.652 137.707 200.652Z" fill="#263238" stroke="#263238" stroke-linecap="round" stroke-linejoin="round"/>
<path d="M130.38 233.354C137.399 233.354 143.088 226.034 143.088 217.004C143.088 207.973 137.399 200.653 130.38 200.653C123.362 200.653 117.672 207.973 117.672 217.004C117.672 226.034 123.362 233.354 130.38 233.354Z" fill="#636363" stroke="#263238" stroke-linecap="round" stroke-linejoin="round"/>
<path d="M130.38 230.047C135.979 230.047 140.518 224.207 140.518 217.003C140.518 209.799 135.979 203.959 130.38 203.959C124.781 203.959 120.242 209.799 120.242 217.003C120.242 224.207 124.781 230.047 130.38 230.047Z" fill="white" stroke="#263238" stroke-linecap="round" stroke-linejoin="round"/>
<path d="M132.522 217.003C132.522 218.525 131.563 219.759 130.38 219.759C129.197 219.759 128.238 218.525 128.238 217.003C128.238 215.481 129.197 214.248 130.38 214.248C131.563 214.248 132.522 215.481 132.522 217.003Z" fill="white" stroke="#263238" stroke-linecap="round" stroke-linejoin="round"/>
<path d="M265.964 200.652H260.208L256.433 206.194C254.457 209.076 253.256 212.858 253.256 217.003C253.256 221.148 254.457 224.93 256.433 227.812L260.208 233.354H265.964C272.982 233.354 278.672 226.033 278.672 217.003C278.672 207.973 272.982 200.652 265.964 200.652Z" fill="#263238" stroke="#263238" stroke-linecap="round" stroke-linejoin="round"/>
<path d="M258.638 233.354C265.656 233.354 271.346 226.034 271.346 217.004C271.346 207.973 265.656 200.653 258.638 200.653C251.619 200.653 245.93 207.973 245.93 217.004C245.93 226.034 251.619 233.354 258.638 233.354Z" fill="#636363" stroke="#263238" stroke-linecap="round" stroke-linejoin="round"/>
<path d="M258.638 230.047C264.237 230.047 268.775 224.207 268.775 217.003C268.775 209.799 264.237 203.959 258.638 203.959C253.039 203.959 248.5 209.799 248.5 217.003C248.5 224.207 253.039 230.047 258.638 230.047Z" fill="white" stroke="#263238" stroke-linecap="round" stroke-linejoin="round"/>
<path d="M260.779 217.003C260.779 218.525 259.821 219.759 258.638 219.759C257.455 219.759 256.496 218.525 256.496 217.003C256.496 215.481 257.455 214.248 258.638 214.248C259.821 214.248 260.779 215.481 260.779 217.003Z" fill="white" stroke="#263238" stroke-linecap="round" stroke-linejoin="round"/>
<path d="M310.242 153.424C310.035 153.204 309.81 153.005 309.59 152.799H257.676V178.451H333.825L310.242 153.424Z" fill="#263238" stroke="#263238" stroke-linecap="round" stroke-linejoin="round"/>
<path d="M316.204 201.133H313.179L310.179 180.101H290.978L265.84 153.425C263.119 150.537 259.326 148.899 255.358 148.899H194.187C191.282 148.899 188.503 150.085 186.493 152.181L147.419 178.301L111.267 193.902L105.611 201.498C104.219 203.367 103.467 205.635 103.467 207.965V220.904H114.868V216.592C114.868 206.049 122.535 197.502 131.992 197.502C140.419 197.502 145.655 204.336 146.969 213.615L148.002 220.904H243.275V216.592C243.275 206.049 247.601 197.502 259.23 197.502C269.59 197.502 273.295 204.336 274.911 213.615L276.127 220.598L313.179 218.503V218.358H316.204V201.133Z" fill="#122450" stroke="#263238" stroke-linecap="round" stroke-linejoin="round"/>
<path d="M186.819 156.025L153.27 178.301H215.973V153.099H193.772C191.155 153.099 188.649 154.154 186.819 156.025Z" fill="#263238" stroke="#263238" stroke-linecap="round" stroke-linejoin="round"/>
<path d="M179.534 178.301L199.421 153.099H193.772C191.155 153.099 188.649 154.154 186.819 156.025L175.08 163.82L163.653 178.301H179.534Z" fill="white" stroke="#263238" stroke-linecap="round" stroke-linejoin="round"/>
<path d="M215.973 178.301V160.205L201.693 178.301H215.973Z" fill="white" stroke="#263238" stroke-linecap="round" stroke-linejoin="round"/>
<path d="M263.749 157.204L278.012 171.791C278.488 172.277 278.825 172.882 278.99 173.542C279.593 175.96 277.764 178.301 275.272 178.301H220.174V153.099H253.996C257.667 153.099 261.183 154.579 263.749 157.204Z" fill="#263238" stroke="#263238" stroke-linecap="round" stroke-linejoin="round"/>
<path d="M250.388 153.099H244.848L224.961 178.301H230.501L250.388 153.099Z" fill="white" stroke="#263238" stroke-linecap="round" stroke-linejoin="round"/>
<path d="M220.174 154.882V175.007L237.461 153.099H221.58L220.174 154.882Z" fill="white" stroke="#263238" stroke-linecap="round" stroke-linejoin="round"/>
<path d="M310.179 180.101H350.862C352.996 180.101 354.805 181.67 355.106 183.783L357.581 201.133H313.179L310.179 180.101Z" fill="#122450" stroke="#263238" stroke-linecap="round" stroke-linejoin="round"/>
<path d="M348.796 189.584H329.502V197.507H348.796V189.584Z" fill="white" stroke="#263238" stroke-linecap="round" stroke-linejoin="round"/>
<path d="M359.702 204.376H277.027" stroke="#263238" stroke-width="2" stroke-linecap="round" stroke-linejoin="round"/>
<path d="M240.084 204.376H148.465" stroke="#263238" stroke-width="2" stroke-linecap="round" stroke-linejoin="round"/>
<path d="M118.048 204.376H107.562" stroke="#263238" stroke-width="2" stroke-linecap="round" stroke-linejoin="round"/>
<path d="M326.171 189.713H307.943C306.223 189.713 304.65 190.685 303.88 192.224L300.832 198.32C300.222 199.54 301.109 200.975 302.473 200.975H326.171V189.713Z" fill="white" stroke="#263238" stroke-linecap="round" stroke-linejoin="round"/>
<path d="M326.171 189.713H311.481L313.088 200.975H326.171V189.713Z" fill="#263238" stroke="#263238" stroke-linecap="round" stroke-linejoin="round"/>
<path d="M355.883 189.713H351.435L351.376 200.975H357.49L355.883 189.713Z" fill="#263238" stroke="#263238" stroke-linecap="round" stroke-linejoin="round"/>
<path d="M157.615 173.051H148.025C147.442 173.051 146.969 173.523 146.969 174.106V181.896C146.969 182.479 147.442 182.951 148.025 182.951H157.615C158.197 182.951 158.67 182.479 158.67 181.896V174.106C158.67 173.523 158.197 173.051 157.615 173.051Z" fill="#263238" stroke="#263238" stroke-linecap="round" stroke-linejoin="round"/>
<path d="M214.473 182.951H203.223V187.452H214.473V182.951Z" fill="#263238" stroke="#263238" stroke-linecap="round" stroke-linejoin="round"/>
<path d="M217.173 181.151V215.353" stroke="#263238" stroke-linecap="round" stroke-linejoin="round"/>
<path d="M141.119 196.452C141.119 196.452 149.359 201.102 150.415 217.003H237.875" stroke="#263238" stroke-linecap="round" stroke-linejoin="round"/>
<path d="M279.277 203.202C279.277 203.202 274.969 191.952 260.544 191.952C250.49 191.952 245.682 197.232 243.275 201.402" stroke="#263238" stroke-linecap="round" stroke-linejoin="round"/>
<path d="M210.75 105.74C225.288 102.308 234.291 87.7411 230.859 73.2036C227.427 58.666 212.86 49.6631 198.322 53.0949C183.785 56.5268 174.782 71.0938 178.214 85.6313C181.646 100.169 196.213 109.172 210.75 105.74Z" fill="#263238" stroke="#263238" stroke-linecap="round" stroke-linejoin="round"/>
<path d="M210.75 103.859C225.288 100.427 234.291 85.86 230.859 71.3225C227.427 56.7849 212.86 47.782 198.322 51.2138C183.785 54.6457 174.782 69.2127 178.214 83.7502C181.646 98.2877 196.213 107.291 210.75 103.859Z" fill="#122450" stroke="#263238" stroke-linecap="round" stroke-linejoin="round"/>
<path d="M212.583 60.4882C211.354 59.8727 209.86 60.3699 209.244 61.5979C208.629 62.8263 209.126 64.3208 210.354 64.9361C215.063 67.2948 217.987 72.0288 217.987 77.2905C217.987 84.9043 211.793 91.0985 204.179 91.0985C196.566 91.0985 190.371 84.9043 190.371 77.2905C190.371 75.7145 190.64 74.1617 191.157 72.6949L193.91 75.5925L197.846 62.2717L184.341 65.5223L187.435 68.778C186.099 71.4039 185.397 74.3178 185.397 77.2905C185.397 87.6473 193.823 96.0734 204.179 96.0734C214.536 96.0734 222.962 87.6473 222.962 77.2905C222.962 70.1339 218.985 63.6957 212.583 60.4882Z" fill="#263238"/>
<path d="M204.563 80.4536C204.571 80.4536 204.578 80.4525 204.585 80.4525L206.884 87.1083C207.021 87.5043 207.392 87.7528 207.789 87.7528C207.892 87.7528 207.997 87.736 208.101 87.7001C208.6 87.5276 208.865 86.9829 208.693 86.4835L206.392 79.8246C207.099 79.2765 207.557 78.4217 207.557 77.46C207.557 76.9141 207.408 76.4035 207.151 75.9623L211.393 71.1316C211.742 70.7345 211.702 70.13 211.305 69.7815C210.908 69.4325 210.304 69.4719 209.955 69.8691L205.716 74.6977C205.361 74.5491 204.972 74.4664 204.563 74.4664C202.913 74.4664 201.57 75.8093 201.57 77.46C201.57 79.1108 202.913 80.4536 204.563 80.4536Z" fill="#263238"/>
<path d="M269.792 62.4089C268.665 61.7804 267.275 62.1177 266.693 63.1607L265.783 64.7915C265.201 65.8346 265.645 67.1946 266.772 67.8231C267.899 68.4517 269.289 68.1144 269.871 67.0713L270.78 65.4406C271.362 64.3975 270.919 63.0375 269.792 62.4089ZM267.85 63.8063C268.103 63.354 268.705 63.2077 269.194 63.4803C269.683 63.7529 269.875 64.3426 269.623 64.795L268.713 66.4257C268.461 66.8781 267.858 67.0243 267.369 66.7517C266.881 66.4792 266.688 65.8894 266.941 65.4371L267.85 63.8063Z" fill="white" stroke="#263238" stroke-linecap="round" stroke-linejoin="round"/>
<path d="M277.582 70.8838L260.286 60.0982C256.893 57.9822 252.415 59.2429 250.624 62.8185L239.754 84.5208C238.184 87.6543 239.258 91.4674 242.231 93.3218L255.693 101.716C258.667 103.571 262.563 102.857 264.686 100.069L279.391 80.7574C281.814 77.5757 280.976 72.9999 277.582 70.8838ZM254.747 65.6849C256.437 64.0491 258.912 63.5811 260.813 64.7663L273.159 72.4652C275.06 73.6503 275.729 76.0793 275.003 78.3167L254.747 65.6849Z" fill="#263238" stroke="#263238" stroke-linecap="round" stroke-linejoin="round"/>
<path d="M244.536 94.7585L230.392 117.44L230.613 121.106L228.882 123.882L225.684 125.301L224.398 127.363L225.014 128.849L223.926 130.593L221.945 131.12L220.511 133.42L220.425 137.587L222.334 138.777L248.314 97.1146L244.536 94.7585Z" fill="white" stroke="#263238" stroke-linecap="round" stroke-linejoin="round"/>
<path d="M252.092 99.4708L237.948 122.152L234.559 123.567L232.828 126.342L232.96 129.839L231.675 131.901L230.07 132.002L228.982 133.746L229.38 135.757L227.946 138.056L224.242 139.967L222.334 138.777L248.314 97.1147L252.092 99.4708Z" fill="white" stroke="#263238" stroke-linecap="round" stroke-linejoin="round"/>
<path d="M252.171 55.6274C252.148 56.7447 252.971 57.6709 254.005 57.692L255.622 57.7251C256.656 57.7462 257.516 56.8544 257.539 55.7372C257.562 54.6199 256.739 53.6937 255.705 53.6726L254.088 53.6395C253.054 53.6184 252.194 54.5102 252.171 55.6274ZM254.029 56.5444C253.58 56.5353 253.224 56.1337 253.233 55.6491C253.243 55.1646 253.616 54.7779 254.065 54.7871L255.681 54.8201C256.13 54.8293 256.487 55.2309 256.477 55.7155C256.467 56.1999 256.094 56.5867 255.646 56.5775L254.029 56.5444Z" fill="white" stroke="#263238" stroke-linecap="round" stroke-linejoin="round"/>
<path d="M258.262 55.2842C257.877 56.3333 258.354 57.4767 259.325 57.833L260.843 58.3901C261.814 58.7464 262.917 58.1827 263.302 57.1336C263.687 56.0846 263.211 54.9411 262.239 54.5848L260.721 54.0278C259.75 53.6715 258.647 54.2351 258.262 55.2842ZM259.72 56.7555C259.299 56.601 259.093 56.1051 259.259 55.6502C259.426 55.1952 259.905 54.9508 260.326 55.1053L261.844 55.6624C262.265 55.8169 262.472 56.3127 262.305 56.7677C262.138 57.2226 261.66 57.467 261.239 57.3125L259.72 56.7555Z" fill="white" stroke="#263238" stroke-linecap="round" stroke-linejoin="round"/>
<path d="M263.673 57.4815C262.818 58.2005 262.663 59.4297 263.329 60.2215L264.369 61.4595C265.034 62.2513 266.272 62.3106 267.127 61.5916C267.983 60.8727 268.137 59.6435 267.472 58.8516L266.432 57.6136C265.766 56.8218 264.529 56.7626 263.673 57.4815ZM264.207 59.483C263.919 59.1396 263.986 58.6066 264.357 58.2948C264.728 57.9831 265.264 58.0088 265.553 58.3521L266.593 59.5901C266.882 59.9335 266.815 60.4665 266.444 60.7783C266.073 61.0901 265.536 61.0644 265.248 60.721L264.207 59.483Z" fill="white" stroke="#263238" stroke-linecap="round" stroke-linejoin="round"/>
<path d="M246.217 55.5056C246.194 56.6229 247.016 57.549 248.051 57.5702L249.667 57.6032C250.702 57.6244 251.561 56.7326 251.584 55.6153C251.607 54.4981 250.784 53.5719 249.75 53.5507L248.133 53.5177C247.099 53.4965 246.239 54.3883 246.217 55.5056ZM248.074 56.4226C247.626 56.4134 247.269 56.0118 247.279 55.5273C247.289 55.0428 247.662 54.6561 248.11 54.6653L249.727 54.6983C250.175 54.7075 250.532 55.1091 250.522 55.5936C250.512 56.0781 250.139 56.4648 249.691 56.4557L248.074 56.4226Z" fill="white" stroke="#263238" stroke-linecap="round" stroke-linejoin="round"/>
<path d="M251.902 56.1959L254.032 56.2395C254.325 56.2455 254.568 55.9935 254.575 55.6766C254.581 55.3597 254.349 55.0979 254.055 55.0919L251.925 55.0483L251.807 55.046L249.72 55.0033C249.426 54.9973 249.183 55.2493 249.177 55.5662C249.17 55.8831 249.403 56.1448 249.696 56.1509L251.784 56.1935L251.902 56.1959Z" fill="white" stroke="#263238" stroke-linecap="round" stroke-linejoin="round"/>
<path d="M257.998 56.3212L260.129 56.3647C260.422 56.3707 260.665 56.1187 260.671 55.8018C260.678 55.4849 260.445 55.2231 260.152 55.2172L258.022 55.1736L257.904 55.1712L255.816 55.1285C255.523 55.1225 255.28 55.3745 255.274 55.6914C255.267 56.0083 255.5 56.2701 255.793 56.2761L257.88 56.3187L257.998 56.3212Z" fill="white" stroke="#263238" stroke-linecap="round" stroke-linejoin="round"/>
<path d="M263.056 57.9932L264.708 59.3383C264.936 59.5235 265.283 59.4744 265.483 59.2286C265.683 58.9827 265.661 58.6333 265.433 58.4481L263.781 57.1031L263.689 57.0286L262.07 55.7104C261.842 55.5252 261.496 55.5743 261.296 55.8201C261.095 56.0659 261.118 56.4153 261.345 56.6006L262.965 57.9187L263.056 57.9932Z" fill="white" stroke="#263238" stroke-linecap="round" stroke-linejoin="round"/>
<path d="M266.965 62.1482L268.311 63.8001C268.496 64.0276 268.845 64.0497 269.091 63.8496C269.337 63.6494 269.386 63.3027 269.201 63.0753L267.855 61.4233L267.78 61.3318L266.462 59.7128C266.277 59.4853 265.927 59.4632 265.681 59.6634C265.436 59.8635 265.387 60.2102 265.572 60.4377L266.89 62.0566L266.965 62.1482Z" fill="white" stroke="#263238" stroke-linecap="round" stroke-linejoin="round"/>
<path d="M240.357 56.2573C240.48 57.368 241.416 58.1794 242.444 58.0659L244.051 57.8886C245.079 57.7751 245.816 56.7791 245.693 55.6684C245.571 54.5577 244.635 53.7462 243.607 53.8597L241.999 54.0371C240.971 54.1505 240.234 55.1465 240.357 56.2573ZM242.318 56.9251C241.872 56.9743 241.466 56.6224 241.413 56.1407C241.36 55.6591 241.679 55.2271 242.125 55.178L243.732 55.0006C244.178 54.9514 244.584 55.3032 244.637 55.7849C244.691 56.2666 244.371 56.6985 243.925 56.7477L242.318 56.9251Z" fill="white" stroke="#263238" stroke-linecap="round" stroke-linejoin="round"/>
<path d="M245.84 55.0748L243.765 55.3039C243.473 55.3361 243.265 55.6175 243.3 55.9326C243.335 56.2476 243.599 56.4769 243.891 56.4447L245.966 56.2157L246.084 56.2028L248.201 55.9691C248.493 55.9369 248.701 55.6554 248.666 55.3404C248.632 55.0253 248.367 54.796 248.076 54.8282L245.958 55.0619L245.84 55.0748Z" fill="white" stroke="#263238" stroke-linecap="round" stroke-linejoin="round"/>
<path d="M234.699 58.1536C235.009 59.2272 236.07 59.867 237.064 59.5798L238.617 59.1309C239.611 58.8437 240.167 57.7367 239.857 56.6631C239.547 55.5895 238.486 54.9497 237.492 55.2369L235.939 55.6859C234.945 55.973 234.389 57.0801 234.699 58.1536ZM236.745 58.4771C236.314 58.6017 235.854 58.3242 235.72 57.8587C235.585 57.3931 235.826 56.9131 236.257 56.7885L237.811 56.3396C238.242 56.2151 238.702 56.4925 238.836 56.958C238.971 57.4236 238.73 57.9037 238.299 58.0282L236.745 58.4771Z" fill="white" stroke="#263238" stroke-linecap="round" stroke-linejoin="round"/>
<path d="M240.333 57.1229L242.379 56.5314C242.661 56.45 242.818 56.1371 242.73 55.8326C242.642 55.528 242.343 55.3472 242.061 55.4287L240.014 56.0202L239.9 56.053L237.895 56.6327C237.613 56.7141 237.456 57.027 237.544 57.3315C237.632 57.636 237.931 57.8168 238.213 57.7353L240.219 57.1557L240.333 57.1229Z" fill="white" stroke="#263238" stroke-linecap="round" stroke-linejoin="round"/>
<path d="M229.077 60.1472C229.438 61.2047 230.528 61.7934 231.507 61.4593L233.037 60.937C234.016 60.6029 234.519 59.4707 234.158 58.4131C233.797 57.3555 232.707 56.7669 231.728 57.1009L230.198 57.6232C229.219 57.9573 228.716 59.0896 229.077 60.1472ZM231.136 60.3731C230.712 60.5179 230.239 60.2626 230.082 59.804C229.926 59.3454 230.144 58.8544 230.568 58.7095L232.099 58.1872C232.523 58.0424 232.996 58.2976 233.153 58.7562C233.309 59.2149 233.091 59.7059 232.667 59.8507L231.136 60.3731Z" fill="white" stroke="#263238" stroke-linecap="round" stroke-linejoin="round"/>
<path d="M234.655 58.8499L236.672 58.1618C236.949 58.067 237.091 57.747 236.989 57.447C236.887 57.1471 236.578 56.9807 236.301 57.0754L234.284 57.7636L234.173 57.8017L232.197 58.4761C231.919 58.5709 231.777 58.8908 231.879 59.1908C231.982 59.4908 232.29 59.6571 232.567 59.5624L234.543 58.888L234.655 58.8499Z" fill="white" stroke="#263238" stroke-linecap="round" stroke-linejoin="round"/>
<path d="M228.983 60.7537L231 60.0655C231.277 59.9708 231.419 59.6508 231.317 59.3508C231.215 59.0509 230.907 58.8845 230.629 58.9793L228.613 59.6674L228.501 59.7055L226.525 60.3799C226.247 60.4746 226.105 60.7946 226.207 61.0946C226.31 61.3946 226.618 61.5609 226.895 61.4662L228.872 60.7918L228.983 60.7537Z" fill="white" stroke="#263238" stroke-linecap="round" stroke-linejoin="round"/>
<path d="M75.3324 139.128V142.988L75.8889 143.754L76.3062 143.023V139.128H75.3324Z" fill="white" stroke="#263238" stroke-linecap="round" stroke-linejoin="round"/>
<path d="M74.915 137.772L75.3324 139.128H76.341L76.8279 137.528L74.915 137.772Z" fill="white" stroke="#263238" stroke-linecap="round" stroke-linejoin="round"/>
<path d="M75.7623 137.832C76.8253 137.832 77.687 136.97 77.687 135.907C77.687 134.844 76.8253 133.983 75.7623 133.983C74.6993 133.983 73.8375 134.844 73.8375 135.907C73.8375 136.97 74.6993 137.832 75.7623 137.832Z" fill="#263238" stroke="#263238" stroke-linecap="round" stroke-linejoin="round"/>
<path d="M79.7562 127.896C79.7562 127.896 77.0493 126.842 76.4112 126.416C75.7732 125.991 74.7097 125.92 74.7097 126.345C74.7097 126.771 75.4896 127.267 76.1276 127.621C76.7657 127.976 79.1762 129.677 79.1762 129.677L80.0979 128.614L79.7562 127.896Z" fill="white" stroke="#263238" stroke-linecap="round" stroke-linejoin="round"/>
<path d="M83.5972 129.603C83.5972 129.603 80.1828 128.038 79.756 127.896C79.3292 127.754 75.7731 127.054 75.135 127.054C74.4969 127.054 74.426 127.763 74.7805 127.905C75.135 128.047 76.4111 128.331 76.6238 128.331C76.8365 128.331 79.3179 128.969 79.3179 128.969C79.3179 128.969 76.1984 130.954 75.9858 131.308C75.7731 131.663 75.2059 132.584 75.0641 133.152C74.9223 133.719 74.6387 134.073 75.2768 134.144C75.9148 134.215 76.9074 132.23 76.9074 132.23C76.9074 132.23 78.8925 131.237 79.247 131.237C79.6014 131.237 80.8067 132.443 81.0194 132.868C81.2321 133.293 79.1052 133.506 77.8999 133.931C76.6947 134.357 75.4895 134.286 75.2768 134.924C75.0641 135.562 76.1275 135.704 76.9074 135.562C77.6873 135.42 79.6015 135.42 79.6015 135.42C79.6015 135.42 81.2321 135.775 82.2246 135.349C83.2172 134.924 84.3515 134.286 84.3515 134.286L85.4612 135.919L87.4002 132.786L83.5972 129.603Z" fill="white" stroke="#263238" stroke-linecap="round" stroke-linejoin="round"/>
<path d="M87.4002 132.786L84.4648 137.433C84.4648 137.433 94.7384 151.131 95.4722 151.253C96.206 151.376 97.9183 150.887 97.9183 150.887L99.5082 126.548L95.5945 139.268L87.4002 132.786Z" fill="#8C8C8C" stroke="#263238" stroke-linecap="round" stroke-linejoin="round"/>
<path d="M99.6247 227.864C99.6247 227.864 97.6115 229.64 96.3088 230.351C95.0061 231.062 92.0455 232.246 92.1639 232.601C92.2823 232.956 93.2297 233.312 94.0587 233.312H101.52L103.178 232.72L104.243 232.127L104.362 233.312H107.204L107.086 228.219L99.6247 227.864Z" fill="#8C8C8C" stroke="#263238" stroke-linecap="round" stroke-linejoin="round"/>
<path d="M118.681 225.964C118.681 225.964 118.407 228.975 118.407 229.796C118.407 230.617 115.853 231.895 115.944 232.625L116.035 233.355H125.342C125.342 233.355 125.89 232.807 125.616 231.347C125.342 229.887 125.068 227.059 125.068 227.059L118.681 225.964Z" fill="#8C8C8C" stroke="#263238" stroke-linecap="round" stroke-linejoin="round"/>
<path d="M96.1904 162.967C96.1904 162.967 97.1045 188.129 97.1045 193.34C97.1045 198.551 97.73 218.035 97.73 219.93C97.73 221.825 97.6115 227.983 97.6115 227.983C97.6115 227.983 99.2695 228.22 101.283 228.456C103.296 228.693 107.086 228.22 107.086 228.22V220.996C107.086 219.456 109.217 190.797 109.217 190.797L109.336 182.625C109.336 182.625 112.415 197.429 112.77 199.916C113.125 202.403 117.626 227.746 117.626 227.746H125.56C125.56 227.746 125.679 210.811 125.797 206.666C125.915 202.521 126.152 188.547 126.152 187.836C126.152 187.126 125.998 171.537 125.998 171.537L125.442 161.546L96.6641 160.835L96.1904 162.967Z" fill="#263238" stroke="#263238" stroke-linecap="round" stroke-linejoin="round"/>
<path d="M109.336 182.625L106.967 175.046L104.599 174.099" stroke="#7D7D7D" stroke-linecap="round" stroke-linejoin="round"/>
<path d="M96.901 161.901C96.901 161.901 104.125 165.217 114.902 163.085C114.902 163.085 115.02 161.901 117.626 148.4C120.231 134.899 122.007 124.241 122.007 124.241C122.007 124.241 120.231 122.228 117.389 121.399C114.546 120.57 106.257 122.701 103.77 123.767C101.283 124.833 96.901 156.927 96.901 161.901Z" fill="#122450" stroke="#263238" stroke-linecap="round" stroke-linejoin="round"/>
<path d="M108.744 121.162C108.744 121.162 101.175 123.79 100.227 124.145C99.2801 124.5 98.8064 126.04 98.8064 126.04C98.8064 126.04 93.8219 160.835 93.8219 162.967C93.8219 165.098 93.4666 171.493 93.4666 171.493C93.4666 171.493 95.3614 173.507 96.6642 173.98C97.9668 174.454 99.3879 174.691 99.3879 174.691C99.3879 174.691 100.864 152.462 102.403 142.988C103.943 133.514 105.191 125.07 106.02 123.767C106.849 122.465 108.744 121.162 108.744 121.162Z" fill="#8C8C8C" stroke="#263238" stroke-linecap="round" stroke-linejoin="round"/>
<path d="M108.744 121.162C108.744 121.162 106.212 122.163 103.556 123.211L100.074 127.614L101.179 131.877L98.4948 134.088L101.963 146.446C102.094 145.163 102.24 143.994 102.403 142.988C103.943 133.514 105.191 125.07 106.02 123.767C106.849 122.465 108.744 121.162 108.744 121.162Z" fill="#8C8C8C" stroke="#263238" stroke-linecap="round" stroke-linejoin="round"/>
<path d="M108.744 120.096C108.744 120.096 105.783 122.938 105.428 123.886C105.072 124.833 105.783 136.913 106.257 137.386C106.73 137.86 117.862 124.715 118.455 123.294C119.047 121.872 119.165 121.399 118.81 120.57C118.455 119.741 118.218 119.267 118.218 119.267L108.744 120.096Z" fill="white" stroke="#263238" stroke-linecap="round" stroke-linejoin="round"/>
<path d="M105.428 128.623C105.783 128.623 109.809 125.544 109.809 125.544L112.533 130.518" fill="white"/>
<path d="M105.428 128.623C105.783 128.623 109.809 125.544 109.809 125.544L112.533 130.518" stroke="#263238" stroke-linecap="round" stroke-linejoin="round"/>
<path d="M118.81 120.57C118.81 120.57 111.346 134.128 109.688 141.352C108.03 148.576 111.277 173.204 112.105 174.98C112.934 176.757 123.235 175.959 123.235 175.959L129.468 174.691C129.468 174.691 127.402 166.469 126.66 162.016C125.803 156.879 125.07 152.774 125.07 150.642C125.07 148.51 129.705 128.031 129.113 126.491C128.521 124.952 118.81 120.57 118.81 120.57Z" fill="#8C8C8C" stroke="#263238" stroke-linecap="round" stroke-linejoin="round"/>
<path d="M121.476 121.824C119.952 121.085 118.81 120.57 118.81 120.57C118.81 120.57 111.346 134.128 109.689 141.352C109.15 143.698 109.325 144.63 109.243 148.34L119.968 137.403L116.021 133.614L120.758 131.877L121.476 121.824Z" fill="#8C8C8C" stroke="#263238" stroke-linecap="round" stroke-linejoin="round"/>
<path d="M118.81 114.649C118.81 114.649 118.336 119.859 117.744 120.807C117.152 121.754 111.349 125.307 110.402 125.307C109.454 125.307 108.862 124.004 108.507 122.583C108.247 121.546 108.556 119.94 108.742 119.148C108.81 118.856 108.862 118.675 108.862 118.675L118.81 114.649Z" fill="white" stroke="#263238" stroke-linecap="round" stroke-linejoin="round"/>
<path d="M114.268 118.941L108.481 122.182L108.742 119.148L114.268 118.941Z" fill="#263238" stroke="#263238" stroke-linecap="round" stroke-linejoin="round"/>
<path d="M113.362 98.3059C113.362 98.3059 108.481 97.0285 106.861 102.738C106.44 104.221 106.611 107.128 106.438 108.732C106.308 109.943 105.831 111.012 106.029 111.803C106.438 113.441 107.192 117.946 108.139 118.893C109.087 119.841 110.396 119.851 111.823 119.741C113.362 119.623 117.507 117.136 118.573 116.425C119.639 115.715 119.977 113.463 119.977 113.463C119.977 113.463 121.771 111.807 122.955 110.741C124.139 109.675 124.731 105.056 123.784 102.451C122.836 99.8455 117.389 97.7138 113.362 98.3059Z" fill="white" stroke="#263238" stroke-linecap="round" stroke-linejoin="round"/>
<path d="M109.112 113.813C109.112 113.813 111.706 114.462 113.111 113.381" stroke="#263238" stroke-linecap="round" stroke-linejoin="round"/>
<path d="M108.472 110.088C108.472 110.088 108.037 111.131 108.298 111.392C108.559 111.653 109.341 112.261 109.862 112.261C110.384 112.261 110.992 111.653 110.992 111.653" stroke="#263238" stroke-linecap="round" stroke-linejoin="round"/>
<path d="M124.015 103.112L124.029 103.112C124.029 103.112 123.887 102.552 123.465 101.789C122.931 100.736 122.219 99.8537 121.362 99.3575C121.349 99.3483 121.339 99.3385 121.326 99.3292C119.164 97.7079 113.436 97.1055 110.41 97.646C107.383 98.1865 108.481 99.8836 108.481 99.8836C108.481 99.8836 110.861 100.552 114.962 100.269C117.2 100.115 118.948 100.843 118.84 101.599C118.793 101.932 118.39 102.18 117.954 102.355C117.521 102.383 117.114 102.457 116.797 102.678L116.786 102.68L116.794 102.68C116.503 102.884 116.286 103.21 116.204 103.754C115.849 106.122 117.744 106.478 117.981 107.425C118.218 108.372 118.81 110.386 119.639 110.741C120.468 111.096 120.823 113.109 121.534 112.991C122.244 112.873 124.451 110.232 124.569 106.679C124.607 105.553 124.41 104.288 124.015 103.112Z" fill="#263238" stroke="#263238" stroke-linecap="round" stroke-linejoin="round"/>
<path d="M111.354 105.34C111.354 105.34 113.012 105.222 113.959 106.288" stroke="#263238" stroke-width="2" stroke-linecap="round" stroke-linejoin="round"/>
<path d="M109.098 105.207C109.098 105.207 108.269 104.852 107.085 105.444" stroke="#263238" stroke-width="2" stroke-linecap="round" stroke-linejoin="round"/>
<path d="M112.652 108.017C112.652 108.475 112.466 108.846 112.237 108.846C112.008 108.846 111.823 108.475 111.823 108.017C111.823 107.559 112.008 107.188 112.237 107.188C112.466 107.188 112.652 107.559 112.652 108.017Z" fill="#263238"/>
<path d="M108.211 107.543C108.211 108.001 108.025 108.372 107.796 108.372C107.567 108.372 107.382 108.001 107.382 107.543C107.382 107.086 107.567 106.714 107.796 106.714C108.025 106.714 108.211 107.086 108.211 107.543Z" fill="#263238"/>
<path d="M118.691 110.859C118.691 110.859 120.586 107.898 121.534 108.49C122.481 109.082 122.244 111.806 121.534 112.991C120.823 114.175 119.047 113.227 119.047 113.227" fill="white"/>
<path d="M118.691 110.859C118.691 110.859 120.586 107.898 121.534 108.49C122.481 109.082 122.244 111.806 121.534 112.991C120.823 114.175 119.047 113.227 119.047 113.227" stroke="#263238" stroke-linecap="round" stroke-linejoin="round"/>
<path d="M121.84 170.238L120.679 174.986C120.679 174.986 121.735 178.891 122.157 179.207C122.579 179.524 125.111 180.157 125.111 180.157C125.111 180.157 127.222 179.418 127.222 179.102C127.222 178.785 128.073 178.258 127.469 178.042C126.886 177.834 126.091 177.206 126.091 177.206L125.85 176.042C125.85 176.042 126.905 174.881 126.905 174.142C126.905 173.403 126.167 170.66 126.167 170.66L121.84 170.238Z" fill="white" stroke="#263238" stroke-linecap="round" stroke-linejoin="round"/>
<path d="M121.86 175.829C121.86 175.829 122.401 178.534 122.697 178.682C122.992 178.829 125.111 180.157 125.111 180.157" stroke="#263238" stroke-linecap="round" stroke-linejoin="round"/>
<path d="M123.235 175.959L124.074 178.338C124.074 178.338 126.042 179.666 126.19 179.666" stroke="#263238" stroke-linecap="round" stroke-linejoin="round"/>
<path d="M124.32 175.829L125.206 177.993L127.222 179.102" stroke="#263238" stroke-linecap="round" stroke-linejoin="round"/>
<path d="M124.343 126.281C124.343 126.281 121.735 131.123 122.108 132.241C122.48 133.358 123.039 149.19 123.039 149.19L120.99 171.355L126.905 171.926L131.234 148.445C131.234 148.445 130.303 128.888 130.303 127.584C130.303 126.281 128.627 125.536 127.323 125.163" fill="#8C8C8C"/>
<path d="M124.343 126.281C124.343 126.281 121.735 131.123 122.108 132.241C122.48 133.358 123.039 149.19 123.039 149.19L120.99 171.355L126.905 171.926L131.234 148.445C131.234 148.445 130.303 128.888 130.303 127.584C130.303 126.281 128.627 125.536 127.323 125.163" stroke="#263238" stroke-linecap="round" stroke-linejoin="round"/>
<path d="M69.3721 148.687C69.3721 148.687 70.081 147.127 70.5064 146.702C70.9318 146.277 72.5624 145.709 72.5624 145.709C72.5624 145.709 73.6258 145.142 74.0512 144.646C74.4766 144.15 75.4692 144.079 75.1855 144.93C74.902 145.78 74.1221 146.702 74.1221 146.702L77.7378 146.986C77.7378 146.986 79.1558 144.859 79.3685 145.426C79.5811 145.993 78.8722 149.183 78.5177 149.609C78.1632 150.034 74.3348 150.389 73.3422 150.885C72.3497 151.381 70.9318 151.098 70.9318 151.098L69.5138 152.09L68.025 149.822L69.3721 148.687Z" fill="#B2B2B2" stroke="#263238" stroke-linecap="round" stroke-linejoin="round"/>
<path d="M79.2267 146.205C79.2267 146.205 78.5886 143.724 78.0924 144.008C77.5961 144.291 78.1632 145.638 78.1632 145.638L78.4468 147.765L79.2267 147.978V146.205Z" fill="#B2B2B2" stroke="#263238" stroke-linecap="round" stroke-linejoin="round"/>
<path d="M79.4744 148.001C79.4744 148.001 80.0711 144.963 79.5039 144.608C78.9368 144.254 78.8013 144.858 78.8722 145.213C78.943 145.567 78.4468 147.765 78.4468 147.765L77.8796 148.829L79.1558 148.616L79.4744 148.001Z" fill="#B2B2B2" stroke="#263238" stroke-linecap="round" stroke-linejoin="round"/>
<path d="M71.6408 150.176C71.6408 150.176 73.555 148.829 73.7676 148.829H77.8797C78.2177 148.487 79.5549 146.957 80.0065 146.56C81.1587 145.548 81.07 146.773 80.5737 147.411C80.0929 148.029 79.4394 149.538 79.014 149.75C78.5886 149.963 73.3423 150.885 73.3423 150.885" fill="#B2B2B2"/>
<path d="M71.6408 150.176C71.6408 150.176 73.555 148.829 73.7676 148.829H77.8797C78.2177 148.487 79.5549 146.957 80.0065 146.56C81.1587 145.548 81.07 146.773 80.5737 147.411C80.0929 148.029 79.4394 149.538 79.014 149.75C78.5886 149.963 73.3423 150.885 73.3423 150.885" stroke="#263238" stroke-linecap="round" stroke-linejoin="round"/>
<path d="M55.2712 125.851C55.2712 125.851 56.8409 127.285 57.1295 128.439C57.4181 129.594 62.7977 148.628 62.7977 148.628L69.2907 147.473L70.8779 152.668L60.3448 157.718L55.2712 125.851Z" fill="white" stroke="#263238" stroke-linecap="round" stroke-linejoin="round"/>
<path d="M46.2663 218.595C46.2663 218.595 46.1042 222.001 45.6176 222.812C45.131 223.623 44.4822 225.082 44.3201 226.218C44.1579 227.353 44.3201 233.192 44.3201 233.192H46.1042L46.7529 230.759L48.537 230.921C48.537 230.921 49.8345 232.867 50.3211 232.867C50.8076 232.867 58.1062 233.192 58.1062 233.192V231.408C58.1062 231.408 51.943 226.542 51.4564 225.893C50.9699 225.245 50.8076 222.163 50.8076 220.865V218.919L46.2663 218.595Z" fill="white" stroke="#263238" stroke-linecap="round" stroke-linejoin="round"/>
<path d="M44.3201 233.192H46.1042L46.7529 230.759L48.537 230.921C48.537 230.921 49.8345 232.868 50.3211 232.868C50.8076 232.868 58.1062 233.192 58.1062 233.192V231.408C58.1062 231.408 51.943 226.542 51.4564 225.893C51.1216 225.447 50.9404 223.849 50.86 222.473C50.6804 222.463 50.497 222.509 50.3211 222.65C49.5102 223.298 49.5102 223.947 49.5102 223.947C49.5102 223.947 46.7529 222.65 45.6176 222.812C45.131 223.623 44.4822 225.082 44.3201 226.218C44.1579 227.353 44.3201 233.192 44.3201 233.192Z" fill="#263238" stroke="#263238" stroke-linecap="round" stroke-linejoin="round"/>
<path d="M45.131 181.777C45.131 181.777 47.4016 193.942 47.2395 195.888C47.0773 197.834 45.2931 218.432 45.2931 218.432C45.2931 218.432 47.8882 219.892 49.1857 219.892H52.5917C52.5917 219.892 58.1062 197.834 58.1062 195.564C58.1062 193.293 57.7818 179.831 57.7818 179.831L45.131 181.777Z" fill="#263238" stroke="#263238" stroke-linecap="round" stroke-linejoin="round"/>
<path d="M35.5617 218.271C35.5617 218.271 36.0483 221.839 35.5617 224.596C35.0752 227.353 35.5617 233.354 35.5617 233.354H45.131C45.131 233.354 45.9419 232.219 45.4553 230.597C44.9688 228.975 43.1847 227.678 42.5359 225.893C41.8872 224.109 40.7519 220.866 40.5896 218.595C40.4275 216.324 35.5617 218.271 35.5617 218.271Z" fill="white" stroke="#263238" stroke-linecap="round" stroke-linejoin="round"/>
<path d="M45.4553 230.597C44.9687 228.975 43.1846 227.678 42.5359 225.894C42.3687 225.434 42.1692 224.877 41.9624 224.265L41.8872 224.272C41.8872 224.272 40.4274 222.974 39.2921 223.947C38.1567 224.921 37.8323 226.056 37.8323 226.056L35.4147 225.87C35.1982 228.867 35.5617 233.354 35.5617 233.354H45.1309C45.1309 233.354 45.9419 232.219 45.4553 230.597Z" fill="#263238" stroke="#263238" stroke-linecap="round" stroke-linejoin="round"/>
<path d="M31.9936 181.453C31.9936 181.453 32.9667 193.78 32.3179 196.699C31.6692 199.618 31.9936 205.133 32.6423 207.566C33.2911 209.999 34.1021 218.757 34.1021 218.757C34.1021 218.757 36.6971 219.243 38.4812 219.243H41.2385C41.2385 219.243 42.3737 204.16 42.3737 199.618V181.615L31.9936 181.453Z" fill="#263238" stroke="#263238" stroke-linecap="round" stroke-linejoin="round"/>
<path d="M21.289 164.585L27.6144 138.959" stroke="#263238" stroke-width="2" stroke-linecap="round" stroke-linejoin="round"/>
<path d="M38.8056 122.74C38.8056 122.74 38.6049 122.859 38.2563 123.068C36.0595 124.387 29.1504 125.609 28.4506 127.148C27.6396 128.933 24.2084 183.075 24.2084 183.075C24.2084 183.075 32.9667 184.048 38.6433 184.048C44.32 184.048 56.3221 182.751 59.7281 182.102C63.1341 181.453 65.4048 180.642 65.4048 180.642C65.4048 180.642 56.2443 127.148 55.2712 125.851C54.298 124.553 46.888 121.633 46.888 121.633C46.888 121.633 41.2384 120.469 38.8056 122.74Z" fill="white" stroke="#263238" stroke-linecap="round" stroke-linejoin="round"/>
<path d="M45.9419 148.691L48.5369 183.562" stroke="#263238" stroke-linecap="round" stroke-linejoin="round"/>
<path d="M49.6723 122.578L51.6186 131.823L49.0236 133.283L51.6186 137.337L45.7797 149.177L38.1568 133.445L40.5896 131.661L37.3458 130.201L38.8056 122.74L43.6713 121.281L49.6723 122.578Z" fill="white" stroke="#263238" stroke-linecap="round" stroke-linejoin="round"/>
<path d="M40.103 124.038L45.7797 147.717L47.8882 123.713L42.8603 121.118L40.103 124.038Z" fill="#263238" stroke="#263238" stroke-linecap="round" stroke-linejoin="round"/>
<path d="M38.2379 123.794L36.1613 162.179L46.5009 162.787C46.5009 162.787 45.0499 141.798 44.5633 134.742C44.0767 127.687 43.8335 124.159 43.8335 124.159L38.2379 123.794Z" fill="#122450" stroke="#263238" stroke-linecap="round" stroke-linejoin="round"/>
<path d="M42.3445 93.7391C39.637 93.2877 36.8753 94.1672 34.8179 95.9843C33.2794 97.343 31.5147 99.3202 31.2985 101.38C30.9068 105.111 35.1872 106.036 37.6122 105.565C40.0372 105.093 46.5 101.678 47.2238 99.0965C47.9476 96.515 45.8952 94.4951 42.8038 93.827C42.6492 93.7936 42.4961 93.7644 42.3445 93.7391Z" fill="#263238" stroke="#263238" stroke-linecap="round" stroke-linejoin="round"/>
<path d="M48.7931 100.819C48.7931 100.819 43.9274 98.4597 40.195 100.268C36.4626 102.077 35.0128 104.846 35.5644 106.999C36.1161 109.152 38.5696 116.873 38.5696 116.873L38.1403 119.771L46.888 121.633L46.9156 119.591C46.9156 119.591 50.2313 119.177 50.8747 116.675C51.2069 115.383 52.3185 113.121 52.376 111.742C52.4475 110.027 51.4466 108.454 51.4466 108.454C51.4466 108.454 52.042 103.264 48.7931 100.819Z" fill="#B2B2B2" stroke="#263238" stroke-linecap="round" stroke-linejoin="round"/>
<path d="M48.7931 100.819C48.7931 100.819 43.9274 98.4597 40.195 100.268C36.4626 102.077 35.0128 104.846 35.5644 106.999C35.9623 108.552 37.4803 113.487 38.3513 115.18C38.5623 115.117 38.7601 115.001 38.9328 114.811C40.1302 113.493 40.1876 109.772 40.3075 109.217C40.4274 108.662 39.3197 107.261 39.7416 105.693C40.1635 104.125 41.4764 101.505 45.2724 100.832C47.8398 100.377 49.3058 101.315 49.9878 101.971C49.6624 101.572 49.2749 101.181 48.7931 100.819Z" fill="#263238" stroke="#263238" stroke-linecap="round" stroke-linejoin="round"/>
<path d="M41.1692 110.54C41.1692 110.54 39.5483 107.284 37.999 108.402C36.4499 109.52 38.2995 112.39 38.9036 112.956C39.5077 113.522 40.7492 112.483 40.7492 112.483" fill="#B2B2B2"/>
<path d="M41.1692 110.54C41.1692 110.54 39.5483 107.284 37.999 108.402C36.4499 109.52 38.2995 112.39 38.9036 112.956C39.5077 113.522 40.7492 112.483 40.7492 112.483" stroke="#263238" stroke-linecap="round" stroke-linejoin="round"/>
<path d="M47.05 108.888C47.0836 109.306 46.9168 109.661 46.6774 109.681C46.438 109.7 46.2168 109.376 46.1833 108.957C46.1498 108.538 46.3166 108.183 46.5559 108.164C46.7953 108.145 47.0165 108.469 47.05 108.888Z" fill="#263238"/>
<path d="M50.4457 108.954C50.4792 109.373 50.3124 109.728 50.073 109.748C49.8337 109.767 49.6125 109.443 49.579 109.024C49.5454 108.605 49.7123 108.25 49.9516 108.231C50.191 108.212 50.4122 108.536 50.4457 108.954Z" fill="#263238"/>
<path d="M49.2887 107.535C49.2887 107.535 48.7644 109.275 49.5972 110.567" stroke="#263238" stroke-linecap="round" stroke-linejoin="round"/>
<path d="M47.2817 106.56C47.2817 106.56 45.6794 105.399 44.4814 107.512" stroke="#263238" stroke-width="2" stroke-linecap="round" stroke-linejoin="round"/>
<path d="M49.4355 106.582C49.4355 106.582 50.5207 105.334 51.231 107.193" stroke="#263238" stroke-width="2" stroke-linecap="round" stroke-linejoin="round"/>
<path d="M50.08 111.533C49.937 111.891 49.508 112.177 48.7216 112.248C47.9352 112.32 46.7914 112.177 46.9344 111.819" stroke="#263238" stroke-linecap="round" stroke-linejoin="round"/>
<path d="M49.3734 114.173C49.3734 114.173 46.8711 115.389 45.4413 113.172" stroke="#263238" stroke-linecap="round" stroke-linejoin="round"/>
<path d="M37.8198 122.488L36.0888 140.47L43.5896 141.432L43.8334 124.159L37.8198 122.488Z" fill="#122450" stroke="#263238" stroke-linecap="round" stroke-linejoin="round"/>
<path d="M37.17 120.769C37.17 120.769 36.3085 123.134 37.2816 123.742C38.2548 124.35 45.3923 125.46 47.5853 125.46C50.6978 125.46 49.4212 124.214 49.6723 122.578C50.0539 120.093 48.7974 120.236 48.0675 120.115C47.3376 119.993 38.6264 118.474 38.1508 118.371C37.6752 118.268 37.17 118.916 37.17 120.769Z" fill="#122450" stroke="#263238" stroke-linecap="round" stroke-linejoin="round"/>
<path d="M33.9327 129.432C33.9327 129.432 36.5349 149.339 36.8593 152.259C37.1836 155.178 36.2105 165.721 36.2105 165.721" stroke="#263238" stroke-width="2" stroke-linejoin="round"/>
<path d="M33.7776 151.935L35.7239 149.178L38.8055 149.015C38.8055 149.015 39.9408 149.502 39.9408 149.989C39.9408 150.475 39.4543 151.124 39.4543 151.124C39.4543 151.124 40.4274 154.368 39.4543 155.179C38.4811 155.99 37.3458 156.801 35.5617 157.287C33.7776 157.774 32.4801 157.774 32.4801 157.774L31.8313 152.584L33.7776 151.935Z" fill="#B2B2B2" stroke="#263238" stroke-linecap="round" stroke-linejoin="round"/>
<path d="M30.3968 125.851C29.7481 126.013 27.6396 127.149 26.6664 128.446C25.6933 129.744 17.3964 155.503 16.9098 157.449C16.4233 159.395 18.3696 161.18 21.7755 161.18C25.1815 161.18 33.291 159.558 33.291 159.558L33.7776 151.935L27.9388 152.097L31.1826 141.392" fill="white"/>
<path d="M30.3968 125.851C29.7481 126.013 27.6396 127.149 26.6664 128.446C25.6933 129.744 17.3964 155.503 16.9098 157.449C16.4233 159.395 18.3696 161.18 21.7755 161.18C25.1815 161.18 33.291 159.558 33.291 159.558L33.7776 151.935L27.9388 152.097L31.1826 141.392" stroke="#263238" stroke-linecap="round" stroke-linejoin="round"/>
<path d="M27.9387 152.097L22.2621 152.259" stroke="#263238" stroke-linecap="round" stroke-linejoin="round"/>
<path d="M20.1537 163.45L36.3727 164.423C36.3727 164.423 37.0215 179.993 37.1836 182.588C37.3459 185.183 36.3727 185.994 33.9399 186.643C31.507 187.292 20.8025 185.994 18.8561 184.859C16.9099 183.724 20.1537 163.45 20.1537 163.45Z" fill="#8C8C8C" stroke="#263238" stroke-linecap="round" stroke-linejoin="round"/>
<path d="M20.1536 163.45C20.1536 163.45 20.1536 173.83 24.8572 174.803C29.5607 175.776 33.9399 164.585 33.9399 164.585L20.1536 163.45Z" fill="#8C8C8C" stroke="#263238" stroke-linecap="round" stroke-linejoin="round"/>
<path d="M37.1836 182.588C37.0214 179.993 36.3727 164.423 36.3727 164.423L32.8915 164.214L32.8045 164.423C32.8045 164.423 30.696 184.697 31.3448 185.67C31.9935 186.643 31.9935 186.319 33.9399 186.643C36.3727 185.994 37.3458 185.183 37.1836 182.588Z" fill="#8C8C8C" stroke="#263238" stroke-linecap="round" stroke-linejoin="round"/>
</svg>
