<svg width="391" height="263" viewBox="0 0 391 263" fill="none" xmlns="http://www.w3.org/2000/svg">
<path d="M73.6818 79.2536C76.5844 77.6703 77.9038 78.9897 78.9685 77.6703C80.0331 76.3509 76.0567 72.9114 83.9822 69.481C83.9822 69.481 84.5099 62.0833 95.3471 61.8194C106.184 61.5556 103.236 69.1807 106.175 71.0643C109.114 72.9478 109.879 70.0088 112.781 71.8559C115.684 73.7031 114.374 77.4065 116.749 77.9342C119.123 78.462 122.299 75.5593 125.202 77.4065C128.104 79.2536 128.114 80.8369 129.433 80.8369C130.752 80.8369 133.391 79.7814 134.983 80.8369C136.576 81.8924 138.414 83.2209 138.414 83.2209H71.5708C71.5708 83.2209 70.77 80.8005 73.6818 79.2536Z" fill="white" stroke="#263238" stroke-miterlimit="10"/>
<path d="M238.269 102.002C239.589 101.283 240.189 101.883 240.662 101.283C241.135 100.682 239.343 99.1263 242.946 97.5704C242.946 97.5704 243.183 94.2036 248.105 94.0853C253.028 93.9671 251.7 97.443 253.019 98.2892C254.338 99.1354 254.693 97.8069 256.013 98.6441C257.332 99.4812 256.741 101.165 257.833 101.374C258.924 101.583 260.353 100.3 261.672 101.137C262.992 101.974 262.992 102.693 263.592 102.693C264.193 102.693 265.412 102.22 266.113 102.693C266.813 103.166 267.669 103.776 267.669 103.776H237.323C237.245 103.416 237.298 103.04 237.471 102.715C237.644 102.391 237.927 102.138 238.269 102.002Z" fill="white" stroke="#263238" stroke-miterlimit="10"/>
<path d="M213.683 25.568C215.503 24.5853 216.322 25.4042 216.986 24.5853C217.65 23.7664 215.166 21.6098 220.116 19.4715C220.116 19.4715 220.444 14.8491 227.204 14.6853C233.965 14.5215 232.154 19.3077 233.974 20.4542C235.794 21.6008 236.276 19.7991 238.096 20.9547C239.916 22.1103 239.079 24.4124 240.571 24.7491C242.063 25.0858 244.029 23.2659 245.84 24.4124C247.65 25.5589 247.659 26.5598 248.478 26.5598C249.297 26.5598 250.953 25.8956 251.945 26.5598C252.937 27.2241 254.093 28.043 254.093 28.043H212.363C212.248 27.5407 212.318 27.0137 212.561 26.559C212.803 26.1042 213.202 25.7523 213.683 25.568Z" fill="white" stroke="#263238" stroke-miterlimit="10"/>
<path d="M330.936 116.288H338.361V123.767H330.936V116.288Z" stroke="#263238" stroke-miterlimit="10"/>
<path d="M343.365 120.81H346.377V123.758H343.365V120.81Z" stroke="#263238" stroke-miterlimit="10"/>
<path d="M41.4887 163.513H69.6236V104.167H67.74V98.0162H133.646V104.167H131.362V192.421H148.651V3.07458H207.932V146.269H229.597V130.419H223.929V123.712H271.318V27.6426H268.251V22.6198H325.786V27.6426H321.655V123.876H367.124V192.694H391" stroke="#263238" stroke-miterlimit="10"/>
<path d="M146.294 1H210.571V3.05643H146.294V1Z" stroke="#263238" stroke-miterlimit="10"/>
<path d="M309.271 33.2295H316.514V40.9821H309.271V33.2295Z" stroke="#263238" stroke-miterlimit="10"/>
<path d="M298.652 33.2295H305.895V40.9821H298.652V33.2295Z" stroke="#263238" stroke-miterlimit="10"/>
<path d="M288.033 33.2295H295.276V40.9821H288.033V33.2295Z" stroke="#263238" stroke-miterlimit="10"/>
<path d="M277.405 33.2295H284.648V40.9821H277.405V33.2295Z" stroke="#263238" stroke-miterlimit="10"/>
<path d="M309.271 45.5227H316.514V53.2753H309.271V45.5227Z" stroke="#263238" stroke-miterlimit="10"/>
<path d="M298.652 45.5227H305.895V53.2753H298.652V45.5227Z" stroke="#263238" stroke-miterlimit="10"/>
<path d="M288.033 45.5227H295.276V53.2753H288.033V45.5227Z" stroke="#263238" stroke-miterlimit="10"/>
<path d="M277.405 45.5227H284.648V53.2753H277.405V45.5227Z" stroke="#263238" stroke-miterlimit="10"/>
<path d="M309.271 57.8066H316.514V65.5592H309.271V57.8066Z" stroke="#263238" stroke-miterlimit="10"/>
<path d="M298.652 57.8066H305.895V65.5592H298.652V57.8066Z" stroke="#263238" stroke-miterlimit="10"/>
<path d="M288.033 57.8066H295.276V65.5592H288.033V57.8066Z" stroke="#263238" stroke-miterlimit="10"/>
<path d="M277.405 57.8066H284.648V65.5592H277.405V57.8066Z" stroke="#263238" stroke-miterlimit="10"/>
<path d="M309.271 70.0906H316.514V77.8431H309.271V70.0906Z" stroke="#263238" stroke-miterlimit="10"/>
<path d="M298.652 70.0906H305.895V77.8431H298.652V70.0906Z" stroke="#263238" stroke-miterlimit="10"/>
<path d="M288.033 70.0906H295.276V77.8431H288.033V70.0906Z" stroke="#263238" stroke-miterlimit="10"/>
<path d="M277.405 70.0906H284.648V77.8431H277.405V70.0906Z" stroke="#263238" stroke-miterlimit="10"/>
<path d="M309.271 82.3837H316.514V90.1362H309.271V82.3837Z" stroke="#263238" stroke-miterlimit="10"/>
<path d="M298.652 82.3837H305.895V90.1362H298.652V82.3837Z" stroke="#263238" stroke-miterlimit="10"/>
<path d="M288.033 82.3837H295.276V90.1362H288.033V82.3837Z" stroke="#263238" stroke-miterlimit="10"/>
<path d="M277.405 82.3837H284.648V90.1362H277.405V82.3837Z" stroke="#263238" stroke-miterlimit="10"/>
<path d="M309.271 94.6677H316.514V102.42H309.271V94.6677Z" stroke="#263238" stroke-miterlimit="10"/>
<path d="M298.652 94.6677H305.895V102.42H298.652V94.6677Z" stroke="#263238" stroke-miterlimit="10"/>
<path d="M288.033 94.6677H295.276V102.42H288.033V94.6677Z" stroke="#263238" stroke-miterlimit="10"/>
<path d="M277.405 94.6677H284.648V102.42H277.405V94.6677Z" stroke="#263238" stroke-miterlimit="10"/>
<path d="M309.271 106.961H316.514V114.713H309.271V106.961Z" stroke="#263238" stroke-miterlimit="10"/>
<path d="M298.652 106.961H305.895V114.713H298.652V106.961Z" stroke="#263238" stroke-miterlimit="10"/>
<path d="M288.033 106.961H295.276V114.713H288.033V106.961Z" stroke="#263238" stroke-miterlimit="10"/>
<path d="M277.405 106.961H284.648V114.713H277.405V106.961Z" stroke="#263238" stroke-miterlimit="10"/>
<path d="M309.271 119.245H316.514V126.997H309.271V119.245Z" stroke="#263238" stroke-miterlimit="10"/>
<path d="M298.652 119.245H305.895V126.997H298.652V119.245Z" stroke="#263238" stroke-miterlimit="10"/>
<path d="M288.033 119.245H295.276V126.997H288.033V119.245Z" stroke="#263238" stroke-miterlimit="10"/>
<path d="M277.405 119.245H284.648V126.997H277.405V119.245Z" stroke="#263238" stroke-miterlimit="10"/>
<path d="M309.271 130.482H316.514V138.235H309.271V130.482Z" stroke="#263238" stroke-miterlimit="10"/>
<path d="M298.652 130.482H305.895V138.235H298.652V130.482Z" stroke="#263238" stroke-miterlimit="10"/>
<path d="M288.033 130.482H295.276V138.235H288.033V130.482Z" stroke="#263238" stroke-miterlimit="10"/>
<path d="M277.405 130.482H284.648V138.235H277.405V130.482Z" stroke="#263238" stroke-miterlimit="10"/>
<path d="M309.271 142.775H316.514V150.528H309.271V142.775Z" stroke="#263238" stroke-miterlimit="10"/>
<path d="M298.652 142.775H305.895V150.528H298.652V142.775Z" stroke="#263238" stroke-miterlimit="10"/>
<path d="M288.033 142.775H295.276V150.528H288.033V142.775Z" stroke="#263238" stroke-miterlimit="10"/>
<path d="M277.405 142.775H284.648V150.528H277.405V142.775Z" stroke="#263238" stroke-miterlimit="10"/>
<path d="M309.271 155.059H316.514V162.812H309.271V155.059Z" stroke="#263238" stroke-miterlimit="10"/>
<path d="M298.652 155.059H305.895V162.812H298.652V155.059Z" stroke="#263238" stroke-miterlimit="10"/>
<path d="M288.033 155.059H295.276V162.812H288.033V155.059Z" stroke="#263238" stroke-miterlimit="10"/>
<path d="M277.405 155.059H284.648V162.812H277.405V155.059Z" stroke="#263238" stroke-miterlimit="10"/>
<path d="M309.271 167.344H316.514V175.096H309.271V167.344Z" stroke="#263238" stroke-miterlimit="10"/>
<path d="M298.652 167.344H305.895V175.096H298.652V167.344Z" stroke="#263238" stroke-miterlimit="10"/>
<path d="M288.033 167.344H295.276V175.096H288.033V167.344Z" stroke="#263238" stroke-miterlimit="10"/>
<path d="M277.405 167.344H284.648V175.096H277.405V167.344Z" stroke="#263238" stroke-miterlimit="10"/>
<path d="M309.271 179.636H316.514V187.389H309.271V179.636Z" stroke="#263238" stroke-miterlimit="10"/>
<path d="M298.652 179.636H305.895V187.389H298.652V179.636Z" stroke="#263238" stroke-miterlimit="10"/>
<path d="M288.033 179.636H295.276V187.389H288.033V179.636Z" stroke="#263238" stroke-miterlimit="10"/>
<path d="M277.405 179.636H284.648V187.389H277.405V179.636Z" stroke="#263238" stroke-miterlimit="10"/>
<path d="M309.271 191.921H316.514V199.673H309.271V191.921Z" stroke="#263238" stroke-miterlimit="10"/>
<path d="M298.652 191.921H305.895V199.673H298.652V191.921Z" stroke="#263238" stroke-miterlimit="10"/>
<path d="M288.033 191.921H295.276V199.673H288.033V191.921Z" stroke="#263238" stroke-miterlimit="10"/>
<path d="M277.405 191.921H284.648V199.673H277.405V191.921Z" stroke="#263238" stroke-miterlimit="10"/>
<path d="M309.271 204.214H316.514V211.966H309.271V204.214Z" stroke="#263238" stroke-miterlimit="10"/>
<path d="M298.652 204.214H305.895V211.966H298.652V204.214Z" stroke="#263238" stroke-miterlimit="10"/>
<path d="M288.033 204.214H295.276V211.966H288.033V204.214Z" stroke="#263238" stroke-miterlimit="10"/>
<path d="M277.405 204.214H284.648V211.966H277.405V204.214Z" stroke="#263238" stroke-miterlimit="10"/>
<path d="M309.271 216.498H316.514V224.25H309.271V216.498Z" stroke="#263238" stroke-miterlimit="10"/>
<path d="M298.652 216.498H305.895V224.25H298.652V216.498Z" stroke="#263238" stroke-miterlimit="10"/>
<path d="M288.033 216.498H295.276V224.25H288.033V216.498Z" stroke="#263238" stroke-miterlimit="10"/>
<path d="M277.405 216.498H284.648V224.25H277.405V216.498Z" stroke="#263238" stroke-miterlimit="10"/>
<path d="M267.787 130.482H275.03V138.235H267.787V130.482Z" stroke="#263238" stroke-miterlimit="10"/>
<path d="M257.168 130.482H264.411V138.235H257.168V130.482Z" stroke="#263238" stroke-miterlimit="10"/>
<path d="M246.549 130.482H253.792V138.235H246.549V130.482Z" stroke="#263238" stroke-miterlimit="10"/>
<path d="M235.931 130.482H243.174V138.235H235.931V130.482Z" stroke="#263238" stroke-miterlimit="10"/>
<path d="M267.787 142.775H275.03V150.528H267.787V142.775Z" stroke="#263238" stroke-miterlimit="10"/>
<path d="M257.168 142.775H264.411V150.528H257.168V142.775Z" stroke="#263238" stroke-miterlimit="10"/>
<path d="M246.549 142.775H253.792V150.528H246.549V142.775Z" stroke="#263238" stroke-miterlimit="10"/>
<path d="M235.931 142.775H243.174V150.528H235.931V142.775Z" stroke="#263238" stroke-miterlimit="10"/>
<path d="M267.787 155.059H275.03V162.812H267.787V155.059Z" stroke="#263238" stroke-miterlimit="10"/>
<path d="M257.168 155.059H264.411V162.812H257.168V155.059Z" stroke="#263238" stroke-miterlimit="10"/>
<path d="M246.549 155.059H253.792V162.812H246.549V155.059Z" stroke="#263238" stroke-miterlimit="10"/>
<path d="M235.931 155.059H243.174V162.812H235.931V155.059Z" stroke="#263238" stroke-miterlimit="10"/>
<path d="M267.787 167.344H275.03V175.096H267.787V167.344Z" stroke="#263238" stroke-miterlimit="10"/>
<path d="M257.168 167.344H264.411V175.096H257.168V167.344Z" stroke="#263238" stroke-miterlimit="10"/>
<path d="M246.549 167.344H253.792V175.096H246.549V167.344Z" stroke="#263238" stroke-miterlimit="10"/>
<path d="M235.931 167.344H243.174V175.096H235.931V167.344Z" stroke="#263238" stroke-miterlimit="10"/>
<path d="M267.787 179.636H275.03V187.389H267.787V179.636Z" stroke="#263238" stroke-miterlimit="10"/>
<path d="M257.168 179.636H264.411V187.389H257.168V179.636Z" stroke="#263238" stroke-miterlimit="10"/>
<path d="M246.549 179.636H253.792V187.389H246.549V179.636Z" stroke="#263238" stroke-miterlimit="10"/>
<path d="M235.931 179.636H243.174V187.389H235.931V179.636Z" stroke="#263238" stroke-miterlimit="10"/>
<path d="M267.787 191.921H275.03V199.673H267.787V191.921Z" stroke="#263238" stroke-miterlimit="10"/>
<path d="M257.168 191.921H264.411V199.673H257.168V191.921Z" stroke="#263238" stroke-miterlimit="10"/>
<path d="M246.549 191.921H253.792V199.673H246.549V191.921Z" stroke="#263238" stroke-miterlimit="10"/>
<path d="M235.931 191.921H243.174V199.673H235.931V191.921Z" stroke="#263238" stroke-miterlimit="10"/>
<path d="M267.787 204.214H275.03V211.966H267.787V204.214Z" stroke="#263238" stroke-miterlimit="10"/>
<path d="M257.168 204.214H264.411V211.966H257.168V204.214Z" stroke="#263238" stroke-miterlimit="10"/>
<path d="M246.549 204.214H253.792V211.966H246.549V204.214Z" stroke="#263238" stroke-miterlimit="10"/>
<path d="M235.931 204.214H243.174V211.966H235.931V204.214Z" stroke="#263238" stroke-miterlimit="10"/>
<path d="M267.787 216.498H275.03V224.25H267.787V216.498Z" stroke="#263238" stroke-miterlimit="10"/>
<path d="M257.168 216.498H264.411V224.25H257.168V216.498Z" stroke="#263238" stroke-miterlimit="10"/>
<path d="M246.549 216.498H253.792V224.25H246.549V216.498Z" stroke="#263238" stroke-miterlimit="10"/>
<path d="M235.931 216.498H243.174V224.25H235.931V216.498Z" stroke="#263238" stroke-miterlimit="10"/>
<path d="M351.327 130.482H358.57V138.235H351.327V130.482Z" stroke="#263238" stroke-miterlimit="10"/>
<path d="M340.709 130.482H347.952V138.235H340.709V130.482Z" stroke="#263238" stroke-miterlimit="10"/>
<path d="M330.09 130.482H337.333V138.235H330.09V130.482Z" stroke="#263238" stroke-miterlimit="10"/>
<path d="M319.471 130.482H326.714V138.235H319.471V130.482Z" stroke="#263238" stroke-miterlimit="10"/>
<path d="M351.327 142.775H358.57V150.528H351.327V142.775Z" stroke="#263238" stroke-miterlimit="10"/>
<path d="M340.709 142.775H347.952V150.528H340.709V142.775Z" stroke="#263238" stroke-miterlimit="10"/>
<path d="M330.09 142.775H337.333V150.528H330.09V142.775Z" stroke="#263238" stroke-miterlimit="10"/>
<path d="M319.471 142.775H326.714V150.528H319.471V142.775Z" stroke="#263238" stroke-miterlimit="10"/>
<path d="M351.327 155.059H358.57V162.812H351.327V155.059Z" stroke="#263238" stroke-miterlimit="10"/>
<path d="M340.709 155.059H347.952V162.812H340.709V155.059Z" stroke="#263238" stroke-miterlimit="10"/>
<path d="M330.09 155.059H337.333V162.812H330.09V155.059Z" stroke="#263238" stroke-miterlimit="10"/>
<path d="M319.471 155.059H326.714V162.812H319.471V155.059Z" stroke="#263238" stroke-miterlimit="10"/>
<path d="M351.327 167.344H358.57V175.096H351.327V167.344Z" stroke="#263238" stroke-miterlimit="10"/>
<path d="M340.709 167.344H347.952V175.096H340.709V167.344Z" stroke="#263238" stroke-miterlimit="10"/>
<path d="M330.09 167.344H337.333V175.096H330.09V167.344Z" stroke="#263238" stroke-miterlimit="10"/>
<path d="M319.471 167.344H326.714V175.096H319.471V167.344Z" stroke="#263238" stroke-miterlimit="10"/>
<path d="M351.327 179.636H358.57V187.389H351.327V179.636Z" stroke="#263238" stroke-miterlimit="10"/>
<path d="M340.709 179.636H347.952V187.389H340.709V179.636Z" stroke="#263238" stroke-miterlimit="10"/>
<path d="M330.09 179.636H337.333V187.389H330.09V179.636Z" stroke="#263238" stroke-miterlimit="10"/>
<path d="M319.471 179.636H326.714V187.389H319.471V179.636Z" stroke="#263238" stroke-miterlimit="10"/>
<path d="M351.327 191.921H358.57V199.673H351.327V191.921Z" stroke="#263238" stroke-miterlimit="10"/>
<path d="M340.709 191.921H347.952V199.673H340.709V191.921Z" stroke="#263238" stroke-miterlimit="10"/>
<path d="M330.09 191.921H337.333V199.673H330.09V191.921Z" stroke="#263238" stroke-miterlimit="10"/>
<path d="M319.471 191.921H326.714V199.673H319.471V191.921Z" stroke="#263238" stroke-miterlimit="10"/>
<path d="M351.327 204.214H358.57V211.966H351.327V204.214Z" stroke="#263238" stroke-miterlimit="10"/>
<path d="M340.709 204.214H347.952V211.966H340.709V204.214Z" stroke="#263238" stroke-miterlimit="10"/>
<path d="M330.09 204.214H337.333V211.966H330.09V204.214Z" stroke="#263238" stroke-miterlimit="10"/>
<path d="M319.471 204.214H326.714V211.966H319.471V204.214Z" stroke="#263238" stroke-miterlimit="10"/>
<path d="M351.327 216.498H358.57V224.25H351.327V216.498Z" stroke="#263238" stroke-miterlimit="10"/>
<path d="M340.709 216.498H347.952V224.25H340.709V216.498Z" stroke="#263238" stroke-miterlimit="10"/>
<path d="M330.09 216.498H337.333V224.25H330.09V216.498Z" stroke="#263238" stroke-miterlimit="10"/>
<path d="M319.471 216.498H326.714V224.25H319.471V216.498Z" stroke="#263238" stroke-miterlimit="10"/>
<path d="M114.119 106.397H121.362V114.149H114.119V106.397Z" stroke="#263238" stroke-miterlimit="10"/>
<path d="M103.5 106.397H110.743V114.149H103.5V106.397Z" stroke="#263238" stroke-miterlimit="10"/>
<path d="M92.8813 106.397H100.124V114.149H92.8813V106.397Z" stroke="#263238" stroke-miterlimit="10"/>
<path d="M82.2624 106.397H89.5054V114.149H82.2624V106.397Z" stroke="#263238" stroke-miterlimit="10"/>
<path d="M114.119 118.69H121.362V126.442H114.119V118.69Z" stroke="#263238" stroke-miterlimit="10"/>
<path d="M103.5 118.69H110.743V126.442H103.5V118.69Z" stroke="#263238" stroke-miterlimit="10"/>
<path d="M92.8813 118.69H100.124V126.442H92.8813V118.69Z" stroke="#263238" stroke-miterlimit="10"/>
<path d="M82.2624 118.69H89.5054V126.442H82.2624V118.69Z" stroke="#263238" stroke-miterlimit="10"/>
<path d="M114.119 130.974H121.362V138.726H114.119V130.974Z" stroke="#263238" stroke-miterlimit="10"/>
<path d="M103.5 130.974H110.743V138.726H103.5V130.974Z" stroke="#263238" stroke-miterlimit="10"/>
<path d="M92.8813 130.974H100.124V138.726H92.8813V130.974Z" stroke="#263238" stroke-miterlimit="10"/>
<path d="M82.2624 130.974H89.5054V138.726H82.2624V130.974Z" stroke="#263238" stroke-miterlimit="10"/>
<path d="M114.119 143.258H121.362V151.01H114.119V143.258Z" stroke="#263238" stroke-miterlimit="10"/>
<path d="M103.5 143.258H110.743V151.01H103.5V143.258Z" stroke="#263238" stroke-miterlimit="10"/>
<path d="M92.8813 143.258H100.124V151.01H92.8813V143.258Z" stroke="#263238" stroke-miterlimit="10"/>
<path d="M82.2624 143.258H89.5054V151.01H82.2624V143.258Z" stroke="#263238" stroke-miterlimit="10"/>
<path d="M114.119 155.551H121.362V163.303H114.119V155.551Z" stroke="#263238" stroke-miterlimit="10"/>
<path d="M103.5 155.551H110.743V163.303H103.5V155.551Z" stroke="#263238" stroke-miterlimit="10"/>
<path d="M92.8813 155.551H100.124V163.303H92.8813V155.551Z" stroke="#263238" stroke-miterlimit="10"/>
<path d="M82.2624 155.551H89.5054V163.303H82.2624V155.551Z" stroke="#263238" stroke-miterlimit="10"/>
<path d="M114.119 167.835H121.362V175.587H114.119V167.835Z" stroke="#263238" stroke-miterlimit="10"/>
<path d="M103.5 167.835H110.743V175.587H103.5V167.835Z" stroke="#263238" stroke-miterlimit="10"/>
<path d="M92.8813 167.835H100.124V175.587H92.8813V167.835Z" stroke="#263238" stroke-miterlimit="10"/>
<path d="M82.2624 167.835H89.5054V175.587H82.2624V167.835Z" stroke="#263238" stroke-miterlimit="10"/>
<path d="M114.119 180.128H121.362V187.881H114.119V180.128Z" stroke="#263238" stroke-miterlimit="10"/>
<path d="M103.5 180.128H110.743V187.881H103.5V180.128Z" stroke="#263238" stroke-miterlimit="10"/>
<path d="M92.8813 180.128H100.124V187.881H92.8813V180.128Z" stroke="#263238" stroke-miterlimit="10"/>
<path d="M82.2624 180.128H89.5054V187.881H82.2624V180.128Z" stroke="#263238" stroke-miterlimit="10"/>
<path d="M114.119 192.412H121.362V200.164H114.119V192.412Z" stroke="#263238" stroke-miterlimit="10"/>
<path d="M103.5 192.412H110.743V200.164H103.5V192.412Z" stroke="#263238" stroke-miterlimit="10"/>
<path d="M92.8813 192.412H100.124V200.164H92.8813V192.412Z" stroke="#263238" stroke-miterlimit="10"/>
<path d="M82.2624 192.412H89.5054V200.164H82.2624V192.412Z" stroke="#263238" stroke-miterlimit="10"/>
<path d="M202.345 7.54236V232.066" stroke="#263238" stroke-miterlimit="10"/>
<path d="M195.166 7.54236V232.066" stroke="#263238" stroke-miterlimit="10"/>
<path d="M187.987 7.54236V232.066" stroke="#263238" stroke-miterlimit="10"/>
<path d="M180.807 7.54236V232.066" stroke="#263238" stroke-miterlimit="10"/>
<path d="M173.619 7.54236V232.066" stroke="#263238" stroke-miterlimit="10"/>
<path d="M166.44 7.54236V232.066" stroke="#263238" stroke-miterlimit="10"/>
<path d="M159.26 7.54236V232.066" stroke="#263238" stroke-miterlimit="10"/>
<path d="M152.081 7.54236V232.066" stroke="#263238" stroke-miterlimit="10"/>
<path d="M224.957 228.154H353.711V235.415H224.957V228.154Z" stroke="#263238" stroke-miterlimit="10"/>
<path d="M30.3239 228.154H145.939V235.415H30.3239V228.154Z" stroke="#263238" stroke-miterlimit="10"/>
<path d="M156.74 227.872C156.74 227.872 144.119 229.118 137.722 236.971C137.722 236.971 130.962 227.872 118.823 228.09C115.844 224.509 113.945 220.155 113.346 215.535C112.747 210.915 113.475 206.221 115.443 201.999C117.411 197.777 120.538 194.201 124.461 191.689C128.384 189.177 132.94 187.832 137.598 187.81C142.256 187.789 146.825 189.093 150.77 191.569C154.716 194.045 157.876 197.592 159.883 201.796C161.889 206 162.659 210.688 162.102 215.313C161.546 219.938 159.686 224.309 156.74 227.917V227.872Z" fill="#122450"/>
<path opacity="0.5" d="M156.74 227.872C156.74 227.872 144.119 229.118 137.722 236.971C137.722 236.971 130.962 227.872 118.823 228.09C115.844 224.509 113.945 220.155 113.346 215.535C112.747 210.915 113.475 206.221 115.443 201.999C117.411 197.777 120.538 194.201 124.461 191.689C128.384 189.177 132.94 187.832 137.598 187.81C142.256 187.789 146.825 189.093 150.77 191.569C154.716 194.045 157.876 197.592 159.883 201.796C161.889 206 162.659 210.688 162.102 215.313C161.546 219.938 159.686 224.309 156.74 227.917V227.872Z" fill="white"/>
<path d="M138.141 189.609L138.56 252.876H136.43L138.141 189.609Z" fill="#263238"/>
<path d="M137.495 234.56C137.495 234.56 133.236 226.889 125.566 224.55C125.566 224.55 133.664 226.461 137.713 233.067L137.495 234.56Z" fill="#263238"/>
<path d="M137.495 212.831C137.495 212.831 133.236 205.16 125.566 202.821C125.566 202.821 133.664 204.732 137.713 211.338L137.495 212.831Z" fill="#263238"/>
<path d="M137.495 223.695C137.495 223.695 133.236 216.024 125.566 213.686C125.566 213.686 133.664 215.597 137.713 222.203L137.495 223.695Z" fill="#263238"/>
<path d="M138.132 218.372C138.132 218.372 142.245 210.701 149.642 208.363C149.642 208.363 141.826 210.283 137.923 216.889L138.132 218.372Z" fill="#263238"/>
<path d="M138.132 229.018C138.132 229.018 142.245 221.348 149.642 219.009C149.642 219.009 141.826 220.929 137.923 227.526L138.132 229.018Z" fill="#263238"/>
<path d="M97.2945 223.076C97.2945 223.076 82.2534 224.559 74.6282 233.886C74.6282 233.886 66.5754 223.085 52.1076 223.304C48.5734 219.039 46.3235 213.858 45.6198 208.364C44.9161 202.87 45.7876 197.289 48.1328 192.271C50.4779 187.253 54.2003 183.005 58.8664 180.02C63.5326 177.036 68.9505 175.438 74.4893 175.414C80.0281 175.389 85.46 176.939 90.1524 179.882C94.8448 182.825 98.6046 187.04 100.994 192.037C103.384 197.034 104.305 202.607 103.65 208.107C102.995 213.607 100.791 218.808 97.2945 223.104V223.076Z" fill="#122450"/>
<path opacity="0.5" d="M97.2945 223.076C97.2945 223.076 82.2534 224.559 74.6282 233.886C74.6282 233.886 66.5754 223.085 52.1076 223.304C48.5734 219.039 46.3235 213.858 45.6198 208.364C44.9161 202.87 45.7876 197.289 48.1328 192.271C50.4779 187.253 54.2003 183.005 58.8664 180.02C63.5326 177.036 68.9505 175.438 74.4893 175.414C80.0281 175.389 85.46 176.939 90.1524 179.882C94.8448 182.825 98.6046 187.04 100.994 192.037C103.384 197.034 104.305 202.607 103.65 208.107C102.995 213.607 100.791 218.808 97.2945 223.104V223.076Z" fill="white"/>
<path d="M75.1286 177.48L75.6382 252.876H73.0904L75.1286 177.48Z" fill="#263238"/>
<path d="M74.3644 231.047C74.3644 231.047 69.287 221.902 60.1513 219.109C60.1513 219.109 69.7965 221.402 74.6191 229.264L74.3644 231.047Z" fill="#263238"/>
<path d="M74.3644 205.151C74.3644 205.151 69.287 196.006 60.1513 193.222C60.1513 193.222 69.7965 195.506 74.6191 203.376L74.3644 205.151Z" fill="#263238"/>
<path d="M74.3644 218.099C74.3644 218.099 69.287 209 60.1513 206.161C60.1513 206.161 69.7965 208.454 74.6191 216.325L74.3644 218.099Z" fill="#263238"/>
<path d="M75.1195 211.748C75.1195 211.748 80.0149 202.648 88.8321 199.819C88.8321 199.819 79.5235 202.103 74.8738 209.973L75.1195 211.748Z" fill="#263238"/>
<path d="M75.1195 224.441C75.1195 224.441 80.0149 215.342 88.8321 212.512C88.8321 212.512 79.5235 214.796 74.8738 222.667L75.1195 224.441Z" fill="#263238"/>
<path d="M36.748 231.784C36.748 231.784 26.1018 232.84 20.706 239.437C18.7667 237.089 16.3313 235.199 13.5749 233.905C10.8185 232.61 7.80949 231.942 4.76411 231.948C2.26103 228.929 0.667198 225.26 0.168221 221.37C-0.330757 217.48 0.28566 213.528 1.94567 209.975C3.60568 206.421 6.24099 203.413 9.54472 201.299C12.8484 199.185 16.6846 198.054 20.6066 198.036C24.5286 198.018 28.3749 199.115 31.6977 201.198C35.0206 203.282 37.6831 206.266 39.3754 209.805C41.0677 213.343 41.7201 217.289 41.2565 221.183C40.7929 225.078 39.2326 228.76 36.7571 231.803L36.748 231.784Z" fill="#122450"/>
<path opacity="0.5" d="M36.748 231.784C36.748 231.784 26.1018 232.84 20.706 239.437C18.7667 237.089 16.3313 235.199 13.5749 233.905C10.8185 232.61 7.80949 231.942 4.76411 231.948C2.26103 228.929 0.667198 225.26 0.168221 221.37C-0.330757 217.48 0.28566 213.528 1.94567 209.975C3.60568 206.421 6.24099 203.413 9.54472 201.299C12.8484 199.185 16.6846 198.054 20.6066 198.036C24.5286 198.018 28.3749 199.115 31.6977 201.198C35.0206 203.282 37.6831 206.266 39.3754 209.805C41.0677 213.343 41.7201 217.289 41.2565 221.183C40.7929 225.078 39.2326 228.76 36.7571 231.803L36.748 231.784Z" fill="white"/>
<path d="M21.0609 199.509L21.4158 252.876H19.6232L21.0609 199.509Z" fill="#263238"/>
<path d="M20.515 237.426C20.515 237.426 16.9298 230.956 10.5058 228.982C10.5058 228.982 17.3302 230.592 20.7424 236.17L20.515 237.426Z" fill="#263238"/>
<path d="M20.515 219.091C20.515 219.091 16.9298 212.621 10.5058 210.647C10.5058 210.647 17.3302 212.266 20.7424 217.835L20.515 219.091Z" fill="#263238"/>
<path d="M20.515 228.263C20.515 228.263 16.9298 221.793 10.5058 219.81C10.5058 219.81 17.3302 221.429 20.7424 226.998L20.515 228.263Z" fill="#263238"/>
<path d="M21.0518 223.768C21.0518 223.768 24.5187 217.298 30.7607 215.324C30.7607 215.324 24.1729 216.934 20.8789 222.512L21.0518 223.768Z" fill="#263238"/>
<path d="M21.0518 232.749C21.0518 232.749 24.5187 226.279 30.7607 224.305C30.7607 224.305 24.1729 225.924 20.8789 231.493L21.0518 232.749Z" fill="#263238"/>
<path d="M376.514 227.872C376.514 227.872 363.893 229.118 357.497 236.971C357.497 236.971 350.736 227.872 338.597 228.09C335.618 224.509 333.719 220.155 333.12 215.535C332.522 210.915 333.249 206.221 335.217 201.999C337.185 197.777 340.312 194.201 344.235 191.689C348.158 189.177 352.714 187.832 357.372 187.81C362.031 187.789 366.599 189.093 370.544 191.569C374.49 194.045 377.65 197.592 379.657 201.796C381.663 206 382.433 210.688 381.877 215.313C381.32 219.938 379.46 224.309 376.514 227.917V227.872Z" fill="#122450"/>
<path opacity="0.5" d="M376.514 227.872C376.514 227.872 363.893 229.118 357.497 236.971C357.497 236.971 350.736 227.872 338.597 228.09C335.618 224.509 333.719 220.155 333.12 215.535C332.522 210.915 333.249 206.221 335.217 201.999C337.185 197.777 340.312 194.201 344.235 191.689C348.158 189.177 352.714 187.832 357.372 187.81C362.031 187.789 366.599 189.093 370.544 191.569C374.49 194.045 377.65 197.592 379.657 201.796C381.663 206 382.433 210.688 381.877 215.313C381.32 219.938 379.46 224.309 376.514 227.917V227.872Z" fill="white"/>
<path d="M357.915 189.609L358.343 252.876H356.214L357.915 189.609Z" fill="#263238"/>
<path d="M357.278 234.56C357.278 234.56 353.011 226.889 345.349 224.55C345.349 224.55 353.438 226.461 357.488 233.067L357.278 234.56Z" fill="#263238"/>
<path d="M357.278 212.831C357.278 212.831 353.011 205.16 345.349 202.821C345.349 202.821 353.438 204.732 357.488 211.338L357.278 212.831Z" fill="#263238"/>
<path d="M357.278 223.695C357.278 223.695 353.011 216.024 345.349 213.686C345.349 213.686 353.438 215.597 357.488 222.203L357.278 223.695Z" fill="#263238"/>
<path d="M357.906 218.372C357.906 218.372 362.019 210.701 369.417 208.363C369.417 208.363 361.609 210.283 357.697 216.889L357.906 218.372Z" fill="#263238"/>
<path d="M357.906 229.018C357.906 229.018 362.019 221.348 369.417 219.009C369.417 219.009 361.609 220.929 357.697 227.526L357.906 229.018Z" fill="#263238"/>
<path d="M317.069 223.076C317.069 223.076 302.027 224.56 294.402 233.886C294.402 233.886 286.349 223.085 271.882 223.304C268.349 219.039 266.1 213.858 265.398 208.364C264.695 202.871 265.567 197.29 267.913 192.273C270.259 187.256 273.981 183.009 278.647 180.025C283.312 177.041 288.73 175.444 294.268 175.419C299.806 175.395 305.238 176.944 309.93 179.886C314.622 182.829 318.381 187.043 320.771 192.039C323.161 197.035 324.083 202.607 323.429 208.107C322.775 213.607 320.572 218.807 317.078 223.104L317.069 223.076Z" fill="#122450"/>
<path opacity="0.5" d="M317.069 223.076C317.069 223.076 302.027 224.56 294.402 233.886C294.402 233.886 286.349 223.085 271.882 223.304C268.349 219.039 266.1 213.858 265.398 208.364C264.695 202.871 265.567 197.29 267.913 192.273C270.259 187.256 273.981 183.009 278.647 180.025C283.312 177.041 288.73 175.444 294.268 175.419C299.806 175.395 305.238 176.944 309.93 179.886C314.622 182.829 318.381 187.043 320.771 192.039C323.161 197.035 324.083 202.607 323.429 208.107C322.775 213.607 320.572 218.807 317.078 223.104L317.069 223.076Z" fill="white"/>
<path d="M294.903 177.48L295.412 252.876H292.874L294.903 177.48Z" fill="#263238"/>
<path d="M294.139 231.047C294.139 231.047 289.061 221.902 279.925 219.109C279.925 219.109 289.571 221.402 294.393 229.264L294.139 231.047Z" fill="#263238"/>
<path d="M294.139 205.151C294.139 205.151 289.061 196.006 279.925 193.222C279.925 193.222 289.571 195.506 294.393 203.376L294.139 205.151Z" fill="#263238"/>
<path d="M294.139 218.099C294.139 218.099 289.061 209 279.925 206.161C279.925 206.161 289.571 208.454 294.393 216.325L294.139 218.099Z" fill="#263238"/>
<path d="M294.894 211.748C294.894 211.748 299.789 202.648 308.615 199.819C308.615 199.819 299.307 202.103 294.648 209.973L294.894 211.748Z" fill="#263238"/>
<path d="M294.894 224.441C294.894 224.441 299.789 215.342 308.615 212.512C308.615 212.512 299.307 214.796 294.648 222.667L294.894 224.441Z" fill="#263238"/>
<path d="M256.522 231.784C256.522 231.784 245.876 232.84 240.48 239.437C238.542 237.088 236.107 235.198 233.35 233.903C230.593 232.608 227.584 231.94 224.538 231.948C222.035 228.929 220.441 225.26 219.943 221.37C219.444 217.48 220.06 213.528 221.72 209.975C223.38 206.421 226.015 203.413 229.319 201.299C232.623 199.185 236.459 198.054 240.381 198.036C244.303 198.018 248.149 199.115 251.472 201.198C254.795 203.282 257.457 206.266 259.15 209.805C260.842 213.343 261.494 217.289 261.031 221.183C260.567 225.078 259.007 228.76 256.531 231.803L256.522 231.784Z" fill="#122450"/>
<path opacity="0.5" d="M256.522 231.784C256.522 231.784 245.876 232.84 240.48 239.437C238.542 237.088 236.107 235.198 233.35 233.903C230.593 232.608 227.584 231.94 224.538 231.948C222.035 228.929 220.441 225.26 219.943 221.37C219.444 217.48 220.06 213.528 221.72 209.975C223.38 206.421 226.015 203.413 229.319 201.299C232.623 199.185 236.459 198.054 240.381 198.036C244.303 198.018 248.149 199.115 251.472 201.198C254.795 203.282 257.457 206.266 259.15 209.805C260.842 213.343 261.494 217.289 261.031 221.183C260.567 225.078 259.007 228.76 256.531 231.803L256.522 231.784Z" fill="white"/>
<path d="M240.835 199.509L241.199 252.876H239.397L240.835 199.509Z" fill="#263238"/>
<path d="M240.298 237.426C240.298 237.426 236.704 230.956 230.234 228.982C230.234 228.982 237.059 230.592 240.471 236.17L240.298 237.426Z" fill="#263238"/>
<path d="M240.298 219.091C240.298 219.091 236.704 212.621 230.234 210.647C230.234 210.647 237.059 212.266 240.471 217.835L240.298 219.091Z" fill="#263238"/>
<path d="M240.298 228.263C240.298 228.263 236.704 221.793 230.234 219.81C230.234 219.81 237.059 221.429 240.471 226.998L240.298 228.263Z" fill="#263238"/>
<path d="M240.826 223.768C240.826 223.768 244.293 217.298 250.535 215.324C250.535 215.324 243.947 216.934 240.653 222.512L240.826 223.768Z" fill="#263238"/>
<path d="M240.826 232.749C240.826 232.749 244.293 226.279 250.535 224.305C250.535 224.305 243.947 225.924 240.653 231.493L240.826 232.749Z" fill="#263238"/>
<path d="M114.52 252.221C101.424 249.166 93.2837 236.073 96.3386 222.977C99.3934 209.881 112.487 201.74 125.583 204.795C138.679 207.85 146.819 220.943 143.765 234.04C140.71 247.136 127.617 255.276 114.52 252.221Z" fill="#263238" stroke="#263238" stroke-miterlimit="10"/>
<path d="M273.37 245.729C263.861 236.22 263.861 220.803 273.37 211.293C282.879 201.784 298.297 201.784 307.806 211.293C317.315 220.803 317.315 236.22 307.806 245.729C298.297 255.238 282.879 255.238 273.37 245.729Z" fill="#263238" stroke="#263238" stroke-miterlimit="10"/>
<path d="M136.476 182.366C136.476 182.366 142.936 178.326 172.436 168.626C201.936 158.927 220.935 155.687 250.025 156.506C279.116 157.325 318.324 168.226 325.595 171.065C332.865 173.904 336.104 174.705 334.485 176.716C332.865 178.727 323.984 186.015 325.194 189.245C326.404 192.476 346.186 210.283 347.424 213.076C348.661 215.87 343.375 225.606 342.574 228.035C341.773 230.465 337.314 231.266 333.684 231.675C330.053 232.085 71.407 231.675 71.407 231.675C71.407 231.675 67.7673 227.235 68.5771 221.575C69.387 215.915 70.2514 208.454 73.9002 203.677C76.8484 199.8 79.8966 195.715 87.5491 194.905C92.399 194.386 135.256 182.776 136.476 182.366Z" fill="#122450"/>
<mask id="mask0_64_1741" style="mask-type:luminance" maskUnits="userSpaceOnUse" x="68" y="156" width="280" height="76">
<path d="M136.476 182.366C136.476 182.366 142.936 178.326 172.436 168.626C201.936 158.927 220.935 155.687 250.025 156.506C279.116 157.325 318.324 168.226 325.595 171.065C332.865 173.904 336.104 174.705 334.485 176.716C332.865 178.727 323.984 186.015 325.194 189.245C326.404 192.476 346.186 210.283 347.424 213.076C348.661 215.87 343.375 225.606 342.574 228.035C341.773 230.465 337.314 231.266 333.684 231.675C330.053 232.085 71.407 231.675 71.407 231.675C71.407 231.675 67.7673 227.235 68.5771 221.575C69.387 215.915 70.2514 208.454 73.9002 203.677C76.8484 199.8 79.8966 195.715 87.5491 194.905C92.399 194.386 135.256 182.776 136.476 182.366Z" fill="white"/>
</mask>
<g mask="url(#mask0_64_1741)">
<path d="M136.476 182.366C136.476 182.366 142.936 178.326 172.436 168.626C201.936 158.927 220.935 155.687 250.025 156.506C279.116 157.325 318.324 168.226 325.595 171.065C332.865 173.904 336.104 174.705 334.485 176.716C332.865 178.727 323.984 186.015 325.194 189.245C326.404 192.476 346.186 210.283 347.424 213.076C348.661 215.87 343.375 225.606 342.574 228.035C341.773 230.465 337.314 231.266 333.684 231.675C330.053 232.085 71.407 231.675 71.407 231.675C71.407 231.675 67.7673 227.235 68.5771 221.575C69.387 215.915 70.2514 208.454 73.9002 203.677C76.8484 199.8 79.8966 195.715 87.5491 194.905C92.399 194.386 135.256 182.776 136.476 182.366Z" fill="#122450"/>
<mask id="mask1_64_1741" style="mask-type:luminance" maskUnits="userSpaceOnUse" x="68" y="156" width="280" height="76">
<path d="M136.476 182.366C136.476 182.366 142.936 178.326 172.436 168.626C201.936 158.927 220.935 155.687 250.025 156.506C279.116 157.325 318.324 168.226 325.595 171.065C332.865 173.904 336.104 174.705 334.485 176.716C332.865 178.727 323.984 186.015 325.194 189.245C326.404 192.476 346.186 210.283 347.424 213.076C348.661 215.87 343.375 225.606 342.574 228.035C341.773 230.465 337.314 231.266 333.684 231.675C330.053 232.085 71.407 231.675 71.407 231.675C71.407 231.675 67.7673 227.235 68.5771 221.575C69.387 215.915 70.2514 208.454 73.9002 203.677C76.8484 199.8 79.8966 195.715 87.5491 194.905C92.399 194.386 135.256 182.776 136.476 182.366Z" fill="white"/>
</mask>
<g mask="url(#mask1_64_1741)">
<path opacity="0.15" d="M136.476 182.366C136.476 182.366 142.936 178.326 172.436 168.626C201.936 158.927 220.935 155.687 250.025 156.506C279.116 157.325 318.324 168.226 325.595 171.065C332.865 173.904 336.104 174.705 334.485 176.716C332.865 178.727 323.984 186.015 325.194 189.245C326.404 192.476 346.186 210.283 347.424 213.076C348.661 215.87 343.375 225.606 342.574 228.035C341.773 230.465 337.314 231.266 333.684 231.675C330.053 232.085 71.407 231.675 71.407 231.675C71.407 231.675 67.7673 227.235 68.5771 221.575C69.387 215.915 70.2514 208.454 73.9002 203.677C76.8484 199.8 79.8966 195.715 87.5491 194.905C92.399 194.386 135.256 182.776 136.476 182.366Z" fill="black"/>
</g>
</g>
<path d="M136.476 182.366C136.476 182.366 142.936 178.326 172.436 168.626C201.936 158.927 220.935 155.687 250.025 156.506C279.116 157.325 318.324 168.226 325.595 171.065C332.865 173.904 336.104 174.705 334.485 176.716C332.865 178.727 323.984 186.015 325.194 189.245C326.404 192.476 346.186 210.283 347.424 213.076C348.661 215.87 343.375 225.606 342.574 228.035C341.773 230.465 337.314 231.266 333.684 231.675C330.053 232.085 71.407 231.675 71.407 231.675C71.407 231.675 67.7673 227.235 68.5771 221.575C69.387 215.915 70.2514 208.454 73.9002 203.677C76.8484 199.8 79.8966 195.715 87.5491 194.905C92.399 194.386 135.256 182.776 136.476 182.366Z" stroke="#263238" stroke-miterlimit="10"/>
<path d="M71.4071 210.656H86.7666V214.696H71.4071V210.656Z" fill="#263238" stroke="#263238" stroke-miterlimit="10"/>
<path d="M94.137 203.668H91.6893C90.1236 203.664 88.593 204.131 87.2953 205.007C85.9975 205.883 84.9924 207.128 84.4099 208.581L81.944 214.696H89.9513L94.137 203.668Z" fill="white" stroke="#263238" stroke-miterlimit="10"/>
<path d="M71.5981 207.799C71.6891 208.053 71.771 208.308 71.8438 208.581L73.4907 214.696H69.6508C70.0754 212.339 70.7275 210.029 71.5981 207.799Z" fill="white" stroke="#263238" stroke-miterlimit="10"/>
<path d="M136.476 182.366C136.476 182.366 142.936 178.326 172.436 168.626C179.179 166.415 185.357 164.541 191.244 162.967H212.045L216.485 164.186L156.676 182.384L136.476 182.366Z" fill="#263238" stroke="#263238" stroke-miterlimit="10"/>
<path d="M354.285 175.888V203.185C354.285 203.185 337.669 189.536 339.726 185.651C341.782 181.766 354.285 175.888 354.285 175.888Z" fill="#8F8F8F" stroke="#263238" stroke-miterlimit="10"/>
<path d="M156.676 182.366C156.676 182.366 163.146 178.326 192.645 168.626C222.145 158.927 241.135 155.687 270.235 156.506C299.334 157.325 338.534 168.226 345.759 171.065C352.983 173.904 356.268 174.705 354.649 176.716C353.029 178.727 344.139 186.015 345.358 189.245C346.578 192.476 366.414 210.283 367.624 213.076C368.834 215.87 363.584 225.606 362.774 228.035C361.964 230.465 357.524 231.266 353.884 231.675C350.245 232.085 91.6165 231.675 91.6165 231.675C91.6165 231.675 87.9768 227.235 88.7866 221.575C89.5964 215.915 90.4973 208.463 94.137 203.668C97.0851 199.791 100.142 195.706 107.786 194.896C112.599 194.386 155.466 182.776 156.676 182.366Z" fill="#122450"/>
<mask id="mask2_64_1741" style="mask-type:luminance" maskUnits="userSpaceOnUse" x="88" y="156" width="280" height="76">
<path d="M156.676 182.366C156.676 182.366 163.146 178.326 192.645 168.626C222.145 158.927 241.135 155.687 270.235 156.506C299.334 157.325 338.534 168.226 345.759 171.065C352.983 173.904 356.268 174.705 354.649 176.716C353.029 178.727 344.139 186.015 345.358 189.245C346.578 192.476 366.414 210.283 367.624 213.076C368.834 215.87 363.584 225.606 362.774 228.035C361.964 230.465 357.524 231.266 353.884 231.675C350.245 232.085 91.6165 231.675 91.6165 231.675C91.6165 231.675 87.9768 227.235 88.7866 221.575C89.5964 215.915 90.4973 208.463 94.137 203.668C97.0851 199.791 100.142 195.706 107.786 194.896C112.599 194.386 155.466 182.776 156.676 182.366Z" fill="white"/>
</mask>
<g mask="url(#mask2_64_1741)">
<path opacity="0.15" d="M94.1369 203.668C97.0851 199.791 100.142 195.706 107.786 194.896C109.06 194.759 113 193.85 118.123 192.576C142.545 192.33 156.148 202.203 192.636 205.551C240.153 209.901 273.028 198.026 312.628 193.267C329.143 191.293 342.474 193.722 352.419 197.216C358.652 203.513 366.869 211.293 367.633 213.076C368.843 215.906 363.593 225.606 362.783 228.035C361.973 230.465 357.533 231.266 353.893 231.675C350.254 232.085 91.6255 231.675 91.6255 231.675C91.6255 231.675 87.9858 227.235 88.7956 221.575C89.6055 215.915 90.4972 208.463 94.1369 203.668Z" fill="black"/>
</g>
<path d="M156.676 182.366C156.676 182.366 163.146 178.326 192.645 168.626C222.145 158.927 241.135 155.687 270.235 156.506C299.334 157.325 338.534 168.226 345.759 171.065C352.983 173.904 356.268 174.705 354.649 176.716C353.029 178.727 344.139 186.015 345.358 189.245C346.578 192.476 366.414 210.283 367.624 213.076C368.834 215.87 363.584 225.606 362.774 228.035C361.964 230.465 357.524 231.266 353.884 231.675C350.245 232.085 91.6165 231.675 91.6165 231.675C91.6165 231.675 87.9768 227.235 88.7866 221.575C89.5964 215.915 90.4973 208.463 94.137 203.668C97.0851 199.791 100.142 195.706 107.786 194.896C112.599 194.386 155.466 182.776 156.676 182.366Z" stroke="#263238" stroke-miterlimit="10"/>
<path d="M309.507 167.462L293.338 184.541H174.483V180.665C174.483 180.665 198.842 171.101 224.529 166.106C250.216 161.11 256.631 161.556 268.206 161.775C279.78 161.993 309.507 167.462 309.507 167.462Z" fill="#8F8F8F"/>
<mask id="mask3_64_1741" style="mask-type:luminance" maskUnits="userSpaceOnUse" x="174" y="161" width="136" height="24">
<path d="M309.507 167.462L293.338 184.541H174.483V180.665C174.483 180.665 198.842 171.101 224.529 166.106C250.216 161.11 256.631 161.556 268.206 161.775C279.78 161.993 309.507 167.462 309.507 167.462Z" fill="white"/>
</mask>
<g mask="url(#mask3_64_1741)">
<path d="M251.554 177.071C266.683 173.616 282.51 174.922 296.868 180.81L293.338 184.541H174.483V180.665C174.483 180.665 178.423 179.118 184.811 176.943C198.178 182.075 224.693 182.985 251.554 177.071Z" fill="#263238" stroke="#263238" stroke-miterlimit="10"/>
</g>
<path d="M309.507 167.462L293.338 184.541H174.483V180.665C174.483 180.665 198.842 171.101 224.529 166.106C250.216 161.11 256.631 161.556 268.206 161.775C279.78 161.993 309.507 167.462 309.507 167.462Z" stroke="#263238" stroke-width="4" stroke-miterlimit="10"/>
<path d="M255.767 186.816V223.932" stroke="#263238" stroke-miterlimit="10"/>
<path d="M312.589 252.246C299.49 249.205 291.336 236.121 294.377 223.021C297.418 209.922 310.503 201.768 323.602 204.809C336.702 207.85 344.856 220.935 341.814 234.034C338.773 247.134 325.689 255.288 312.589 252.246Z" fill="#263238" stroke="#263238" stroke-miterlimit="10"/>
<path d="M318.07 210.938C321.546 210.938 324.944 211.969 327.834 213.901C330.724 215.833 332.976 218.579 334.305 221.791C335.634 225.003 335.981 228.537 335.301 231.946C334.62 235.356 332.944 238.486 330.484 240.943C328.024 243.399 324.891 245.07 321.481 245.745C318.071 246.42 314.537 246.068 311.327 244.734C308.117 243.4 305.374 241.143 303.447 238.25C301.519 235.357 300.494 231.958 300.499 228.481C300.509 223.827 302.364 219.366 305.658 216.077C308.951 212.788 313.415 210.94 318.07 210.938ZM306.241 224.987L316.477 226.907L313.575 217.034C311.833 217.721 310.271 218.793 309.004 220.171C307.736 221.548 306.798 223.195 306.259 224.987H306.241ZM317.16 227.626V229.391H318.916V227.626H317.16ZM321.555 216.707L319.635 226.943L329.516 224.032C328.839 222.293 327.776 220.731 326.408 219.463C325.04 218.194 323.403 217.252 321.618 216.707H321.555ZM329.844 232.03L319.607 230.11L322.528 239.983C324.278 239.305 325.849 238.236 327.121 236.857C328.394 235.479 329.335 233.828 329.871 232.03H329.844ZM314.521 240.31L316.441 230.083L306.586 233.031C307.276 234.768 308.351 236.325 309.73 237.586C311.109 238.847 312.757 239.778 314.548 240.31H314.521Z" fill="white" stroke="#263238" stroke-miterlimit="10"/>
<path d="M312.619 228.481C312.619 227.401 312.939 226.346 313.539 225.448C314.139 224.55 314.992 223.851 315.989 223.437C316.987 223.024 318.085 222.916 319.144 223.127C320.203 223.337 321.176 223.857 321.939 224.621C322.703 225.384 323.223 226.357 323.433 227.416C323.644 228.475 323.536 229.573 323.123 230.571C322.709 231.568 322.01 232.421 321.112 233.021C320.214 233.621 319.158 233.941 318.079 233.941C316.631 233.941 315.242 233.366 314.218 232.342C313.194 231.318 312.619 229.929 312.619 228.481Z" fill="white" stroke="#263238" stroke-miterlimit="10"/>
<path d="M129.501 245.729C119.992 236.219 119.992 220.802 129.501 211.293C139.01 201.784 154.428 201.784 163.937 211.293C173.446 220.802 173.446 236.219 163.937 245.729C154.428 255.238 139.01 255.238 129.501 245.729Z" fill="#263238" stroke="#263238" stroke-miterlimit="10"/>
<path d="M146.722 210.938C150.198 210.938 153.596 211.969 156.486 213.901C159.376 215.833 161.628 218.579 162.957 221.791C164.286 225.003 164.633 228.537 163.953 231.946C163.272 235.356 161.596 238.486 159.136 240.943C156.676 243.399 153.543 245.07 150.133 245.745C146.723 246.42 143.189 246.068 139.979 244.734C136.769 243.4 134.026 241.143 132.099 238.25C130.171 235.357 129.146 231.958 129.151 228.481C129.161 223.827 131.016 219.366 134.31 216.077C137.603 212.788 142.067 210.94 146.722 210.938ZM134.893 224.987L145.12 226.907L142.217 217.034C140.479 217.722 138.918 218.794 137.654 220.172C136.39 221.549 135.455 223.196 134.92 224.987H134.893ZM145.812 227.626V229.391H147.577V227.626H145.812ZM150.216 216.707L148.296 226.943L158.168 224.032C157.489 222.29 156.423 220.725 155.05 219.456C153.677 218.187 152.033 217.247 150.243 216.707H150.216ZM158.496 232.03L148.259 230.11L151.171 239.983C152.922 239.305 154.494 238.237 155.769 236.858C157.043 235.48 157.985 233.828 158.523 232.03H158.496ZM143.173 240.31L145.093 230.083L135.247 233.031C135.935 234.767 137.008 236.325 138.386 237.586C139.764 238.847 141.41 239.778 143.2 240.31H143.173Z" fill="white" stroke="#263238" stroke-miterlimit="10"/>
<path d="M141.271 228.481C141.271 227.401 141.591 226.346 142.191 225.448C142.791 224.55 143.644 223.851 144.641 223.437C145.639 223.024 146.737 222.916 147.796 223.127C148.855 223.337 149.828 223.857 150.591 224.621C151.355 225.384 151.875 226.357 152.085 227.416C152.296 228.475 152.188 229.573 151.775 230.571C151.361 231.568 150.662 232.421 149.764 233.021C148.866 233.621 147.81 233.941 146.731 233.941C145.283 233.941 143.894 233.366 142.87 232.342C141.846 231.318 141.271 229.929 141.271 228.481Z" fill="white" stroke="#263238" stroke-miterlimit="10"/>
<path d="M94.137 203.668C94.137 203.668 112.263 202.758 113.073 203.668C113.882 204.578 107.012 211.857 104.583 213.486C102.663 214.769 93.6184 214.523 89.9605 214.396C90.6975 210.483 91.8895 206.579 94.137 203.668Z" fill="white" stroke="#263238" stroke-miterlimit="10"/>
<path d="M252.792 161.893C253.984 161.811 255.103 161.756 256.195 161.72L259.243 184.468H251.163L252.792 161.893Z" fill="#263238" stroke="#263238" stroke-miterlimit="10"/>
<path d="M222.709 245.679C224.155 246.609 225.677 247.416 227.259 248.09C229.206 248.836 230.498 249.291 230.125 250.502C229.752 251.712 227.632 252.722 224.939 253.277C222.245 253.832 217.441 252.631 216.14 252.258C214.838 251.885 214.656 249.755 215.585 248.554C216.513 247.353 221.135 245.033 222.709 245.679Z" fill="#263238" stroke="#263238" stroke-linecap="round" stroke-linejoin="round"/>
<path d="M221.872 252.631C224.101 252.631 227.805 251.794 227.805 250.965C227.805 250.137 226.895 249.482 227.987 249.2C229.079 248.918 229.807 250.438 229.989 250.793C229.388 251.866 227.395 252.767 224.929 253.277C222.2 253.832 217.432 252.631 216.13 252.258C215.897 252.178 215.686 252.043 215.517 251.864C215.347 251.685 215.223 251.467 215.157 251.229C217.31 252.037 219.575 252.51 221.872 252.631Z" fill="white" stroke="#263238" stroke-linecap="round" stroke-linejoin="round"/>
<path d="M211.317 186.206L210.762 188.026C211.108 188.304 211.387 188.656 211.579 189.056C211.771 189.456 211.871 189.894 211.872 190.337C211.667 191.359 211.11 192.277 210.298 192.931" stroke="#263238" stroke-linecap="round" stroke-linejoin="round"/>
<path d="M216.977 182.594C217.54 184.105 218.002 185.653 218.36 187.225V189.728C218.36 190.192 220.18 200.01 220.589 206.033C220.999 212.057 221.235 219.091 221.699 220.674C222.163 222.257 221.608 223.076 221.517 225.306C221.426 227.535 221.326 238.736 221.326 238.736C221.326 238.736 221.79 241.702 221.881 242.44C221.972 243.177 222.9 243.459 223.183 243.923C223.486 244.673 223.732 245.446 223.92 246.234C222.479 246.625 221.169 247.395 220.125 248.463C218.824 250.037 215.312 251.985 214.848 251.885C214.384 251.784 214.101 250.501 213.364 248.736C212.627 246.971 212.709 246.052 212.345 245.315C211.981 244.578 211.435 243.368 210.58 237.808C209.725 232.248 209.006 224.004 208.542 222.894C208.078 221.784 205.676 217.617 205.676 217.617C203.582 213.582 201.785 209.401 200.298 205.105C198.94 201.121 197.917 197.03 197.241 192.876C196.808 190.021 196.532 187.144 196.413 184.259V183.349C196.413 183.349 199.834 184.641 205.949 183.995C212.063 183.349 216.977 182.594 216.977 182.594Z" fill="white" stroke="#263238" stroke-linecap="round" stroke-linejoin="round"/>
<path d="M204.183 187.971C204.183 187.971 208.351 190.192 208.997 191.302C209.643 192.412 210.48 197.143 212.336 202.976C214.192 208.809 215.858 213.258 217.432 218.172C218.429 220.985 219.08 223.909 219.37 226.88C219.934 230.52 221.19 240.128 221.19 240.128" stroke="#263238" stroke-linecap="round" stroke-linejoin="round"/>
<path d="M215.157 250.219C215.157 250.219 213.119 249.482 213.119 245.315C213.119 241.147 213.865 238.181 213.119 234.196C212.372 230.21 210.525 223.722 209.415 221.784C208.305 219.846 207.004 217.335 207.004 217.335" stroke="#263238" stroke-linecap="round" stroke-linejoin="round"/>
<path d="M208.069 215.943C208.069 215.943 204.829 218.172 204.183 217.335C203.184 215.56 202.347 213.699 201.681 211.775C200.844 209.646 200.48 208.627 200.48 208.627C200.48 208.627 199.57 208.536 199.461 207.717C199.351 206.898 199.179 205.305 199.179 205.305C200.176 205.275 201.169 205.154 202.145 204.942C203.901 204.568 204.556 204.659 204.92 205.497C205.212 206.062 205.462 206.65 205.666 207.253C206.221 208.736 208.396 213.74 208.442 214.478C208.487 215.215 208.624 215.387 208.069 215.943Z" fill="white" stroke="#263238" stroke-linecap="round" stroke-linejoin="round"/>
<path d="M200.48 208.627C201.753 208.553 203.02 208.398 204.274 208.163C205.293 207.89 204.738 206.589 204.738 206.589" fill="#122450"/>
<path d="M200.48 208.627C201.753 208.553 203.02 208.398 204.274 208.163C205.293 207.89 204.738 206.589 204.738 206.589" stroke="#263238" stroke-linecap="round" stroke-linejoin="round"/>
<path d="M201.772 204.923C201.772 204.923 199.361 197.143 199.042 195.56L198.669 193.986" stroke="#263238" stroke-linecap="round" stroke-linejoin="round"/>
<path d="M201.035 185.833C201.035 185.833 201.681 189.082 201.035 190.838C200.291 192.36 199.174 193.669 197.786 194.641" stroke="#263238" stroke-linecap="round" stroke-linejoin="round"/>
<path d="M214.465 187.225C214.465 187.225 209.643 188.617 206.776 187.598" stroke="#263238" stroke-linecap="round" stroke-linejoin="round"/>
<path d="M205.666 150.819C205.666 150.819 211.963 152.393 213.856 152.766C215.748 153.139 216.722 153.139 217.004 153.967C219.027 157.752 221.384 161.349 224.047 164.714C226.176 167.034 226.358 169.263 225.712 170.455C225.066 171.647 224.32 172.221 221.545 171.474C219.756 170.933 218.172 169.868 216.995 168.417C216.995 168.417 216.34 175.369 217.268 178.144C218.196 180.919 218.569 183.149 217.923 183.604C215.112 185.152 211.96 185.981 208.751 186.015C203.655 186.197 197.832 185.733 196.922 184.805C196.608 184.552 196.36 184.225 196.202 183.854C196.043 183.482 195.978 183.078 196.012 182.676C196.012 182.03 196.376 177.68 195.266 174.25C194.156 170.819 191.007 162.02 190.916 158.681C190.825 155.341 192.118 154.887 194.62 153.867C197.122 152.848 201.108 151.092 202.027 150.901C203.237 150.794 204.453 150.767 205.666 150.819Z" fill="#263238" stroke="#263238" stroke-linecap="round" stroke-linejoin="round"/>
<path d="M206.968 149.154C207.727 149.642 208.44 150.2 209.097 150.819C209.197 151.101 212.436 156.279 212.063 156.279C211.69 156.279 207.614 154.241 207.614 154.241C207.614 154.241 205.584 151.183 205.794 149.973C205.802 149.835 205.84 149.701 205.908 149.581C205.975 149.461 206.069 149.357 206.182 149.278C206.295 149.199 206.424 149.147 206.56 149.126C206.696 149.104 206.836 149.114 206.968 149.154Z" fill="white" stroke="#263238" stroke-linecap="round" stroke-linejoin="round"/>
<path d="M207.75 148.126C207.653 150.175 207.809 152.229 208.214 154.24C208.86 156.743 209.324 158.408 208.396 158.69C207.468 158.972 204.411 154.422 203.583 153.13C203.094 152.387 202.72 151.574 202.472 150.719L201.817 143.494C201.817 143.494 205.53 147.498 207.75 148.126Z" fill="white" stroke="#263238" stroke-linecap="round" stroke-linejoin="round"/>
<path d="M211.08 130.892C211.08 130.892 211.99 138.772 211.99 141.738C211.99 144.704 210.043 148.499 209.124 148.863C208.205 149.227 205.876 149.609 204.948 148.963C204.019 148.317 201.435 144.331 201.435 144.331C200.559 141.546 199.908 138.695 199.488 135.805C199.206 132.657 200.043 131.174 202.918 130.246C205.794 129.318 209.606 129.299 211.08 130.892Z" fill="white" stroke="#263238" stroke-linecap="round" stroke-linejoin="round"/>
<path d="M208.86 137.662C208.86 137.662 209.697 142.211 209.324 142.293C208.772 142.36 208.216 142.39 207.659 142.384" stroke="#263238" stroke-linecap="round" stroke-linejoin="round"/>
<path d="M208.951 143.958C208.951 143.958 206.449 144.513 205.157 143.312" stroke="#263238" stroke-linecap="round" stroke-linejoin="round"/>
<path d="M205.439 137.744C205.439 138.126 205.666 138.417 205.876 138.399C206.085 138.38 206.212 138.044 206.176 137.671C206.139 137.298 205.939 136.988 205.73 137.016C205.521 137.043 205.393 137.361 205.439 137.744Z" fill="#263238"/>
<path d="M209.324 137.37C209.324 137.753 209.561 138.044 209.761 138.026C209.961 138.007 210.098 137.68 210.061 137.298C210.025 136.916 209.825 136.624 209.624 136.643C209.424 136.661 209.288 136.988 209.324 137.37Z" fill="#263238"/>
<path d="M211.08 135.987C210.952 135.818 210.788 135.679 210.6 135.58C210.412 135.481 210.204 135.426 209.992 135.417C209.78 135.408 209.568 135.447 209.372 135.53C209.177 135.613 209.002 135.738 208.86 135.896" stroke="#263238" stroke-linecap="round" stroke-linejoin="round"/>
<path d="M207.104 135.805C207.104 135.805 205.339 134.413 204.374 135.896" stroke="#263238" stroke-linecap="round" stroke-linejoin="round"/>
<path d="M212.564 129.6C212.57 129.675 212.57 129.752 212.564 129.827C212.419 130.299 212.159 130.729 211.809 131.076C211.458 131.424 211.026 131.679 210.553 131.82C208.514 132.657 203.701 131.638 202.036 132.193C200.371 132.748 201.126 134.322 202.127 134.877C203.128 135.432 203.328 135.714 202.864 136.36C202.4 137.007 201.29 137.662 201.663 138.399C202.036 139.136 202.218 139.882 201.572 139.973C200.926 140.064 200.462 140.064 200.179 139.7C199.897 139.336 198.05 135.341 198.05 133.03C198.05 130.719 199.16 129.691 201.754 128.672C204.347 127.652 209.725 127.006 211.299 127.935C211.629 128.088 211.917 128.32 212.138 128.61C212.358 128.901 212.504 129.24 212.564 129.6Z" fill="#263238" stroke="#263238" stroke-linecap="round" stroke-linejoin="round"/>
<path d="M201.817 143.285C201.581 143.519 201.274 143.666 200.944 143.704C200.614 143.742 200.281 143.668 199.998 143.494C198.978 142.848 198.514 140.528 199.16 139.327C199.806 138.126 201.108 140.437 201.108 140.437" fill="white"/>
<path d="M201.817 143.285C201.581 143.519 201.274 143.666 200.944 143.704C200.614 143.742 200.281 143.668 199.998 143.494C198.978 142.848 198.514 140.528 199.16 139.327C199.806 138.126 201.108 140.437 201.108 140.437" stroke="#263238" stroke-linecap="round" stroke-linejoin="round"/>
<path d="M205.666 150.819C205.666 150.819 205.848 159.063 205.293 158.099C204.738 157.134 200.107 151.065 200.107 151.065L201.217 147.816L205.666 150.819Z" fill="white" stroke="#263238" stroke-linecap="round" stroke-linejoin="round"/>
<path d="M197.513 159.9L200.662 169.718L194.92 176.998C194.92 176.998 194.638 177.553 194.174 176.907C193.71 176.261 193.346 176.261 192.6 172.739C191.854 169.218 190.78 160.692 190.844 158.654C190.907 156.615 191.308 155.596 192.882 155.323" fill="#263238"/>
<path d="M197.513 159.9L200.662 169.718L194.92 176.998C194.92 176.998 194.638 177.553 194.174 176.907C193.71 176.261 193.346 176.261 192.6 172.739C191.854 169.218 190.78 160.692 190.844 158.654C190.907 156.615 191.308 155.596 192.882 155.323" stroke="#263238" stroke-linecap="round" stroke-linejoin="round"/>
<path d="M215.111 171.292C215.111 171.292 200.753 176.752 198.805 176.852C196.858 176.952 196.403 175.651 197.231 173.212C198.059 170.774 200.571 169.409 202.691 168.763C205.131 168.193 207.673 168.224 210.098 168.854C212.245 169.436 215.111 170.555 215.111 171.292Z" fill="white" stroke="#263238" stroke-linecap="round" stroke-linejoin="round"/>
<path d="M203.164 168.699C203.164 168.699 199.734 176.106 199.524 176.761C199.315 177.416 195.812 177.871 194.702 177.78C193.592 177.689 194.056 176.015 195.166 173.613C196.276 171.211 198.041 169.063 199.333 168.699C200.602 168.497 201.895 168.497 203.164 168.699Z" fill="white" stroke="#263238" stroke-linecap="round" stroke-linejoin="round"/>
<path d="M222.336 166.106C223.536 166.202 224.72 166.45 225.858 166.843C227.159 167.398 227.432 171.293 226.768 172.685C226.103 174.077 224.083 174.068 222.691 173.977C222.298 173.964 221.912 173.866 221.561 173.69C221.209 173.514 220.899 173.264 220.653 172.958L219.634 166.106H222.336Z" fill="#263238" stroke="#263238" stroke-linecap="round" stroke-linejoin="round"/>
<path d="M219.652 166.106C219.652 166.106 209.188 166.106 206.594 166.015C204.001 165.924 203.346 166.57 202.791 167.498C202.236 168.426 202.054 168.79 202.054 168.79C205.337 169.106 208.57 169.821 211.681 170.919C215.948 172.594 219.652 174.068 220.953 174.068C222.254 174.068 222.773 170.737 222.245 168.417C222.137 167.796 221.822 167.229 221.351 166.809C220.881 166.39 220.282 166.142 219.652 166.106Z" fill="white" stroke="#263238" stroke-linecap="round" stroke-linejoin="round"/>
<path d="M222.618 165.46C222.618 165.46 218.169 165.36 218.26 166.197C218.351 167.034 219.17 173.331 219.47 173.886C219.77 174.441 222.427 174.723 223.728 174.632C225.03 174.541 224.565 170.364 223.728 168.417C223.295 167.457 222.924 166.469 222.618 165.46Z" fill="white" stroke="#263238" stroke-linecap="round" stroke-linejoin="round"/>
<path d="M209.37 186.625C209.37 186.625 208.624 187.735 208.906 188.017C209.188 188.299 210.571 189.591 210.48 190.419C210.437 190.901 210.242 191.356 209.925 191.72" stroke="#263238" stroke-linecap="round" stroke-linejoin="round"/>
<path d="M378.161 252.876H6.11071" stroke="#263238" stroke-linecap="round" stroke-linejoin="round"/>
</svg>
