<svg width="133" height="133" viewBox="0 0 133 133" fill="none" xmlns="http://www.w3.org/2000/svg">
<rect x="0.5" y="0.5" width="132" height="132" rx="9.5" fill="url(#paint0_linear_71_22)" fill-opacity="0.5" stroke="url(#paint1_linear_71_22)"/>
<g clip-path="url(#clip0_71_22)">
<path d="M57.6038 44.0556C57.4026 42.5755 57.2852 41.9869 57.2684 41.3982C57.2013 39.7332 56.564 39.3127 54.8868 39.8509C47.608 42.256 41.8219 46.6456 37.9644 53.3226C27.8847 70.7299 36.4885 92.4764 55.7422 98.1107C72.5304 103.022 89.5535 92.3755 93.5116 76.1455C94.2663 73.0341 94.6185 69.9058 94.3669 66.7271C94.2495 65.3648 94.7191 64.3557 95.8931 63.7334C97.9393 62.6402 99.2139 60.2856 101.83 60.1342C103.155 62.1524 102.803 64.507 102.954 66.6935C104.145 84.538 92.6227 101.256 75.0629 106.419C51.4319 113.332 27.2642 96.9166 25.151 72.3277C23.5912 54.2981 34.2076 37.7149 51.8344 31.7107C53.1091 31.2734 54.434 30.9707 55.7422 30.6343C56.782 30.3652 57.1678 29.6924 57.2516 28.6833C57.3355 27.4892 56.9833 26.2614 57.5535 25.1178C58.4424 24.7478 58.9455 25.4037 59.4655 25.8914C61.9812 28.2629 64.4969 30.6679 66.9959 33.0562C67.6499 33.6953 67.6499 34.4353 67.0294 35.024C64.1447 37.8495 61.2097 40.6246 57.6038 44.0556Z" fill="#F6C688"/>
<path d="M63.8764 81.5106C62.4676 81.6284 61.3774 80.8547 60.4717 79.7952C58.6269 77.6087 56.782 75.4223 54.9539 73.2191C52.455 70.2085 49.9392 67.198 47.4571 64.1874C46.7862 63.3802 46.1153 62.556 45.5954 61.6478C44.6395 59.9492 45.0084 58.0318 46.4005 56.72C47.7086 55.4922 49.9225 55.1222 51.3984 56.165C52.4885 56.9386 53.3942 57.9814 54.2663 59.0073C56.9833 62.2197 59.6499 65.4993 62.3501 68.7285C62.9204 69.418 63.5409 70.0908 64.195 70.6963C64.4969 70.9822 64.9665 71.1335 65.4193 70.7972C66.1405 70.259 66.8952 69.7712 67.6164 69.233C79.1552 60.5546 90.694 51.8762 102.25 43.1978C103.574 42.2055 104.883 41.1795 106.291 40.3218C108.371 39.0604 110.652 39.4472 111.977 41.1291C113.453 43.0128 113.268 45.4683 111.222 47.1333C108.438 49.4207 105.503 51.5398 102.618 53.7094C91.5493 62.0178 80.4801 70.3263 69.3942 78.6178C68.4382 79.341 67.4319 80.0138 66.4592 80.7202C65.7044 81.2752 64.8491 81.4938 63.826 81.5106H63.8764Z" fill="#F6C688"/>
<path d="M69.696 38.455C70.4004 36.8908 72.7149 36.6217 72.9162 34.9062C73.1007 33.1571 70.8533 32.5348 70.3334 31.0043C70.7694 30.3147 71.39 30.5334 71.9267 30.6343C80.4801 32.2489 87.4571 36.6385 93.3438 42.9287C94.0986 43.736 93.9979 44.476 93.109 45.216C92.304 45.8888 91.4487 46.4943 90.6101 47.1166C87.3732 49.5216 87.8092 49.7234 84.8575 46.797C81.4025 43.366 77.2432 41.045 72.564 39.6659C71.5745 39.38 70.5011 39.2622 69.7128 38.4718L69.696 38.455Z" fill="#F6C688"/>
</g>
<defs>
<linearGradient id="paint0_linear_71_22" x1="66.5" y1="0" x2="66.5" y2="133" gradientUnits="userSpaceOnUse">
<stop stop-color="#E3EDED"/>
<stop offset="1" stop-color="#818787"/>
</linearGradient>
<linearGradient id="paint1_linear_71_22" x1="66.5" y1="0" x2="66.5" y2="133" gradientUnits="userSpaceOnUse">
<stop stop-color="#122450"/>
<stop offset="1" stop-color="#D5D5D5"/>
</linearGradient>
<clipPath id="clip0_71_22">
<rect width="88" height="83" fill="white" transform="translate(25 25)"/>
</clipPath>
</defs>
</svg>
