<svg width="79" height="55" viewBox="0 0 79 55" fill="none" xmlns="http://www.w3.org/2000/svg">
<path d="M55.7 54.4L49.3 48.3C50.9 47.5667 52.9 46.2667 55.3 44.4C57.7 42.4667 59.8667 40.2 61.8 37.6C63.7333 35 64.7 32.3333 64.7 29.6C64.1667 30.3333 63.1333 30.9333 61.6 31.4C60.0667 31.8 58.5 32 56.9 32C53.7 32 50.7333 30.8 48 28.4C45.3333 26 44 22.4 44 17.6C44 12.2 45.6333 7.93333 48.9 4.79999C52.2333 1.66666 56.3333 0.0999885 61.2 0.0999885C66.0667 0.0999885 70.1333 1.83332 73.4 5.29999C76.7333 8.69999 78.4 13.6667 78.4 20.2C78.4 26 77.2667 31.1667 75 35.7C72.8 40.1667 69.9667 43.9667 66.5 47.1C63.1 50.2333 59.5 52.6667 55.7 54.4ZM12.4 54.4L5.9 48.3C7.5 47.5667 9.5 46.2667 11.9 44.4C14.3667 42.4667 16.5333 40.2 18.4 37.6C20.3333 35 21.3333 32.3333 21.4 29.6C20.8 30.3333 19.7333 30.9333 18.2 31.4C16.6667 31.8 15.1 32 13.5 32C10.3 32 7.36667 30.8 4.7 28.4C2.03333 26 0.700001 22.4 0.700001 17.6C0.700001 12.2 2.33333 7.93333 5.6 4.79999C8.86667 1.66666 12.9333 0.0999885 17.8 0.0999885C22.7333 0.0999885 26.8333 1.83332 30.1 5.29999C33.3667 8.69999 35 13.6667 35 20.2C35 26 33.9 31.1667 31.7 35.7C29.5 40.1667 26.6667 43.9667 23.2 47.1C19.7333 50.2333 16.1333 52.6667 12.4 54.4Z" fill="#122450" fill-opacity="0.8"/>
</svg>
