<?xml version="1.0" encoding="UTF-8"?>
<svg id="Layer_2" data-name="Layer 2" xmlns="http://www.w3.org/2000/svg" viewBox="0 0 665.88 211.43">
  <defs>
    <style>
      .cls-1 {
        fill: #122450;
        stroke-width: 0px;
      }
    </style>
  </defs>
  <g id="Layer_1-2" data-name="Layer 1">
    <g>
      <path class="cls-1" d="m468.41,7.55h89.2c21.32,0,40.15,4.07,56.52,12.2,16.36,8.13,29.07,19.59,38.15,34.36,9.07,14.77,13.6,31.98,13.6,51.61s-4.54,36.84-13.6,51.61c-9.07,14.77-21.79,26.23-38.15,34.36-16.36,8.13-35.2,12.2-56.52,12.2h-89.2V7.55Zm86.95,159.04c19.63,0,35.29-5.47,46.98-16.41,11.68-10.94,17.53-25.76,17.53-44.46s-5.85-33.52-17.53-44.46c-11.69-10.94-27.35-16.41-46.98-16.41h-41.51v121.73h41.51Z"/>
      <path class="cls-1" d="m0,7.55h89.2c21.32,0,40.15,4.07,56.52,12.2,16.36,8.13,29.07,19.59,38.15,34.36,9.07,14.77,13.6,31.98,13.6,51.61s-4.54,36.84-13.6,51.61c-9.07,14.77-21.79,26.23-38.15,34.36-16.37,8.13-35.2,12.2-56.52,12.2H0V7.55Zm86.95,159.04c19.63,0,35.29-5.47,46.98-16.41,11.68-10.94,17.53-25.76,17.53-44.46s-5.85-33.52-17.53-44.46c-11.69-10.94-27.35-16.41-46.98-16.41h-41.51v121.73h41.51Z"/>
      <g>
        <path class="cls-1" d="m435.98,107.28c-.15,3.33-.31,6.67-.76,9.97-.52,3.82-1.18,7.63-2.14,11.38-.92,3.6-1.97,7.15-3.18,10.67-2.27,6.65-5.2,12.99-8.82,18.99-2.89,4.8-6.59,8.96-11,12.47-3.36,2.67-6.96,4.98-10.9,6.67-2.61,1.12-5.33,2-8.11,2.74-4.61,1.23-9.27,1.58-14,1.51-1.01-.02-2-.22-3.01-.35-.02-.11-.04-.21-.06-.32.44-.32.87-.66,1.34-.94,4.33-2.59,8.3-5.67,12.12-8.97,4.67-4.02,8.83-8.52,12.55-13.4,3.98-5.23,7.44-10.81,10.07-16.84,1.54-3.52,2.93-7.1,4.2-10.72.77-2.19,1.24-4.51,1.77-6.78.39-1.64-.15-3.24-.69-4.74-1.21-3.3-3.69-5.41-6.92-6.63-.74-.29-1.64-.26-2.48-.25-5.45.02-10.92.03-16.37.15-1.2.03-2.41.38-3.57.73-3.62,1.08-7.09,2.52-10.12,4.81-1.58,1.18-3.13,2.44-4.52,3.84-3.14,3.17-6.19,6.44-9.24,9.69-5.13,5.47-9.34,11.58-12.3,18.49-1.32,3.07-2.54,6.23-3.45,9.45-1.56,5.48-2.19,11.14-2.21,16.84-.02,5.49,2.72,9.21,7.5,11.7,2.73,1.43,5.63,2.25,8.57,2.96,1.8.44,3.68.56,5.54.71,2.98.22,5.98.57,8.95.48,3.87-.1,7.73-.56,11.59-.88.64-.05,1.28-.09,1.9-.17.97-.14,1.93-.31,2.89-.44.36-.06.72-.06,1.09.05-17.94,13.36-38.15,20.36-60.39,21.24-26.11,1.03-50.48-7.47-68.81-21.34.46-.03.66-.09.83-.05,4.05.85,8.16,1.09,12.28,1.27,1.96.09,3.92.41,5.87.36,3.68-.1,7.34-.44,10.99-.91,2.85-.37,5.58-1.07,8.24-2.08,2.79-1.06,5.36-2.53,7.34-4.84,1.76-2.08,2.73-4.47,2.67-7.22-.06-2.6-.02-5.22-.22-7.81-.15-1.79-.62-3.55-.97-5.33-.19-1-.43-2-.64-3-1.01-4.6-2.78-8.92-4.79-13.17-2.12-4.47-4.79-8.58-7.88-12.39-2.49-3.08-5.3-5.92-8.04-8.79-2.33-2.45-4.64-4.94-7.18-7.16-3.18-2.77-6.9-4.63-10.95-5.94-3.28-1.05-6.6-1.27-9.99-1.25-3.64,0-7.28.05-10.92,0-3.36-.04-5.89,1.54-7.9,4.02-2.57,3.16-2.89,6.75-1.69,10.55.52,1.67,1.02,3.36,1.6,5.03.86,2.47,1.63,4.98,2.71,7.36,1.42,3.15,3,6.24,4.68,9.25,4.58,8.22,10.44,15.46,17.37,21.81,4.61,4.23,9.55,8.04,15.01,11.15.03.02.04.09.11.25-.3.11-.59.3-.88.31-2.36.08-4.71.2-7.07.15-4.2-.09-8.29-.99-12.25-2.27-5.91-1.9-11.27-4.83-16.13-8.75-5.78-4.67-10.07-10.46-13.45-17-2.08-4-4-8.08-5.47-12.36-1.01-2.9-2.08-5.78-2.96-8.72-.61-2.05-.99-4.17-1.41-6.28-.57-2.81-1.25-5.63-1.59-8.48-.44-3.7-.69-7.43-.86-11.15-.13-2.84-.09-5.7.05-8.56.15-3.18.43-6.36.78-9.53.27-2.38.66-4.75,1.17-7.09.72-3.23,1.46-6.47,2.44-9.63,2.09-6.8,4.78-13.35,8.13-19.64,2.73-5.12,5.88-9.95,9.33-14.6.19-.26.43-.49.76-.88.13.41.3.67.27.9-.13,1.06-.31,2.13-.47,3.19-.02.15-.07.29-.09.44-.24,2.53-.55,5.08-.71,7.62-.2,3.48-.44,6.97-.39,10.45.06,2.78.45,5.57.87,8.33.33,2.21.75,4.44,1.42,6.57.83,2.64,1.86,5.22,4.11,7.09,1.58,1.29,3.25,2.3,5.33,2.3,3.3,0,6.59.02,9.88-.18,2.13-.13,4.24-.64,6.35-.96,1.59-.25,3.18-.45,4.76-.72,1.1-.19,2.2-.4,3.28-.7,4.99-1.37,9.93-2.9,14.7-4.95,3.19-1.37,6.29-2.96,9.46-4.38,2.27-1.02,4.58-1.95,6.9-2.87,1.57-.62,3.15-1.18,4.76-1.68,1.11-.35,2.26-.54,3.4-.79,1.19-.25,2.39-.46,3.58-.73,3.04-.67,6.12-.81,9.21-.76,1.67.03,3.35.12,5,.35,1.73.24,3.44.68,5.15,1.05.95.2,1.89.44,2.81.7,1.59.44,3.19.8,4.73,1.37,2.28.84,4.53,1.8,6.75,2.78,2.58,1.13,5.09,2.41,7.68,3.51,3.25,1.38,6.54,2.71,9.84,3.96,1.78.68,3.61,1.21,5.43,1.74,1.17.34,2.38.55,3.56.82,1.41.34,2.82.69,4.24,1.02.18.04.38.08.57.11,2.14.25,4.3.35,6.4.78,3.22.67,6.46.41,9.7.59.48.02.98,0,1.47,0,4.04-.08,6.88-2.1,8.72-5.56,1.18-2.19,1.96-4.55,2.41-7.02.3-1.62.7-3.24,1.04-4.85.02-.1.04-.2.04-.3.04-4.12.84-8.21.44-12.36-.21-2.2-.19-4.42-.43-6.61-.22-2.14-.62-4.25-.94-6.37-.2-1.38-.38-2.77-.6-4.34.43.39.79.62,1.03.95,4.83,6.49,9.14,13.3,12.41,20.71,1.42,3.24,2.84,6.49,3.99,9.83,1.11,3.22,1.93,6.56,2.79,9.86.62,2.36,1.14,4.75,1.62,7.14.29,1.43.5,2.89.62,4.35.29,3.47.57,6.95.73,10.43.12,2.59.12,5.21,0,7.81Z"/>
        <path class="cls-1" d="m248.57,61.88c-.17-.83-.32-1.28-.35-1.73-.24-3.69-.05-7.38.68-11,.57-2.82,1.19-5.65,2.13-8.37,1.46-4.23,3.54-8.2,6.12-11.88,3.45-4.94,7.64-9.14,12.59-12.58,2.51-1.74,5.16-3.23,7.9-4.58,2.09-1.03,4.18-2.09,6.32-2.99,2.26-.95,4.58-1.79,6.91-2.58,2.36-.81,4.74-1.56,7.15-2.22,2.21-.61,4.46-1.08,6.7-1.59,1.56-.36,3.14-.69,4.71-1.03.1-.02.19-.03.29-.04,2.29-.24,4.57-.49,6.86-.72,1.8-.18,3.6-.48,5.4-.51,4.03-.07,8.06-.07,12.09.04,2.49.07,4.98.33,7.46.63,2.42.29,4.84.62,7.22,1.15,3.67.81,7.33,1.72,10.95,2.74,2.86.81,5.7,1.73,8.47,2.81,5.78,2.27,11.44,4.81,16.64,8.23,4.26,2.8,8.02,6.22,11.24,10.21,3.65,4.51,6.42,9.5,8.44,14.9.64,1.72.91,3.58,1.46,5.35,1.26,4.04,1.32,8.2,1.37,12.36.01,1.01-.13,2.02-.38,3.09-8.86-13.27-20.05-23.89-34-31.6-14.07-7.78-29.1-11.64-45.15-11.64-16.03,0-31.07,3.83-45.13,11.59-13.97,7.7-25.17,18.33-34.07,31.98Z"/>
      </g>
    </g>
  </g>
</svg>