<svg width="133" height="133" viewBox="0 0 133 133" fill="none" xmlns="http://www.w3.org/2000/svg">
<rect x="0.5" y="0.5" width="132" height="132" rx="9.5" fill="url(#paint0_linear_64_2051)" fill-opacity="0.5" stroke="url(#paint1_linear_64_2051)"/>
<g clip-path="url(#clip0_64_2051)">
<path d="M58.3089 103.191C54.9783 103.191 51.6308 103.241 48.3003 103.191C44.0061 103.107 42.6874 102.081 41.7406 97.8604C39.3061 87.1323 36.9561 76.3705 34.5723 65.6256C34.082 63.4228 33.5072 61.22 33.1183 59.0004C32.6112 56.1082 34.0651 53.8045 36.7025 53.031C39.2216 52.3079 41.8759 53.7036 42.6535 56.5622C43.7525 60.6315 44.564 64.7848 45.4769 68.9046C47.0323 75.967 48.5708 83.0462 50.1262 90.1086C50.2614 90.6971 50.4136 91.2856 50.5826 91.8574C50.87 92.8663 51.5632 93.2867 52.6114 93.2698C54.7416 93.2362 56.8549 93.2698 58.9851 93.2698C62.7721 93.2698 66.5761 93.2867 70.3631 93.2867C72.1552 93.2867 73.6091 93.9593 74.5897 95.4895C76.2972 98.1294 75.2491 101.392 72.3581 102.653C71.1915 103.157 70.0081 103.157 68.7908 103.174C65.3081 103.174 61.8085 103.174 58.3258 103.174L58.3089 103.191Z" fill="#F6C688"/>
<path d="M82.84 65.3061C84.3616 64.8017 85.19 63.4733 86.2382 62.4307C89.1461 59.5721 91.9864 56.6295 94.8943 53.7709C96.1115 52.577 97.2612 52.3752 98.1065 53.0142C99.0871 53.754 98.9518 55.1329 97.5824 56.5286C91.8511 62.3466 86.0691 68.1143 80.3041 73.8987C79.9828 74.2182 79.6447 74.5209 79.2728 74.7731C78.5796 75.2271 77.8695 75.2775 77.1764 74.7395C76.4325 74.1509 76.1789 73.0579 76.703 72.3181C77.2271 71.595 77.8695 70.9392 78.4782 70.2666C79.2728 69.3754 80.3548 68.7196 80.7098 67.408C76.0268 68.1311 71.4113 68.8037 66.7959 69.5772C64.9869 69.8799 63.2455 69.6276 61.4704 69.0391C61.6394 71.9874 60.5743 74.4144 58.2751 76.3201C56.2801 77.9512 54.2682 79.5486 52.2395 81.1293C51.5632 81.6673 50.7517 81.3647 50.4981 80.4903C50.0078 78.7583 49.5852 76.9927 49.1456 75.2439C48.0805 71.0065 46.9985 66.769 45.9503 62.5148C45.6967 61.4891 45.46 60.4633 45.3586 59.404C44.7838 53.5186 50.7348 50.9291 54.86 53.2664C57.4974 54.763 60.1009 56.3268 62.62 57.9915C64.4797 59.219 66.2887 59.8243 68.5879 59.2526C70.7858 58.6977 73.1189 58.7145 75.3167 58.2269C79.6616 57.2516 83.4317 60.1775 82.3328 64.8353C82.0792 65.1548 81.7749 65.5752 82.1638 65.8442C82.6202 66.1637 82.7724 65.6929 82.84 65.3061Z" fill="#F6C688"/>
<path d="M69.839 77.9006C71.5466 77.9847 73.3555 78.0688 75.1814 78.1529C77.4131 78.2706 79.2728 79.1281 80.7943 80.7592C86.5932 86.9304 92.3921 93.1016 98.191 99.2728C99.3745 100.534 100.203 101.946 99.9662 103.746C99.5097 107.31 95.3676 109.16 92.3414 107.159C91.4623 106.587 90.7015 105.814 89.9407 105.091C85.9677 101.358 81.8933 97.7426 78.1062 93.8247C76.1113 91.7564 73.998 91.0838 71.2591 91.2015C67.32 91.3696 63.3808 91.2519 59.4247 91.2519C56.8718 91.2519 54.6571 90.4952 53.0003 88.4438C52.3578 87.6535 52.3578 86.7286 53.0341 85.9888C53.4398 85.5516 53.9132 85.1648 54.3866 84.7781C55.6884 83.7355 57.0071 82.7266 58.292 81.6672C64.3952 76.6731 61.9606 77.8502 69.8221 77.867L69.839 77.9006Z" fill="#F6C688"/>
<path d="M44.5132 39.2256C44.6992 39.4274 44.9697 39.831 45.0712 39.7974C45.7643 39.5115 46.4575 39.192 47.0661 38.7884C49.9402 36.8547 52.7805 34.8705 55.6545 32.9536C56.3984 32.4659 57.193 31.9783 58.0383 31.7597C58.5286 31.6252 59.3401 31.8606 59.6783 32.2305C60.1009 32.6845 59.8304 33.3067 59.2387 33.7102C58.647 34.1306 57.92 34.4333 57.6495 35.4086C58.2243 36.2998 58.9851 37.2583 59.4754 38.3176C60.9632 41.5966 60.7265 44.7242 58.3934 47.5828C56.0772 50.4078 53.0848 51.5344 49.5344 50.7273C46.0179 49.9369 43.7525 47.6837 42.7888 44.1861C42.3154 42.4542 43.1269 41.3275 44.4963 40.4195C45.0035 40.0832 45.3755 39.6292 44.564 39.1584L44.5132 39.2256Z" fill="#F6C688"/>
<path d="M44.564 39.1584L44.1582 38.5194C41.0643 40.8736 38.3424 40.0496 35.8234 37.5442C37.7 35.4759 48.9427 28.094 54.9445 25C55.1643 25.3027 55.5024 25.5885 55.6376 25.9585C57.1423 30.1118 56.3815 29.8092 53.592 31.7429C50.6334 33.7944 47.6409 35.8122 44.6823 37.8637C44.1751 38.2168 43.837 38.6876 44.5132 39.2257L44.564 39.1584Z" fill="#F6C688"/>
</g>
<defs>
<linearGradient id="paint0_linear_64_2051" x1="66.5" y1="0" x2="66.5" y2="133" gradientUnits="userSpaceOnUse">
<stop stop-color="#E3EDED"/>
<stop offset="1" stop-color="#818787"/>
</linearGradient>
<linearGradient id="paint1_linear_64_2051" x1="66.5" y1="0" x2="66.5" y2="133" gradientUnits="userSpaceOnUse">
<stop stop-color="#122450"/>
<stop offset="1" stop-color="#D5D5D5"/>
</linearGradient>
<clipPath id="clip0_64_2051">
<rect width="67" height="83" fill="white" transform="translate(33 25)"/>
</clipPath>
</defs>
</svg>
